<svg width="58" height="91" viewBox="0 0 58 91" fill="none" xmlns="http://www.w3.org/2000/svg">
<path d="M9.75266 78.4107H7.88694C7.83372 78.1047 7.73562 77.8337 7.59261 77.5975C7.4496 77.3581 7.27168 77.1552 7.05883 76.9889C6.84599 76.8227 6.60321 76.6979 6.3305 76.6148C6.06112 76.5283 5.77012 76.4851 5.4575 76.4851C4.90211 76.4851 4.4099 76.6248 3.98088 76.9041C3.55186 77.1802 3.21597 77.5859 2.97319 78.1213C2.73041 78.6535 2.60902 79.3036 2.60902 80.0719C2.60902 80.8534 2.73041 81.5119 2.97319 82.0474C3.21929 82.5795 3.55519 82.9819 3.98088 83.2546C4.4099 83.524 4.90044 83.6587 5.45251 83.6587C5.75848 83.6587 6.04449 83.6188 6.31055 83.5389C6.57993 83.4558 6.82104 83.3344 7.03389 83.1748C7.25006 83.0151 7.43131 82.8189 7.57764 82.5861C7.7273 82.3533 7.8304 82.0873 7.88694 81.7879L9.75266 81.7979C9.68282 82.2835 9.5315 82.7391 9.2987 83.1648C9.06923 83.5905 8.76825 83.9663 8.39577 84.2922C8.02329 84.6148 7.58762 84.8676 7.08876 85.0505C6.58991 85.2301 6.03617 85.3199 5.42757 85.3199C4.52963 85.3199 3.72813 85.112 3.02308 84.6963C2.31802 84.2806 1.76263 83.6803 1.35689 82.8954C0.951155 82.1105 0.748286 81.1694 0.748286 80.0719C0.748286 78.9711 0.952818 78.0299 1.36188 77.2483C1.77094 76.4635 2.328 75.8632 3.03305 75.4475C3.7381 75.0318 4.53628 74.8239 5.42757 74.8239C5.99627 74.8239 6.52505 74.9037 7.01393 75.0633C7.50282 75.223 7.93848 75.4574 8.32094 75.7667C8.7034 76.0727 9.01768 76.4485 9.26378 76.8942C9.51321 77.3365 9.67617 77.842 9.75266 78.4107ZM12.8739 74.9636V85.1802H11.068V74.9636H12.8739ZM17.8234 85.3298C17.0552 85.3298 16.3917 85.1702 15.833 84.8509C15.2776 84.5283 14.8502 84.0727 14.5509 83.4841C14.2516 82.8921 14.102 82.1953 14.102 81.3938C14.102 80.6057 14.2516 79.9139 14.5509 79.3186C14.8536 78.72 15.2759 78.2544 15.818 77.9218C16.3601 77.5859 16.997 77.418 17.7286 77.418C18.2009 77.418 18.6465 77.4944 19.0656 77.6474C19.488 77.7971 19.8604 78.0299 20.183 78.3458C20.5089 78.6618 20.765 79.0642 20.9513 79.5531C21.1375 80.0386 21.2306 80.6173 21.2306 81.2891V81.8428H14.95V80.6256H19.4996C19.4963 80.2797 19.4214 79.9721 19.2751 79.7027C19.1288 79.43 18.9242 79.2155 18.6615 79.0592C18.4021 78.9029 18.0995 78.8247 17.7536 78.8247C17.3844 78.8247 17.0602 78.9145 16.7808 79.0941C16.5015 79.2704 16.2836 79.5032 16.1273 79.7925C15.9743 80.0785 15.8962 80.3928 15.8929 80.7354V81.7979C15.8929 82.2436 15.9743 82.626 16.1373 82.9453C16.3003 83.2612 16.5281 83.504 16.8207 83.6736C17.1134 83.8399 17.4559 83.9231 17.8484 83.9231C18.1111 83.9231 18.3489 83.8865 18.5617 83.8133C18.7746 83.7368 18.9592 83.6254 19.1155 83.4791C19.2718 83.3327 19.3898 83.1515 19.4697 82.9353L21.1558 83.1249C21.0494 83.5705 20.8465 83.9596 20.5472 84.2922C20.2512 84.6215 19.8721 84.8775 19.4098 85.0605C18.9475 85.24 18.4187 85.3298 17.8234 85.3298ZM24.6636 85.3348C24.1781 85.3348 23.7408 85.2484 23.3516 85.0754C22.9659 84.8992 22.6599 84.6397 22.4337 84.2972C22.2109 83.9546 22.0995 83.5323 22.0995 83.0301C22.0995 82.5978 22.1793 82.2402 22.339 81.9576C22.4986 81.6749 22.7164 81.4487 22.9925 81.2791C23.2685 81.1095 23.5795 80.9815 23.9253 80.895C24.2745 80.8052 24.6354 80.7403 25.0079 80.7004C25.4568 80.6539 25.821 80.6123 26.1003 80.5757C26.3797 80.5358 26.5826 80.476 26.709 80.3961C26.8387 80.313 26.9035 80.185 26.9035 80.012V79.9821C26.9035 79.6063 26.7921 79.3153 26.5693 79.1091C26.3465 78.9029 26.0255 78.7998 25.6065 78.7998C25.1642 78.7998 24.8133 78.8962 24.5539 79.0891C24.2978 79.282 24.1249 79.5098 24.0351 79.7726L22.3489 79.5331C22.482 79.0675 22.7015 78.6784 23.0074 78.3658C23.3134 78.0498 23.6875 77.8137 24.1299 77.6574C24.5722 77.4978 25.0611 77.418 25.5965 77.418C25.9657 77.418 26.3331 77.4612 26.699 77.5477C27.0648 77.6341 27.399 77.7771 27.7017 77.9767C28.0043 78.1729 28.2471 78.4406 28.43 78.7798C28.6163 79.1191 28.7094 79.5431 28.7094 80.0519V85.1802H26.9733V84.1276H26.9135C26.8037 84.3404 26.6491 84.54 26.4495 84.7262C26.2533 84.9091 26.0056 85.0571 25.7063 85.1702C25.4103 85.2799 25.0627 85.3348 24.6636 85.3348ZM25.1326 84.0079C25.4951 84.0079 25.8093 83.9364 26.0754 83.7934C26.3415 83.647 26.546 83.4541 26.689 83.2147C26.8353 82.9752 26.9085 82.7142 26.9085 82.4315V81.5285C26.852 81.5751 26.7555 81.6183 26.6192 81.6582C26.4861 81.6982 26.3365 81.7331 26.1702 81.763C26.0039 81.7929 25.8393 81.8195 25.6763 81.8428C25.5134 81.8661 25.372 81.8861 25.2523 81.9027C24.9829 81.9393 24.7418 81.9991 24.5289 82.0823C24.3161 82.1654 24.1482 82.2818 24.0251 82.4315C23.9021 82.5778 23.8405 82.7674 23.8405 83.0002C23.8405 83.3327 23.9619 83.5838 24.2047 83.7534C24.4475 83.9231 24.7568 84.0079 25.1326 84.0079ZM32.0314 80.6905V85.1802H30.2255V77.5177H31.9516V78.8197H32.0414C32.2176 78.3907 32.4987 78.0498 32.8844 77.7971C33.2735 77.5443 33.7541 77.418 34.3261 77.418C34.8549 77.418 35.3155 77.531 35.708 77.7572C36.1037 77.9833 36.4097 78.3109 36.6259 78.7399C36.8454 79.1689 36.9534 79.6894 36.9501 80.3014V85.1802H35.1443V80.5807C35.1443 80.0686 35.0112 79.6678 34.7452 79.3785C34.4824 79.0891 34.1183 78.9445 33.6527 78.9445C33.3367 78.9445 33.0557 79.0143 32.8096 79.154C32.5668 79.2903 32.3756 79.4882 32.2359 79.7476C32.0996 80.007 32.0314 80.3213 32.0314 80.6905ZM38.4862 85.1802V77.5177H40.2921V85.1802H38.4862ZM39.3942 76.4302C39.1081 76.4302 38.862 76.3354 38.6558 76.1459C38.4496 75.953 38.3466 75.7218 38.3466 75.4525C38.3466 75.1797 38.4496 74.9486 38.6558 74.759C38.862 74.5662 39.1081 74.4697 39.3942 74.4697C39.6835 74.4697 39.9296 74.5662 40.1325 74.759C40.3387 74.9486 40.4418 75.1797 40.4418 75.4525C40.4418 75.7218 40.3387 75.953 40.1325 76.1459C39.9296 76.3354 39.6835 76.4302 39.3942 76.4302ZM43.6553 80.6905V85.1802H41.8494V77.5177H43.5755V78.8197H43.6652C43.8415 78.3907 44.1225 78.0498 44.5083 77.7971C44.8974 77.5443 45.378 77.418 45.95 77.418C46.4788 77.418 46.9394 77.531 47.3318 77.7572C47.7276 77.9833 48.0336 78.3109 48.2497 78.7399C48.4692 79.1689 48.5773 79.6894 48.574 80.3014V85.1802H46.7681V80.5807C46.7681 80.0686 46.6351 79.6678 46.3691 79.3785C46.1063 79.0891 45.7422 78.9445 45.2766 78.9445C44.9606 78.9445 44.6796 79.0143 44.4335 79.154C44.1907 79.2903 43.9995 79.4882 43.8598 79.7476C43.7234 80.007 43.6553 80.3213 43.6553 80.6905ZM53.4425 88.2132C52.794 88.2132 52.2369 88.1251 51.7713 87.9488C51.3057 87.7759 50.9316 87.5431 50.6489 87.2504C50.3662 86.9578 50.17 86.6335 50.0602 86.2777L51.6865 85.8836C51.7597 86.0332 51.8661 86.1812 52.0058 86.3275C52.1454 86.4772 52.3334 86.6003 52.5695 86.6967C52.8089 86.7965 53.1099 86.8464 53.4724 86.8464C53.9846 86.8464 54.4086 86.7216 54.7445 86.4722C55.0804 86.2261 55.2483 85.8204 55.2483 85.255V83.8033H55.1585C55.0654 83.9896 54.9291 84.1808 54.7495 84.377C54.5732 84.5732 54.3388 84.7379 54.0461 84.8709C53.7568 85.0039 53.3926 85.0704 52.9536 85.0704C52.3649 85.0704 51.8312 84.9324 51.3523 84.6564C50.8767 84.377 50.4976 83.9613 50.2149 83.4092C49.9355 82.8538 49.7958 82.1588 49.7958 81.324C49.7958 80.4826 49.9355 79.7726 50.2149 79.1939C50.4976 78.6119 50.8784 78.1712 51.3573 77.8719C51.8362 77.5693 52.3699 77.418 52.9586 77.418C53.4076 77.418 53.7767 77.4944 54.066 77.6474C54.3587 77.7971 54.5915 77.9783 54.7644 78.1912C54.9374 78.4007 55.0688 78.5986 55.1585 78.7848H55.2583V77.5177H57.0392V85.3049C57.0392 85.9601 56.8829 86.5021 56.5703 86.9312C56.2577 87.3602 55.8303 87.6811 55.2883 87.894C54.7462 88.1068 54.1309 88.2132 53.4425 88.2132ZM53.4574 83.6537C53.8399 83.6537 54.1658 83.5606 54.4352 83.3743C54.7046 83.1881 54.9091 82.9204 55.0488 82.5712C55.1885 82.222 55.2583 81.8029 55.2583 81.314C55.2583 80.8318 55.1885 80.4094 55.0488 80.0469C54.9124 79.6844 54.7096 79.4034 54.4402 79.2039C54.1741 79.001 53.8466 78.8996 53.4574 78.8996C53.055 78.8996 52.7191 79.0043 52.4498 79.2138C52.1804 79.4234 51.9775 79.711 51.8411 80.0769C51.7048 80.4394 51.6366 80.8518 51.6366 81.314C51.6366 81.783 51.7048 82.1937 51.8411 82.5462C51.9808 82.8954 52.1854 83.1681 52.4547 83.3643C52.7274 83.5572 53.0617 83.6537 53.4574 83.6537Z" fill="#004FA3"/>
<path fill-rule="evenodd" clip-rule="evenodd" d="M26.4887 31.3982L10.9285 2.1307C10.8391 1.96258 10.7837 1.77849 10.7655 1.58895C10.7472 1.39942 10.7665 1.20814 10.8221 1.02605C10.9346 0.658293 11.1885 0.350265 11.528 0.169726C11.8676 -0.0108133 12.2649 -0.0490745 12.6327 0.0633591C12.8148 0.119031 12.9841 0.210023 13.1311 0.331141C13.278 0.452259 13.3996 0.601131 13.489 0.769256L29.0507 30.0367L31.2574 28.8623C31.93 28.5048 32.6664 28.2832 33.4247 28.2103C34.1829 28.1373 34.948 28.2145 35.6764 28.4373C36.4048 28.6602 37.0822 29.0243 37.6698 29.5089C38.2575 29.9936 38.7439 30.5892 39.1013 31.2619L40.0409 33.0279L50.0002 47.6065L29.3407 58.5909L22.8234 42.181L21.8853 40.4151C21.5277 39.7426 21.3061 39.0062 21.233 38.2481C21.16 37.4899 21.237 36.7248 21.4597 35.9964C21.6824 35.268 22.0464 34.5906 22.5309 34.0029C23.0154 33.4152 23.6109 32.9287 24.2835 32.5711L26.4902 31.3982H26.4887ZM25.6435 35.1317L32.6174 31.4243C32.9537 31.2455 33.3218 31.1346 33.7009 31.0981C34.08 31.0616 34.4626 31.1001 34.8268 31.2115C35.1909 31.3228 35.5296 31.5048 35.8235 31.7471C36.1174 31.9893 36.3606 32.2871 36.5394 32.6233L37.4789 34.3879L25.3825 40.8196L24.4444 39.0536C24.2656 38.7174 24.1548 38.3492 24.1182 37.9701C24.0817 37.591 24.1202 37.2085 24.2316 36.8443C24.3429 36.4801 24.5249 36.1414 24.7672 35.8475C25.0094 35.5537 25.3072 35.3104 25.6435 35.1317V35.1317ZM26.8469 44.4574L30.8384 54.5094L33.4975 53.0958L30.3585 46.9845L32.9393 45.6593L36.0595 51.7344L45.7766 46.5669L39.6755 37.6356L26.8469 44.4574V44.4574Z" fill="#004FA3"/>
<path d="M18.2213 45.3592C18.3676 45.2374 18.5365 45.1455 18.7183 45.0889C18.9002 45.0324 19.0913 45.0121 19.281 45.0294C19.4706 45.0467 19.655 45.1012 19.8236 45.1898C19.9921 45.2783 20.1416 45.3992 20.2635 45.5455C20.3853 45.6919 20.4772 45.8608 20.5338 46.0426C20.5903 46.2244 20.6106 46.4156 20.5933 46.6052C20.576 46.7948 20.5215 46.9792 20.4329 47.1478C20.3444 47.3164 20.2235 47.4659 20.0772 47.5877L20.0757 47.5892L20.0728 47.5921L20.0685 47.595L20.054 47.6066L20.0105 47.6428L19.8611 47.7573C19.735 47.8516 19.5567 47.9806 19.329 48.1343C18.8723 48.4388 18.2126 48.8361 17.3804 49.2333C15.2169 50.2713 12.8495 50.8147 10.4499 50.8239C10.0654 50.8239 9.69657 50.6711 9.42466 50.3992C9.15276 50.1273 9 49.7585 9 49.374C9 48.9894 9.15276 48.6207 9.42466 48.3487C9.69657 48.0768 10.0654 47.9241 10.4499 47.9241C12.4181 47.9147 14.3595 47.4675 16.1335 46.6148C16.6827 46.3546 17.2128 46.0557 17.7196 45.7202C17.8865 45.61 18.0495 45.4939 18.2083 45.3723L18.2228 45.3578V45.3592H18.2213ZM22.8537 54.93C23.1736 54.7165 23.3957 54.3848 23.471 54.0076C23.5463 53.6305 23.4687 53.2389 23.2553 52.919C23.0419 52.599 22.7101 52.377 22.333 52.3017C21.9559 52.2263 21.5643 52.3039 21.2443 52.5173L21.2414 52.5202L21.2124 52.5376L21.0877 52.6174C20.3329 53.0779 19.5493 53.4895 18.7418 53.8498C17.1904 54.537 15.2331 55.1735 13.3497 55.1735C12.9651 55.1735 12.5964 55.3263 12.3244 55.5982C12.0525 55.8701 11.8998 56.2389 11.8998 56.6234C11.8998 57.008 12.0525 57.3767 12.3244 57.6487C12.5964 57.9206 12.9651 58.0733 13.3497 58.0733C15.8174 58.0733 18.2068 57.2599 19.9191 56.4987C20.8492 56.0845 21.7515 55.6103 22.6203 55.0793C22.6756 55.0449 22.7307 55.0101 22.7856 54.9749L22.832 54.9445L22.8465 54.9358L22.8537 54.93V54.93Z" fill="#004FA3"/>
</svg>
