<svg width="86" height="88" viewBox="0 0 86 88" fill="none" xmlns="http://www.w3.org/2000/svg">
<path d="M9.75266 76.2305H7.88694C7.83372 75.9245 7.73562 75.6535 7.59261 75.4174C7.4496 75.1779 7.27168 74.975 7.05883 74.8088C6.84599 74.6425 6.60321 74.5178 6.3305 74.4346C6.06112 74.3482 5.77012 74.3049 5.4575 74.3049C4.90211 74.3049 4.4099 74.4446 3.98088 74.724C3.55186 75 3.21597 75.4057 2.97319 75.9412C2.73041 76.4733 2.60902 77.1235 2.60902 77.8917C2.60902 78.6732 2.73041 79.3317 2.97319 79.8672C3.21929 80.3993 3.55519 80.8017 3.98088 81.0744C4.4099 81.3438 4.90044 81.4785 5.45251 81.4785C5.75848 81.4785 6.04449 81.4386 6.31055 81.3588C6.57993 81.2756 6.82104 81.1542 7.03389 80.9946C7.25006 80.835 7.43131 80.6387 7.57764 80.4059C7.7273 80.1731 7.8304 79.9071 7.88694 79.6078L9.75266 79.6177C9.68282 80.1033 9.5315 80.5589 9.2987 80.9846C9.06923 81.4103 8.76825 81.7861 8.39577 82.112C8.02329 82.4346 7.58762 82.6874 7.08876 82.8703C6.58991 83.0499 6.03617 83.1397 5.42757 83.1397C4.52963 83.1397 3.72813 82.9318 3.02308 82.5161C2.31802 82.1004 1.76263 81.5001 1.35689 80.7152C0.951155 79.9304 0.748286 78.9892 0.748286 77.8917C0.748286 76.7909 0.952818 75.8497 1.36188 75.0682C1.77094 74.2833 2.328 73.683 3.03305 73.2673C3.7381 72.8516 4.53628 72.6437 5.42757 72.6437C5.99627 72.6437 6.52505 72.7235 7.01393 72.8832C7.50282 73.0428 7.93848 73.2773 8.32094 73.5866C8.7034 73.8925 9.01768 74.2683 9.26378 74.714C9.51321 75.1563 9.67617 75.6618 9.75266 76.2305ZM14.4104 83.1497C13.6621 83.1497 13.0136 82.985 12.4648 82.6558C11.9161 82.3265 11.4904 81.8659 11.1878 81.274C10.8884 80.682 10.7388 79.9902 10.7388 79.1987C10.7388 78.4072 10.8884 77.7138 11.1878 77.1185C11.4904 76.5232 11.9161 76.0609 12.4648 75.7316C13.0136 75.4024 13.6621 75.2378 14.4104 75.2378C15.1587 75.2378 15.8072 75.4024 16.3559 75.7316C16.9047 76.0609 17.3287 76.5232 17.628 77.1185C17.9306 77.7138 18.082 78.4072 18.082 79.1987C18.082 79.9902 17.9306 80.682 17.628 81.274C17.3287 81.8659 16.9047 82.3265 16.3559 82.6558C15.8072 82.985 15.1587 83.1497 14.4104 83.1497ZM14.4203 81.703C14.8261 81.703 15.1653 81.5916 15.438 81.3687C15.7107 81.1426 15.9136 80.8399 16.0466 80.4608C16.183 80.0817 16.2512 79.6593 16.2512 79.1937C16.2512 78.7248 16.183 78.3008 16.0466 77.9216C15.9136 77.5392 15.7107 77.2349 15.438 77.0087C15.1653 76.7826 14.8261 76.6695 14.4203 76.6695C14.0046 76.6695 13.6588 76.7826 13.3827 77.0087C13.11 77.2349 12.9055 77.5392 12.7691 77.9216C12.6361 78.3008 12.5696 78.7248 12.5696 79.1937C12.5696 79.6593 12.6361 80.0817 12.7691 80.4608C12.9055 80.8399 13.11 81.1426 13.3827 81.3687C13.6588 81.5916 14.0046 81.703 14.4203 81.703ZM21.1209 78.5103V83H19.315V75.3376H21.0411V76.6396H21.1309C21.3071 76.2106 21.5881 75.8697 21.9739 75.6169C22.363 75.3642 22.8436 75.2378 23.4156 75.2378C23.9444 75.2378 24.405 75.3509 24.7975 75.577C25.1932 75.8032 25.4992 76.1307 25.7154 76.5598C25.9349 76.9888 26.0429 77.5092 26.0396 78.1212V83H24.2337V78.4005C24.2337 77.8884 24.1007 77.4876 23.8347 77.1983C23.5719 76.909 23.2078 76.7643 22.7422 76.7643C22.4262 76.7643 22.1452 76.8341 21.8991 76.9738C21.6563 77.1102 21.4651 77.308 21.3254 77.5674C21.1891 77.8268 21.1209 78.1411 21.1209 78.5103ZM33.6318 77.3629L31.9856 77.5425C31.9391 77.3762 31.8576 77.2199 31.7412 77.0736C31.6281 76.9272 31.4751 76.8092 31.2822 76.7194C31.0893 76.6296 30.8532 76.5847 30.5739 76.5847C30.198 76.5847 29.8821 76.6662 29.626 76.8291C29.3733 76.9921 29.2486 77.2033 29.2519 77.4627C29.2486 77.6855 29.33 77.8668 29.4963 78.0064C29.6659 78.1461 29.9453 78.2609 30.3344 78.3506L31.6414 78.63C32.3664 78.7863 32.9052 79.0341 33.2577 79.3733C33.6136 79.7125 33.7931 80.1565 33.7965 80.7053C33.7931 81.1875 33.6518 81.6132 33.3724 81.9823C33.0964 82.3482 32.7123 82.6342 32.2201 82.8404C31.7279 83.0466 31.1625 83.1497 30.524 83.1497C29.5861 83.1497 28.8312 82.9534 28.2592 82.561C27.6871 82.1652 27.3462 81.6148 27.2365 80.9098L28.9975 80.7402C29.0773 81.0861 29.2469 81.3471 29.5063 81.5234C29.7657 81.6996 30.1033 81.7878 30.519 81.7878C30.948 81.7878 31.2922 81.6996 31.5516 81.5234C31.8143 81.3471 31.9457 81.1293 31.9457 80.8699C31.9457 80.6504 31.8609 80.4691 31.6913 80.3261C31.525 80.1831 31.2656 80.0734 30.9131 79.9969L29.6061 79.7225C28.8711 79.5695 28.3273 79.3118 27.9748 78.9493C27.6223 78.5834 27.4477 78.1212 27.451 77.5625C27.4477 77.0902 27.5757 76.6811 27.8351 76.3353C28.0979 75.9861 28.462 75.7167 28.9276 75.5271C29.3965 75.3342 29.937 75.2378 30.5489 75.2378C31.4469 75.2378 32.1536 75.429 32.6691 75.8115C33.1879 76.1939 33.5088 76.7111 33.6318 77.3629ZM38.8121 75.3376V76.7344H34.4072V75.3376H38.8121ZM35.4947 73.5018H37.3006V80.6953C37.3006 80.9381 37.3372 81.1243 37.4103 81.254C37.4868 81.3804 37.5866 81.4668 37.7096 81.5134C37.8327 81.56 37.969 81.5832 38.1187 81.5832C38.2318 81.5832 38.3349 81.5749 38.428 81.5583C38.5244 81.5417 38.5976 81.5267 38.6475 81.5134L38.9518 82.9252C38.8553 82.9584 38.7173 82.995 38.5377 83.0349C38.3615 83.0748 38.1453 83.0981 37.8892 83.1048C37.4369 83.1181 37.0295 83.0499 36.667 82.9002C36.3045 82.7472 36.0168 82.5111 35.804 82.1919C35.5945 81.8726 35.4914 81.4735 35.4947 80.9946V73.5018ZM40.0227 83V75.3376H41.7737V76.6146H41.8535C41.9932 76.1723 42.2327 75.8314 42.5719 75.592C42.9144 75.3492 43.3052 75.2278 43.7442 75.2278C43.844 75.2278 43.9554 75.2328 44.0784 75.2428C44.2048 75.2494 44.3096 75.2611 44.3927 75.2777V76.9389C44.3162 76.9123 44.1948 76.889 44.0285 76.869C43.8656 76.8458 43.7076 76.8341 43.5546 76.8341C43.2254 76.8341 42.9294 76.9056 42.6667 77.0486C42.4073 77.1883 42.2027 77.3829 42.0531 77.6323C41.9034 77.8817 41.8286 78.1694 41.8286 78.4953V83H40.0227ZM50.1766 79.7774V75.3376H51.9824V83H50.2315V81.6381H50.1516C49.9787 82.0671 49.6944 82.418 49.2986 82.6907C48.9062 82.9634 48.4223 83.0998 47.8469 83.0998C47.3447 83.0998 46.9007 82.9884 46.515 82.7655C46.1325 82.5394 45.8332 82.2118 45.617 81.7828C45.4009 81.3504 45.2928 80.8283 45.2928 80.2164V75.3376H47.0986V79.937C47.0986 80.4226 47.2317 80.8084 47.4977 81.0944C47.7638 81.3804 48.113 81.5234 48.5453 81.5234C48.8114 81.5234 49.0691 81.4585 49.3185 81.3288C49.568 81.1991 49.7725 81.0062 49.9321 80.7502C50.0951 80.4907 50.1766 80.1665 50.1766 79.7774ZM56.8821 83.1497C56.1172 83.1497 55.4604 82.9817 54.9116 82.6458C54.3662 82.3099 53.9455 81.846 53.6495 81.254C53.3568 80.6587 53.2105 79.9736 53.2105 79.1987C53.2105 78.4205 53.3602 77.7337 53.6595 77.1384C53.9588 76.5398 54.3812 76.0742 54.9266 75.7416C55.4753 75.4057 56.1238 75.2378 56.8721 75.2378C57.494 75.2378 58.0444 75.3525 58.5233 75.582C59.0056 75.8081 59.3897 76.1291 59.6757 76.5448C59.9617 76.9572 60.1247 77.4394 60.1646 77.9915H58.4385C58.3687 77.6223 58.2024 77.3147 57.9397 77.0686C57.6803 76.8192 57.3327 76.6944 56.8971 76.6944C56.5279 76.6944 56.2037 76.7942 55.9243 76.9938C55.6449 77.19 55.4271 77.4727 55.2708 77.8418C55.1178 78.211 55.0413 78.6533 55.0413 79.1688C55.0413 79.6909 55.1178 80.1399 55.2708 80.5157C55.4238 80.8882 55.6383 81.1758 55.9143 81.3787C56.1937 81.5783 56.5213 81.678 56.8971 81.678C57.1631 81.678 57.4009 81.6281 57.6104 81.5284C57.8233 81.4253 58.0012 81.2773 58.1442 81.0844C58.2872 80.8915 58.3853 80.657 58.4385 80.381H60.1646C60.1213 80.9231 59.9617 81.4037 59.6857 81.8227C59.4096 82.2384 59.0338 82.5643 58.5583 82.8005C58.0827 83.0333 57.524 83.1497 56.8821 83.1497ZM65.174 75.3376V76.7344H60.7691V75.3376H65.174ZM61.8566 73.5018H63.6624V80.6953C63.6624 80.9381 63.699 81.1243 63.7722 81.254C63.8487 81.3804 63.9485 81.4668 64.0715 81.5134C64.1946 81.56 64.3309 81.5832 64.4806 81.5832C64.5936 81.5832 64.6967 81.5749 64.7899 81.5583C64.8863 81.5417 64.9595 81.5267 65.0094 81.5134L65.3137 82.9252C65.2172 82.9584 65.0792 82.995 64.8996 83.0349C64.7233 83.0748 64.5072 83.0981 64.2511 83.1048C63.7988 83.1181 63.3914 83.0499 63.0289 82.9002C62.6664 82.7472 62.3787 82.5111 62.1659 82.1919C61.9564 81.8726 61.8533 81.4735 61.8566 80.9946V73.5018ZM66.3846 83V75.3376H68.1904V83H66.3846ZM67.2925 74.25C67.0065 74.25 66.7604 74.1553 66.5542 73.9657C66.348 73.7728 66.2449 73.5417 66.2449 73.2723C66.2449 72.9996 66.348 72.7684 66.5542 72.5789C66.7604 72.386 67.0065 72.2895 67.2925 72.2895C67.5818 72.2895 67.8279 72.386 68.0308 72.5789C68.237 72.7684 68.3401 72.9996 68.3401 73.2723C68.3401 73.5417 68.237 73.7728 68.0308 73.9657C67.8279 74.1553 67.5818 74.25 67.2925 74.25ZM73.0901 83.1497C72.3418 83.1497 71.6933 82.985 71.1446 82.6558C70.5958 82.3265 70.1701 81.8659 69.8675 81.274C69.5682 80.682 69.4185 79.9902 69.4185 79.1987C69.4185 78.4072 69.5682 77.7138 69.8675 77.1185C70.1701 76.5232 70.5958 76.0609 71.1446 75.7316C71.6933 75.4024 72.3418 75.2378 73.0901 75.2378C73.8384 75.2378 74.4869 75.4024 75.0356 75.7316C75.5844 76.0609 76.0084 76.5232 76.3077 77.1185C76.6104 77.7138 76.7617 78.4072 76.7617 79.1987C76.7617 79.9902 76.6104 80.682 76.3077 81.274C76.0084 81.8659 75.5844 82.3265 75.0356 82.6558C74.4869 82.985 73.8384 83.1497 73.0901 83.1497ZM73.1001 81.703C73.5058 81.703 73.845 81.5916 74.1178 81.3687C74.3905 81.1426 74.5933 80.8399 74.7264 80.4608C74.8627 80.0817 74.9309 79.6593 74.9309 79.1937C74.9309 78.7248 74.8627 78.3008 74.7264 77.9216C74.5933 77.5392 74.3905 77.2349 74.1178 77.0087C73.845 76.7826 73.5058 76.6695 73.1001 76.6695C72.6844 76.6695 72.3385 76.7826 72.0625 77.0087C71.7897 77.2349 71.5852 77.5392 71.4489 77.9216C71.3158 78.3008 71.2493 78.7248 71.2493 79.1937C71.2493 79.6593 71.3158 80.0817 71.4489 80.4608C71.5852 80.8399 71.7897 81.1426 72.0625 81.3687C72.3385 81.5916 72.6844 81.703 73.1001 81.703ZM79.8006 78.5103V83H77.9947V75.3376H79.7208V76.6396H79.8106C79.9869 76.2106 80.2679 75.8697 80.6537 75.6169C81.0428 75.3642 81.5233 75.2378 82.0954 75.2378C82.6241 75.2378 83.0848 75.3509 83.4772 75.577C83.8729 75.8032 84.1789 76.1307 84.3951 76.5598C84.6146 76.9888 84.7227 77.5092 84.7193 78.1212V83H82.9135V78.4005C82.9135 77.8884 82.7805 77.4876 82.5144 77.1983C82.2517 76.909 81.8875 76.7643 81.4219 76.7643C81.106 76.7643 80.8249 76.8341 80.5788 76.9738C80.3361 77.1102 80.1448 77.308 80.0051 77.5674C79.8688 77.8268 79.8006 78.1411 79.8006 78.5103Z" fill="#004FA3"/>
<path fill-rule="evenodd" clip-rule="evenodd" d="M56.5844 11.0153L56.4469 10.9083C56.1826 8.90083 55.2217 6.80931 53.7214 5.04625C51.2846 2.18167 47.3124 0 41.9957 0C36.7554 0 33.0628 2.38944 30.8842 5.35181C29.8679 6.72221 29.1417 8.28537 28.7499 9.94583C28.6785 10.2568 28.6214 10.5708 28.5787 10.8869L28.4137 11.0137C26.6965 12.3444 25.4361 13.9578 25.7355 15.8079C26.0228 17.5954 27.6392 18.6832 29.1425 19.3478C29.5244 19.5174 29.9369 19.6762 30.3754 19.8244C30.1545 21.5467 30.3031 23.2962 30.8113 24.9565C31.3195 26.6168 32.1756 28.1498 33.3226 29.4533C34.4697 30.7568 35.8813 31.801 37.4634 32.5163C39.0456 33.2316 40.762 33.6015 42.4983 33.6015C44.2347 33.6015 45.9511 33.2316 47.5332 32.5163C49.1154 31.801 50.527 30.7568 51.674 29.4533C52.821 28.1498 53.6772 26.6168 54.1853 24.9565C54.6935 23.2962 54.8421 21.5467 54.6212 19.8244C55.0597 19.6762 55.4722 19.5189 55.8542 19.3478C57.3575 18.6832 58.9724 17.5954 59.2611 15.8079C59.5605 13.9578 58.3001 12.3444 56.5829 11.0137L56.5844 11.0153ZM31.7214 13.2489C31.5228 12.6775 31.4708 11.7593 31.729 10.6242C31.9826 9.51653 32.5082 8.30194 33.3332 7.1775V11.4583C33.3332 11.8635 33.4941 12.2521 33.7807 12.5386C34.0672 12.8251 34.4558 12.9861 34.861 12.9861C35.2662 12.9861 35.6548 12.8251 35.9413 12.5386C36.2278 12.2521 36.3887 11.8635 36.3887 11.4583V4.44583C37.6461 3.73083 39.1662 3.23125 40.9721 3.09375V8.40278C40.9721 8.80797 41.133 9.19657 41.4195 9.48308C41.7061 9.76959 42.0947 9.93056 42.4999 9.93056C42.905 9.93056 43.2936 9.76959 43.5802 9.48308C43.8667 9.19657 44.0276 8.80797 44.0276 8.40278V3.18847C45.6409 3.39182 47.1983 3.91096 48.611 4.71625V11.4583C48.611 11.8635 48.7719 12.2521 49.0584 12.5386C49.345 12.8251 49.7335 12.9861 50.1387 12.9861C50.5439 12.9861 50.9325 12.8251 51.219 12.5386C51.5056 12.2521 51.6665 11.8635 51.6665 11.4583V7.36083C53.3547 9.52417 53.7504 11.8586 53.2753 13.2596C53.1576 13.6063 53.1683 13.9838 53.3056 14.3233C53.4428 14.6628 53.6974 14.9417 54.023 15.1092C54.3486 15.2767 54.7236 15.3217 55.0796 15.236C55.4356 15.1503 55.7489 14.9396 55.9626 14.6422C56.2636 15.0624 56.2529 15.2854 56.2468 15.3206C56.2269 15.4428 55.9932 15.9469 54.6197 16.555C54.0239 16.8178 53.315 17.0546 52.519 17.2639L52.4824 17.2731C51.6192 17.4961 50.6582 17.6856 49.63 17.8414C47.7231 18.1164 45.8011 18.2745 43.8749 18.315C42.5507 18.3481 41.2258 18.3338 39.9026 18.2722C38.3807 18.2041 36.8633 18.0593 35.356 17.8383C34.4005 17.6996 33.453 17.5109 32.5174 17.2731L32.4807 17.2639C31.7629 17.0834 31.0604 16.8463 30.38 16.555C29.0065 15.9469 28.7728 15.4428 28.7529 15.3206C28.7468 15.2854 28.7361 15.0624 29.0371 14.6422C29.2511 14.9409 29.5657 15.1525 29.923 15.2381C30.2804 15.3237 30.6566 15.2776 30.9828 15.1083C31.3089 14.939 31.5632 14.6579 31.6988 14.3163C31.8345 13.9748 31.8425 13.5958 31.7214 13.2489V13.2489ZM33.3668 20.596C33.874 20.6953 34.3996 20.7854 34.9374 20.8664C36.569 21.1108 38.326 21.2667 40.1135 21.34C41.7068 21.4055 43.3021 21.4055 44.8954 21.34C46.6737 21.2667 48.4246 21.1108 50.0486 20.8664C50.5788 20.7892 51.1071 20.699 51.6329 20.596C51.7416 21.8612 51.5861 23.1352 51.1765 24.3372C50.7669 25.5392 50.1119 26.643 49.2533 27.5786C48.3946 28.5141 47.3509 29.2611 46.1883 29.7721C45.0258 30.2831 43.7697 30.5469 42.4999 30.5469C41.23 30.5469 39.9739 30.2831 38.8114 29.7721C37.6488 29.2611 36.6051 28.5141 35.7465 27.5786C34.8878 26.643 34.2329 25.5392 33.8232 24.3372C33.4136 23.1352 33.2581 21.8612 33.3668 20.596V20.596Z" fill="#004FA3"/>
<path fill-rule="evenodd" clip-rule="evenodd" d="M50.1389 34.3599C51.1442 34.5356 52.1678 34.7403 53.1944 34.974C61.5101 36.8731 70 40.6696 70 45.8335V55.0001H15V45.8335C15 40.6696 23.4899 36.8731 31.8056 34.974C32.8186 34.7432 33.8375 34.5384 34.8611 34.3599V41.2501H50.1389V34.3599V34.3599ZM28.75 38.9432C29.7492 38.6376 30.7743 38.3611 31.8056 38.1121V44.3057H53.1944V38.1136C54.7421 38.4839 56.2715 38.9264 57.7778 39.4397V51.9446H60.8333V40.6344C61.2764 40.8315 61.7042 41.0347 62.1136 41.244C63.8507 42.1271 65.1386 43.0376 65.9544 43.9085C66.7565 44.764 66.9444 45.395 66.9444 45.8335V51.9446H18.0556V45.8335C18.0556 45.395 18.2435 44.764 19.0456 43.9085C19.8614 43.0376 21.1493 42.1271 22.8864 41.244C23.7557 40.801 24.6983 40.3854 25.6944 39.9989V51.9446H28.75V38.9447V38.9432Z" fill="#004FA3"/>
</svg>
