<svg width="66" height="81" viewBox="0 0 66 81" fill="none" xmlns="http://www.w3.org/2000/svg">
<path d="M1.00769 76V65.7834H7.65247V67.3348H2.85845V70.1085H7.30826V71.6599H2.85845V74.4486H7.69238V76H1.00769ZM12.0046 76.1347C11.4027 76.1347 10.8639 75.98 10.3883 75.6708C9.91276 75.3615 9.53695 74.9125 9.26092 74.3238C8.98488 73.7352 8.84686 73.0202 8.84686 72.1788C8.84686 71.3274 8.98654 70.609 9.2659 70.0237C9.54859 69.435 9.92938 68.9911 10.4083 68.6917C10.8872 68.3891 11.421 68.2378 12.0096 68.2378C12.4586 68.2378 12.8277 68.3143 13.1171 68.4673C13.4064 68.6169 13.6359 68.7982 13.8055 69.011C13.9751 69.2205 14.1065 69.4184 14.1996 69.6046H14.2744V65.7834H16.0853V76H14.3094V74.7928H14.1996C14.1065 74.979 13.9718 75.1769 13.7955 75.3864C13.6193 75.5926 13.3865 75.7689 13.0971 75.9152C12.8078 76.0615 12.4436 76.1347 12.0046 76.1347ZM12.5085 74.6531C12.8909 74.6531 13.2169 74.55 13.4862 74.3438C13.7556 74.1343 13.9602 73.8433 14.0998 73.4708C14.2395 73.0983 14.3094 72.6643 14.3094 72.1688C14.3094 71.6732 14.2395 71.2426 14.0998 70.8767C13.9635 70.5109 13.7606 70.2266 13.4912 70.0237C13.2252 69.8208 12.8976 69.7194 12.5085 69.7194C12.1061 69.7194 11.7702 69.8241 11.5008 70.0337C11.2314 70.2432 11.0285 70.5325 10.8922 70.9017C10.7558 71.2708 10.6876 71.6932 10.6876 72.1688C10.6876 72.6477 10.7558 73.075 10.8922 73.4508C11.0319 73.8233 11.2364 74.1176 11.5058 74.3338C11.7785 74.5467 12.1127 74.6531 12.5085 74.6531ZM22.5938 72.7774V68.3376H24.3996V76H22.6486V74.6381H22.5688C22.3959 75.0671 22.1115 75.418 21.7158 75.6907C21.3233 75.9634 20.8394 76.0998 20.2641 76.0998C19.7619 76.0998 19.3179 75.9884 18.9321 75.7655C18.5497 75.5394 18.2504 75.2118 18.0342 74.7828C17.818 74.3504 17.7099 73.8283 17.7099 73.2164V68.3376H19.5158V72.937C19.5158 73.4226 19.6488 73.8084 19.9149 74.0944C20.1809 74.3804 20.5301 74.5234 20.9625 74.5234C21.2285 74.5234 21.4863 74.4585 21.7357 74.3288C21.9851 74.1991 22.1897 74.0062 22.3493 73.7502C22.5123 73.4907 22.5938 73.1665 22.5938 72.7774ZM29.2993 76.1497C28.5344 76.1497 27.8775 75.9817 27.3288 75.6458C26.7834 75.3099 26.3627 74.846 26.0667 74.254C25.774 73.6587 25.6277 72.9736 25.6277 72.1987C25.6277 71.4205 25.7773 70.7337 26.0767 70.1384C26.376 69.5398 26.7983 69.0742 27.3437 68.7416C27.8925 68.4057 28.541 68.2378 29.2893 68.2378C29.9112 68.2378 30.4616 68.3525 30.9405 68.582C31.4227 68.8081 31.8069 69.1291 32.0929 69.5448C32.3789 69.9572 32.5418 70.4394 32.5818 70.9915H30.8557C30.7859 70.6223 30.6196 70.3147 30.3568 70.0686C30.0974 69.8192 29.7499 69.6944 29.3142 69.6944C28.9451 69.6944 28.6208 69.7942 28.3415 69.9938C28.0621 70.19 27.8443 70.4727 27.688 70.8418C27.535 71.211 27.4585 71.6533 27.4585 72.1688C27.4585 72.6909 27.535 73.1399 27.688 73.5157C27.8409 73.8882 28.0555 74.1758 28.3315 74.3787C28.6108 74.5783 28.9384 74.678 29.3142 74.678C29.5803 74.678 29.8181 74.6281 30.0276 74.5284C30.2404 74.4253 30.4184 74.2773 30.5614 74.0844C30.7044 73.8915 30.8025 73.657 30.8557 73.381H32.5818C32.5385 73.9231 32.3789 74.4037 32.1028 74.8227C31.8268 75.2384 31.451 75.5643 30.9754 75.8005C30.4999 76.0333 29.9411 76.1497 29.2993 76.1497ZM35.9699 76.1546C35.4843 76.1546 35.047 76.0682 34.6579 75.8952C34.2721 75.719 33.9661 75.4596 33.74 75.117C33.5172 74.7745 33.4057 74.3521 33.4057 73.8499C33.4057 73.4176 33.4856 73.0601 33.6452 72.7774C33.8048 72.4947 34.0227 72.2685 34.2987 72.0989C34.5747 71.9293 34.8857 71.8013 35.2316 71.7148C35.5808 71.625 35.9416 71.5602 36.3141 71.5203C36.7631 71.4737 37.1272 71.4321 37.4066 71.3955C37.6859 71.3556 37.8888 71.2958 38.0152 71.216C38.1449 71.1328 38.2097 71.0048 38.2097 70.8318V70.8019C38.2097 70.4261 38.0983 70.1351 37.8755 69.9289C37.6527 69.7227 37.3317 69.6196 36.9127 69.6196C36.4704 69.6196 36.1195 69.7161 35.8601 69.909C35.604 70.1018 35.4311 70.3297 35.3413 70.5924L33.6552 70.3529C33.7882 69.8873 34.0077 69.4982 34.3137 69.1856C34.6196 68.8697 34.9938 68.6335 35.4361 68.4772C35.8784 68.3176 36.3673 68.2378 36.9027 68.2378C37.2719 68.2378 37.6394 68.281 38.0052 68.3675C38.371 68.454 38.7053 68.597 39.0079 68.7965C39.3106 68.9927 39.5533 69.2604 39.7362 69.5997C39.9225 69.9389 40.0156 70.3629 40.0156 70.8717V76H38.2796V74.9474H38.2197C38.11 75.1603 37.9553 75.3598 37.7558 75.546C37.5596 75.729 37.3118 75.8769 37.0125 75.99C36.7165 76.0998 36.369 76.1546 35.9699 76.1546ZM36.4388 74.8277C36.8013 74.8277 37.1156 74.7562 37.3816 74.6132C37.6477 74.4668 37.8522 74.274 37.9952 74.0345C38.1416 73.7951 38.2147 73.534 38.2147 73.2513V72.3484C38.1582 72.3949 38.0617 72.4382 37.9254 72.4781C37.7924 72.518 37.6427 72.5529 37.4764 72.5828C37.3101 72.6128 37.1455 72.6394 36.9825 72.6626C36.8196 72.6859 36.6782 72.7059 36.5585 72.7225C36.2891 72.7591 36.048 72.819 35.8352 72.9021C35.6223 72.9852 35.4544 73.1016 35.3313 73.2513C35.2083 73.3976 35.1468 73.5872 35.1468 73.82C35.1468 74.1526 35.2681 74.4037 35.5109 74.5733C35.7537 74.7429 36.063 74.8277 36.4388 74.8277ZM45.358 68.3376V69.7344H40.9531V68.3376H45.358ZM42.0406 66.5018H43.8465V73.6953C43.8465 73.9381 43.883 74.1243 43.9562 74.254C44.0327 74.3804 44.1325 74.4668 44.2555 74.5134C44.3786 74.56 44.5149 74.5832 44.6646 74.5832C44.7777 74.5832 44.8808 74.5749 44.9739 74.5583C45.0703 74.5417 45.1435 74.5267 45.1934 74.5134L45.4977 75.9252C45.4012 75.9584 45.2632 75.995 45.0836 76.0349C44.9074 76.0748 44.6912 76.0981 44.4351 76.1048C43.9828 76.1181 43.5754 76.0499 43.2129 75.9002C42.8504 75.7472 42.5627 75.5111 42.3499 75.1919C42.1404 74.8726 42.0373 74.4735 42.0406 73.9946V66.5018ZM46.5686 76V68.3376H48.3745V76H46.5686ZM47.4765 67.25C47.1905 67.25 46.9444 67.1553 46.7382 66.9657C46.532 66.7728 46.4289 66.5417 46.4289 66.2723C46.4289 65.9996 46.532 65.7684 46.7382 65.5789C46.9444 65.386 47.1905 65.2895 47.4765 65.2895C47.7659 65.2895 48.012 65.386 48.2148 65.5789C48.421 65.7684 48.5241 65.9996 48.5241 66.2723C48.5241 66.5417 48.421 66.7728 48.2148 66.9657C48.012 67.1553 47.7659 67.25 47.4765 67.25ZM53.2741 76.1497C52.5258 76.1497 51.8773 75.985 51.3286 75.6558C50.7798 75.3265 50.3541 74.8659 50.0515 74.274C49.7522 73.682 49.6025 72.9902 49.6025 72.1987C49.6025 71.4072 49.7522 70.7138 50.0515 70.1185C50.3541 69.5232 50.7798 69.0609 51.3286 68.7316C51.8773 68.4024 52.5258 68.2378 53.2741 68.2378C54.0224 68.2378 54.6709 68.4024 55.2197 68.7316C55.7684 69.0609 56.1924 69.5232 56.4917 70.1185C56.7944 70.7138 56.9457 71.4072 56.9457 72.1987C56.9457 72.9902 56.7944 73.682 56.4917 74.274C56.1924 74.8659 55.7684 75.3265 55.2197 75.6558C54.6709 75.985 54.0224 76.1497 53.2741 76.1497ZM53.2841 74.703C53.6898 74.703 54.0291 74.5916 54.3018 74.3687C54.5745 74.1426 54.7773 73.8399 54.9104 73.4608C55.0467 73.0817 55.1149 72.6593 55.1149 72.1937C55.1149 71.7248 55.0467 71.3008 54.9104 70.9216C54.7773 70.5392 54.5745 70.2349 54.3018 70.0087C54.0291 69.7826 53.6898 69.6695 53.2841 69.6695C52.8684 69.6695 52.5225 69.7826 52.2465 70.0087C51.9738 70.2349 51.7692 70.5392 51.6329 70.9216C51.4998 71.3008 51.4333 71.7248 51.4333 72.1937C51.4333 72.6593 51.4998 73.0817 51.6329 73.4608C51.7692 73.8399 51.9738 74.1426 52.2465 74.3687C52.5225 74.5916 52.8684 74.703 53.2841 74.703ZM59.9846 71.5103V76H58.1788V68.3376H59.9048V69.6396H59.9946C60.1709 69.2106 60.4519 68.8697 60.8377 68.6169C61.2268 68.3642 61.7073 68.2378 62.2794 68.2378C62.8082 68.2378 63.2688 68.3509 63.6612 68.577C64.057 68.8032 64.3629 69.1307 64.5791 69.5598C64.7986 69.9888 64.9067 70.5092 64.9034 71.1212V76H63.0975V71.4005C63.0975 70.8884 62.9645 70.4876 62.6984 70.1983C62.4357 69.909 62.0715 69.7643 61.6059 69.7643C61.29 69.7643 61.0089 69.8341 60.7628 69.9738C60.5201 70.1102 60.3288 70.308 60.1892 70.5674C60.0528 70.8268 59.9846 71.1411 59.9846 71.5103Z" fill="#004FA3"/>
<path d="M47.7501 38.7635L33.5001 46.7791L19.2501 38.7635V30.2946L15.1787 28.0327V41.1445L33.5001 51.4503L51.8216 41.1445V28.0327L47.7501 30.2946V38.7635V38.7635Z" fill="#004FA3"/>
<path d="M33.5 0L5 14.7778V18.3064L33.5 34.1393L57.9286 20.5683V31.811H62V14.7778L33.5 0ZM53.8571 18.1727L49.7857 20.4345L33.5 29.4826L17.2143 20.4345L13.1429 18.1727L10.321 16.6049L33.5 4.58621L56.679 16.6049L53.8571 18.1727Z" fill="#004FA3"/>
</svg>
