<svg width="100" height="81" viewBox="0 0 100 81" fill="none" xmlns="http://www.w3.org/2000/svg">
<path d="M1.00769 76V65.7834H7.5527V67.3348H2.85845V70.1085H7.10373V71.6599H2.85845V76H1.00769ZM11.6392 76.1497C10.8909 76.1497 10.2424 75.985 9.69367 75.6558C9.14493 75.3265 8.71924 74.8659 8.4166 74.274C8.11728 73.682 7.96763 72.9902 7.96763 72.1987C7.96763 71.4072 8.11728 70.7138 8.4166 70.1185C8.71924 69.5232 9.14493 69.0609 9.69367 68.7316C10.2424 68.4024 10.8909 68.2378 11.6392 68.2378C12.3875 68.2378 13.036 68.4024 13.5848 68.7316C14.1335 69.0609 14.5575 69.5232 14.8568 70.1185C15.1595 70.7138 15.3108 71.4072 15.3108 72.1987C15.3108 72.9902 15.1595 73.682 14.8568 74.274C14.5575 74.8659 14.1335 75.3265 13.5848 75.6558C13.036 75.985 12.3875 76.1497 11.6392 76.1497ZM11.6492 74.703C12.0549 74.703 12.3942 74.5916 12.6669 74.3687C12.9396 74.1426 13.1424 73.8399 13.2755 73.4608C13.4118 73.0817 13.48 72.6593 13.48 72.1937C13.48 71.7248 13.4118 71.3008 13.2755 70.9216C13.1424 70.5392 12.9396 70.2349 12.6669 70.0087C12.3942 69.7826 12.0549 69.6695 11.6492 69.6695C11.2335 69.6695 10.8876 69.7826 10.6116 70.0087C10.3389 70.2349 10.1343 70.5392 9.99798 70.9216C9.86495 71.3008 9.79843 71.7248 9.79843 72.1937C9.79843 72.6593 9.86495 73.0817 9.99798 73.4608C10.1343 73.8399 10.3389 74.1426 10.6116 74.3687C10.8876 74.5916 11.2335 74.703 11.6492 74.703ZM19.8862 76.1497C19.1379 76.1497 18.4894 75.985 17.9407 75.6558C17.3919 75.3265 16.9662 74.8659 16.6636 74.274C16.3643 73.682 16.2146 72.9902 16.2146 72.1987C16.2146 71.4072 16.3643 70.7138 16.6636 70.1185C16.9662 69.5232 17.3919 69.0609 17.9407 68.7316C18.4894 68.4024 19.1379 68.2378 19.8862 68.2378C20.6345 68.2378 21.283 68.4024 21.8317 68.7316C22.3805 69.0609 22.8045 69.5232 23.1038 70.1185C23.4065 70.7138 23.5578 71.4072 23.5578 72.1987C23.5578 72.9902 23.4065 73.682 23.1038 74.274C22.8045 74.8659 22.3805 75.3265 21.8317 75.6558C21.283 75.985 20.6345 76.1497 19.8862 76.1497ZM19.8962 74.703C20.3019 74.703 20.6411 74.5916 20.9139 74.3687C21.1866 74.1426 21.3894 73.8399 21.5225 73.4608C21.6588 73.0817 21.727 72.6593 21.727 72.1937C21.727 71.7248 21.6588 71.3008 21.5225 70.9216C21.3894 70.5392 21.1866 70.2349 20.9139 70.0087C20.6411 69.7826 20.3019 69.6695 19.8962 69.6695C19.4805 69.6695 19.1346 69.7826 18.8586 70.0087C18.5858 70.2349 18.3813 70.5392 18.245 70.9216C18.1119 71.3008 18.0454 71.7248 18.0454 72.1937C18.0454 72.6593 18.1119 73.0817 18.245 73.4608C18.3813 73.8399 18.5858 74.1426 18.8586 74.3687C19.1346 74.5916 19.4805 74.703 19.8962 74.703ZM27.6343 76.1347C27.0324 76.1347 26.4936 75.98 26.018 75.6708C25.5425 75.3615 25.1667 74.9125 24.8906 74.3238C24.6146 73.7352 24.4766 73.0202 24.4766 72.1788C24.4766 71.3274 24.6162 70.609 24.8956 70.0237C25.1783 69.435 25.5591 68.9911 26.038 68.6917C26.5169 68.3891 27.0507 68.2378 27.6393 68.2378C28.0883 68.2378 28.4574 68.3143 28.7468 68.4673C29.0361 68.6169 29.2656 68.7982 29.4352 69.011C29.6048 69.2205 29.7362 69.4184 29.8293 69.6046H29.9041V65.7834H31.715V76H29.9391V74.7928H29.8293C29.7362 74.979 29.6015 75.1769 29.4252 75.3864C29.249 75.5926 29.0162 75.7689 28.7268 75.9152C28.4375 76.0615 28.0733 76.1347 27.6343 76.1347ZM28.1382 74.6531C28.5206 74.6531 28.8466 74.55 29.1159 74.3438C29.3853 74.1343 29.5899 73.8433 29.7295 73.4708C29.8692 73.0983 29.9391 72.6643 29.9391 72.1688C29.9391 71.6732 29.8692 71.2426 29.7295 70.8767C29.5932 70.5109 29.3903 70.2266 29.1209 70.0237C28.8549 69.8208 28.5273 69.7194 28.1382 69.7194C27.7358 69.7194 27.3999 69.8241 27.1305 70.0337C26.8611 70.2432 26.6582 70.5325 26.5219 70.9017C26.3855 71.2708 26.3174 71.6932 26.3174 72.1688C26.3174 72.6477 26.3855 73.075 26.5219 73.4508C26.6616 73.8233 26.8661 74.1176 27.1355 74.3338C27.4082 74.5467 27.7424 74.6531 28.1382 74.6531ZM37.5101 65.3045L34.2176 77.5365H32.6363L35.9287 65.3045H37.5101ZM38.4426 76V65.7834H42.3536C43.0919 65.7834 43.7055 65.8998 44.1944 66.1326C44.6866 66.3621 45.0541 66.6764 45.2969 67.0754C45.543 67.4745 45.666 67.9268 45.666 68.4323C45.666 68.848 45.5862 69.2039 45.4266 69.4999C45.267 69.7926 45.0524 70.0303 44.7831 70.2133C44.5137 70.3962 44.2127 70.5275 43.8801 70.6074V70.7071C44.2426 70.7271 44.5902 70.8385 44.9227 71.0414C45.2586 71.2409 45.533 71.5236 45.7459 71.8894C45.9587 72.2552 46.0651 72.6976 46.0651 73.2164C46.0651 73.7452 45.9371 74.2207 45.681 74.6431C45.4249 75.0621 45.0391 75.3931 44.5237 75.6358C44.0082 75.8786 43.3597 76 42.5781 76H38.4426ZM40.2933 74.4535H42.2838C42.9556 74.4535 43.4395 74.3255 43.7355 74.0694C44.0348 73.81 44.1844 73.4774 44.1844 73.0717C44.1844 72.7691 44.1096 72.4964 43.9599 72.2536C43.8103 72.0075 43.5974 71.8146 43.3214 71.6749C43.0454 71.5319 42.7161 71.4604 42.3337 71.4604H40.2933V74.4535ZM40.2933 70.1284H42.1242C42.4434 70.1284 42.7311 70.0702 42.9872 69.9538C43.2433 69.8341 43.4445 69.6662 43.5908 69.45C43.7404 69.2305 43.8153 68.9711 43.8153 68.6718C43.8153 68.276 43.6756 67.9501 43.3962 67.694C43.1202 67.4379 42.7095 67.3099 42.1641 67.3099H40.2933V70.1284ZM50.6879 76.1497C49.9197 76.1497 49.2562 75.99 48.6975 75.6708C48.1421 75.3482 47.7147 74.8925 47.4154 74.3039C47.1161 73.7119 46.9664 73.0152 46.9664 72.2137C46.9664 71.4255 47.1161 70.7337 47.4154 70.1384C47.718 69.5398 48.1404 69.0742 48.6825 68.7416C49.2246 68.4057 49.8615 68.2378 50.5931 68.2378C51.0654 68.2378 51.511 68.3143 51.9301 68.4673C52.3524 68.6169 52.7249 68.8497 53.0475 69.1657C53.3734 69.4816 53.6295 69.884 53.8157 70.3729C54.002 70.8584 54.0951 71.4371 54.0951 72.1089V72.6626H47.8145V71.4454H52.3641C52.3607 71.0996 52.2859 70.7919 52.1396 70.5225C51.9933 70.2498 51.7887 70.0353 51.526 69.879C51.2666 69.7227 50.9639 69.6446 50.6181 69.6446C50.2489 69.6446 49.9247 69.7344 49.6453 69.9139C49.3659 70.0902 49.1481 70.323 48.9918 70.6123C48.8388 70.8984 48.7607 71.2126 48.7573 71.5552V72.6177C48.7573 73.0634 48.8388 73.4459 49.0018 73.7651C49.1647 74.0811 49.3925 74.3238 49.6852 74.4935C49.9779 74.6597 50.3204 74.7429 50.7129 74.7429C50.9756 74.7429 51.2134 74.7063 51.4262 74.6331C51.6391 74.5566 51.8236 74.4452 51.98 74.2989C52.1363 74.1526 52.2543 73.9713 52.3341 73.7551L54.0203 73.9447C53.9139 74.3904 53.711 74.7795 53.4117 75.112C53.1157 75.4413 52.7366 75.6974 52.2743 75.8803C51.812 76.0599 51.2832 76.1497 50.6879 76.1497ZM61.948 68.3376L59.2192 76H57.2238L54.4951 68.3376H56.4207L58.1816 74.0295H58.2614L60.0274 68.3376H61.948ZM66.0295 76.1497C65.2613 76.1497 64.5978 75.99 64.0391 75.6708C63.4837 75.3482 63.0563 74.8925 62.757 74.3039C62.4577 73.7119 62.308 73.0152 62.308 72.2137C62.308 71.4255 62.4577 70.7337 62.757 70.1384C63.0597 69.5398 63.482 69.0742 64.0241 68.7416C64.5662 68.4057 65.2031 68.2378 65.9347 68.2378C66.407 68.2378 66.8526 68.3143 67.2717 68.4673C67.694 68.6169 68.0665 68.8497 68.3891 69.1657C68.715 69.4816 68.9711 69.884 69.1574 70.3729C69.3436 70.8584 69.4367 71.4371 69.4367 72.1089V72.6626H63.1561V71.4454H67.7057C67.7024 71.0996 67.6275 70.7919 67.4812 70.5225C67.3349 70.2498 67.1303 70.0353 66.8676 69.879C66.6082 69.7227 66.3056 69.6446 65.9597 69.6446C65.5905 69.6446 65.2663 69.7344 64.9869 69.9139C64.7076 70.0902 64.4897 70.323 64.3334 70.6123C64.1804 70.8984 64.1023 71.2126 64.0989 71.5552V72.6177C64.0989 73.0634 64.1804 73.4459 64.3434 73.7651C64.5063 74.0811 64.7342 74.3238 65.0268 74.4935C65.3195 74.6597 65.662 74.7429 66.0545 74.7429C66.3172 74.7429 66.555 74.7063 66.7678 74.6331C66.9807 74.5566 67.1653 74.4452 67.3216 74.2989C67.4779 74.1526 67.5959 73.9713 67.6758 73.7551L69.3619 73.9447C69.2555 74.3904 69.0526 74.7795 68.7533 75.112C68.4573 75.4413 68.0782 75.6974 67.6159 75.8803C67.1536 76.0599 66.6248 76.1497 66.0295 76.1497ZM70.6648 76V68.3376H72.4158V69.6146H72.4956C72.6353 69.1723 72.8747 68.8314 73.2139 68.592C73.5565 68.3492 73.9473 68.2278 74.3863 68.2278C74.486 68.2278 74.5974 68.2328 74.7205 68.2428C74.8469 68.2494 74.9516 68.2611 75.0348 68.2777V69.9389C74.9583 69.9123 74.8369 69.889 74.6706 69.869C74.5076 69.8458 74.3497 69.8341 74.1967 69.8341C73.8674 69.8341 73.5715 69.9056 73.3087 70.0486C73.0493 70.1883 72.8448 70.3829 72.6951 70.6323C72.5455 70.8817 72.4706 71.1694 72.4706 71.4953V76H70.6648ZM78.0026 76.1546C77.5171 76.1546 77.0797 76.0682 76.6906 75.8952C76.3048 75.719 75.9989 75.4596 75.7727 75.117C75.5499 74.7745 75.4385 74.3521 75.4385 73.8499C75.4385 73.4176 75.5183 73.0601 75.6779 72.7774C75.8376 72.4947 76.0554 72.2685 76.3314 72.0989C76.6075 71.9293 76.9184 71.8013 77.2643 71.7148C77.6135 71.625 77.9743 71.5602 78.3468 71.5203C78.7958 71.4737 79.16 71.4321 79.4393 71.3955C79.7187 71.3556 79.9215 71.2958 80.0479 71.216C80.1776 71.1328 80.2425 71.0048 80.2425 70.8318V70.8019C80.2425 70.4261 80.1311 70.1351 79.9082 69.9289C79.6854 69.7227 79.3645 69.6196 78.9454 69.6196C78.5031 69.6196 78.1523 69.7161 77.8929 69.909C77.6368 70.1018 77.4638 70.3297 77.374 70.5924L75.6879 70.3529C75.8209 69.8873 76.0404 69.4982 76.3464 69.1856C76.6524 68.8697 77.0265 68.6335 77.4688 68.4772C77.9111 68.3176 78.4 68.2378 78.9355 68.2378C79.3046 68.2378 79.6721 68.281 80.0379 68.3675C80.4038 68.454 80.738 68.597 81.0406 68.7965C81.3433 68.9927 81.5861 69.2604 81.769 69.5997C81.9552 69.9389 82.0483 70.3629 82.0483 70.8717V76H80.3123V74.9474H80.2525C80.1427 75.1603 79.9881 75.3598 79.7885 75.546C79.5923 75.729 79.3445 75.8769 79.0452 75.99C78.7492 76.0998 78.4017 76.1546 78.0026 76.1546ZM78.4715 74.8277C78.834 74.8277 79.1483 74.7562 79.4144 74.6132C79.6804 74.4668 79.885 74.274 80.028 74.0345C80.1743 73.7951 80.2475 73.534 80.2475 73.2513V72.3484C80.1909 72.3949 80.0945 72.4382 79.9581 72.4781C79.8251 72.518 79.6754 72.5529 79.5092 72.5828C79.3429 72.6128 79.1782 72.6394 79.0153 72.6626C78.8523 72.6859 78.711 72.7059 78.5913 72.7225C78.3219 72.7591 78.0808 72.819 77.8679 72.9021C77.6551 72.9852 77.4871 73.1016 77.3641 73.2513C77.241 73.3976 77.1795 73.5872 77.1795 73.82C77.1795 74.1526 77.3009 74.4037 77.5437 74.5733C77.7864 74.7429 78.0957 74.8277 78.4715 74.8277ZM86.8969 79.0331C86.2483 79.0331 85.6913 78.9449 85.2257 78.7687C84.7601 78.5957 84.3859 78.3629 84.1033 78.0703C83.8206 77.7776 83.6244 77.4533 83.5146 77.0975L85.1409 76.7034C85.214 76.853 85.3205 77.001 85.4602 77.1474C85.5998 77.297 85.7877 77.4201 86.0239 77.5165C86.2633 77.6163 86.5643 77.6662 86.9268 77.6662C87.439 77.6662 87.863 77.5415 88.1989 77.292C88.5348 77.0459 88.7027 76.6402 88.7027 76.0748V74.6232H88.6129C88.5198 74.8094 88.3835 75.0006 88.2039 75.1968C88.0276 75.3931 87.7931 75.5577 87.5005 75.6907C87.2111 75.8237 86.847 75.8903 86.408 75.8903C85.8193 75.8903 85.2856 75.7522 84.8066 75.4762C84.3311 75.1968 83.9519 74.7811 83.6693 74.2291C83.3899 73.6737 83.2502 72.9786 83.2502 72.1438C83.2502 71.3024 83.3899 70.5924 83.6693 70.0137C83.9519 69.4317 84.3327 68.9911 84.8116 68.6917C85.2905 68.3891 85.8243 68.2378 86.413 68.2378C86.8619 68.2378 87.2311 68.3143 87.5204 68.4673C87.8131 68.6169 88.0459 68.7982 88.2188 69.011C88.3918 69.2205 88.5231 69.4184 88.6129 69.6046H88.7127V68.3376H90.4936V76.1247C90.4936 76.7799 90.3373 77.322 90.0247 77.751C89.7121 78.18 89.2847 78.5009 88.7426 78.7138C88.2005 78.9266 87.5853 79.0331 86.8969 79.0331ZM86.9118 74.4735C87.2943 74.4735 87.6202 74.3804 87.8896 74.1941C88.159 74.0079 88.3635 73.7402 88.5032 73.391C88.6429 73.0418 88.7127 72.6227 88.7127 72.1339C88.7127 71.6516 88.6429 71.2293 88.5032 70.8668C88.3668 70.5043 88.164 70.2232 87.8946 70.0237C87.6285 69.8208 87.3009 69.7194 86.9118 69.7194C86.5094 69.7194 86.1735 69.8241 85.9041 70.0337C85.6348 70.2432 85.4319 70.5309 85.2955 70.8967C85.1592 71.2592 85.091 71.6716 85.091 72.1339C85.091 72.6028 85.1592 73.0135 85.2955 73.366C85.4352 73.7152 85.6397 73.9879 85.9091 74.1842C86.1818 74.3771 86.5161 74.4735 86.9118 74.4735ZM95.4369 76.1497C94.6687 76.1497 94.0052 75.99 93.4465 75.6708C92.8911 75.3482 92.4637 74.8925 92.1644 74.3039C91.8651 73.7119 91.7155 73.0152 91.7155 72.2137C91.7155 71.4255 91.8651 70.7337 92.1644 70.1384C92.4671 69.5398 92.8894 69.0742 93.4315 68.7416C93.9736 68.4057 94.6105 68.2378 95.3421 68.2378C95.8144 68.2378 96.26 68.3143 96.6791 68.4673C97.1014 68.6169 97.4739 68.8497 97.7965 69.1657C98.1224 69.4816 98.3785 69.884 98.5648 70.3729C98.751 70.8584 98.8441 71.4371 98.8441 72.1089V72.6626H92.5635V71.4454H97.1131C97.1098 71.0996 97.0349 70.7919 96.8886 70.5225C96.7423 70.2498 96.5377 70.0353 96.275 69.879C96.0156 69.7227 95.713 69.6446 95.3671 69.6446C94.9979 69.6446 94.6737 69.7344 94.3943 69.9139C94.115 70.0902 93.8971 70.323 93.7408 70.6123C93.5878 70.8984 93.5097 71.2126 93.5063 71.5552V72.6177C93.5063 73.0634 93.5878 73.4459 93.7508 73.7651C93.9137 74.0811 94.1416 74.3238 94.4342 74.4935C94.7269 74.6597 95.0694 74.7429 95.4619 74.7429C95.7246 74.7429 95.9624 74.7063 96.1752 74.6331C96.3881 74.5566 96.5727 74.4452 96.729 74.2989C96.8853 74.1526 97.0033 73.9713 97.0832 73.7551L98.7693 73.9447C98.6629 74.3904 98.46 74.7795 98.1607 75.112C97.8647 75.4413 97.4856 75.6974 97.0233 75.8803C96.561 76.0599 96.0322 76.1497 95.4369 76.1497Z" fill="#004FA3"/>
<path d="M36.6667 0C37.1087 0 37.5326 0.176849 37.8452 0.491642C38.1577 0.806435 38.3333 1.23339 38.3333 1.67857V11.75C38.3328 12.7918 38.6531 13.8081 39.2501 14.6589C39.8471 15.5097 40.6914 16.1531 41.6667 16.5004V1.67857C41.6667 1.23339 41.8423 0.806435 42.1548 0.491642C42.4674 0.176849 42.8913 0 43.3333 0C43.7754 0 44.1993 0.176849 44.5118 0.491642C44.8244 0.806435 45 1.23339 45 1.67857V16.5004C45.9753 16.1531 46.8196 15.5097 47.4166 14.6589C48.0136 13.8081 48.3339 12.7918 48.3333 11.75V1.67857C48.3333 1.23339 48.5089 0.806435 48.8215 0.491642C49.134 0.176849 49.558 0 50 0C50.442 0 50.8659 0.176849 51.1785 0.491642C51.4911 0.806435 51.6667 1.23339 51.6667 1.67857V11.75C51.6671 13.6848 51.0037 15.5603 49.7888 17.0592C48.574 18.558 46.8823 19.588 45 19.975V45.3214C45 45.7666 44.8244 46.1936 44.5118 46.5084C44.1993 46.8232 43.7754 47 43.3333 47C42.8913 47 42.4674 46.8232 42.1548 46.5084C41.8423 46.1936 41.6667 45.7666 41.6667 45.3214V19.975C39.7844 19.588 38.0927 18.558 36.8778 17.0592C35.663 15.5603 34.9996 13.6848 35 11.75V1.67857C35 1.23339 35.1756 0.806435 35.4882 0.491642C35.8007 0.176849 36.2246 0 36.6667 0ZM59.93 4.96521C60.46 4.42807 61.0567 4.01514 61.6667 3.74321V20.1429H58.3333V8.39286C58.3333 7.2615 58.9133 5.98579 59.93 4.96521ZM61.6667 23.5V45.3214C61.6667 45.7666 61.8423 46.1936 62.1548 46.5084C62.4674 46.8232 62.8913 47 63.3333 47C63.7754 47 64.1993 46.8232 64.5118 46.5084C64.8244 46.1936 65 45.7666 65 45.3214V1.67857C65 1.23339 64.8244 0.806435 64.5118 0.491642C64.1993 0.176849 63.7754 0 63.3333 0C61.1233 0 59.0567 1.09443 57.57 2.58836C56.0867 4.08564 55 6.16707 55 8.39286V21.8214C55 22.2666 55.1756 22.6936 55.4882 23.0084C55.8007 23.3232 56.2246 23.5 56.6667 23.5H61.6667Z" fill="#004FA3"/>
</svg>
