<svg width="56" height="68" viewBox="0 0 56 68" fill="none" xmlns="http://www.w3.org/2000/svg">
<path d="M9.45834 55.1564H8.22117C8.148 54.8005 8.01996 54.4879 7.83705 54.2185C7.65746 53.9492 7.43796 53.723 7.17856 53.5401C6.92248 53.3538 6.63813 53.2142 6.32551 53.121C6.01289 53.0279 5.68697 52.9814 5.34775 52.9814C4.72917 52.9814 4.16878 53.1377 3.6666 53.4503C3.16774 53.7629 2.77032 54.2235 2.47433 54.8321C2.18167 55.4407 2.03534 56.1874 2.03534 57.072C2.03534 57.9566 2.18167 58.7033 2.47433 59.3119C2.77032 59.9205 3.16774 60.3811 3.6666 60.6937C4.16878 61.0063 4.72917 61.1626 5.34775 61.1626C5.68697 61.1626 6.01289 61.1161 6.32551 61.0229C6.63813 60.9298 6.92248 60.7918 7.17856 60.6089C7.43796 60.4227 7.65746 60.1948 7.83705 59.9255C8.01996 59.6528 8.148 59.3401 8.22117 58.9876H9.45834C9.36522 59.5097 9.1956 59.977 8.9495 60.3894C8.7034 60.8018 8.39743 61.1527 8.0316 61.442C7.66578 61.728 7.25505 61.9458 6.79943 62.0955C6.34713 62.2451 5.86324 62.32 5.34775 62.32C4.47641 62.32 3.70152 62.1071 3.02308 61.6814C2.34463 61.2557 1.81085 60.6505 1.42174 59.8656C1.03263 59.0807 0.83808 58.1495 0.83808 57.072C0.83808 55.9945 1.03263 55.0633 1.42174 54.2784C1.81085 53.4935 2.34463 52.8882 3.02308 52.4626C3.70152 52.0369 4.47641 51.824 5.34775 51.824C5.86324 51.824 6.34713 51.8988 6.79943 52.0485C7.25505 52.1982 7.66578 52.4177 8.0316 52.707C8.39743 52.993 8.7034 53.3422 8.9495 53.7546C9.1956 54.1637 9.36522 54.6309 9.45834 55.1564ZM12.1755 51.9637V62.1803H10.9982V51.9637H12.1755ZM17.2448 62.3399C16.5064 62.3399 15.8696 62.177 15.3341 61.8511C14.802 61.5218 14.3913 61.0629 14.102 60.4742C13.8159 59.8822 13.6729 59.1938 13.6729 58.4089C13.6729 57.6241 13.8159 56.9323 14.102 56.3337C14.3913 55.7317 14.7937 55.2628 15.3092 54.9269C15.828 54.5877 16.4333 54.4181 17.125 54.4181C17.5241 54.4181 17.9182 54.4846 18.3073 54.6176C18.6964 54.7506 19.0506 54.9668 19.3699 55.2661C19.6892 55.5621 19.9436 55.9546 20.1331 56.4434C20.3227 56.9323 20.4175 57.5343 20.4175 58.2493V58.7482H14.511V57.7305H19.2202C19.2202 57.2981 19.1338 56.9124 18.9608 56.5731C18.7912 56.2339 18.5484 55.9662 18.2325 55.77C17.9199 55.5738 17.5507 55.4757 17.125 55.4757C16.6561 55.4757 16.2504 55.5921 15.9078 55.8249C15.5686 56.0543 15.3075 56.3536 15.1246 56.7228C14.9417 57.092 14.8502 57.4877 14.8502 57.9101V58.5885C14.8502 59.1672 14.95 59.6577 15.1496 60.0602C15.3524 60.4592 15.6334 60.7635 15.9926 60.9731C16.3518 61.1793 16.7692 61.2824 17.2448 61.2824C17.554 61.2824 17.8334 61.2391 18.0828 61.1527C18.3356 61.0629 18.5534 60.9298 18.7363 60.7536C18.9193 60.574 19.0606 60.3512 19.1604 60.0851L20.2978 60.4044C20.178 60.7901 19.9768 61.1294 19.6941 61.422C19.4115 61.7114 19.0623 61.9375 18.6465 62.1005C18.2308 62.2601 17.7636 62.3399 17.2448 62.3399ZM24.1635 62.3599C23.678 62.3599 23.2373 62.2684 22.8416 62.0855C22.4458 61.8993 22.1315 61.6316 21.8987 61.2824C21.6659 60.9298 21.5495 60.5041 21.5495 60.0053C21.5495 59.5663 21.636 59.2104 21.8089 58.9377C21.9819 58.6617 22.213 58.4455 22.5023 58.2892C22.7917 58.1329 23.1109 58.0165 23.4601 57.94C23.8127 57.8602 24.1669 57.797 24.5227 57.7504C24.9883 57.6906 25.3658 57.6457 25.6551 57.6158C25.9478 57.5825 26.1606 57.5276 26.2937 57.4511C26.43 57.3746 26.4982 57.2416 26.4982 57.052V57.0121C26.4982 56.5199 26.3635 56.1375 26.0941 55.8648C25.8281 55.5921 25.424 55.4557 24.8819 55.4557C24.3198 55.4557 23.8792 55.5788 23.5599 55.8249C23.2406 56.071 23.0162 56.3337 22.8865 56.613L21.769 56.214C21.9686 55.7484 22.2346 55.3859 22.5672 55.1265C22.9031 54.8637 23.2689 54.6808 23.6647 54.5777C24.0638 54.4713 24.4562 54.4181 24.842 54.4181C25.0881 54.4181 25.3708 54.448 25.69 54.5079C26.0126 54.5644 26.3236 54.6825 26.6229 54.8621C26.9255 55.0416 27.1766 55.3127 27.3762 55.6752C27.5757 56.0377 27.6755 56.5233 27.6755 57.1319V62.1803H26.4982V61.1427H26.4383C26.3585 61.309 26.2255 61.4869 26.0392 61.6765C25.853 61.866 25.6052 62.0273 25.2959 62.1603C24.9866 62.2934 24.6092 62.3599 24.1635 62.3599ZM24.3431 61.3023C24.8087 61.3023 25.2012 61.2109 25.5204 61.0279C25.843 60.845 26.0858 60.6089 26.2488 60.3196C26.415 60.0302 26.4982 59.7259 26.4982 59.4067V58.3291C26.4483 58.389 26.3386 58.4439 26.1689 58.4937C26.0027 58.5403 25.8098 58.5819 25.5903 58.6185C25.3741 58.6517 25.1629 58.6816 24.9567 58.7083C24.7538 58.7315 24.5892 58.7515 24.4628 58.7681C24.1569 58.808 23.8709 58.8729 23.6048 58.9627C23.3421 59.0491 23.1292 59.1805 22.9663 59.3568C22.8066 59.5297 22.7268 59.7658 22.7268 60.0651C22.7268 60.4742 22.8781 60.7835 23.1808 60.993C23.4868 61.1992 23.8742 61.3023 24.3431 61.3023ZM30.7019 57.5709V62.1803H29.5246V54.5178H30.662V55.7151H30.7618C30.9414 55.326 31.2141 55.0134 31.5799 54.7773C31.9458 54.5378 32.418 54.4181 32.9967 54.4181C33.5155 54.4181 33.9695 54.5245 34.3586 54.7373C34.7477 54.9469 35.0503 55.2661 35.2665 55.6952C35.4827 56.1208 35.5907 56.6596 35.5907 57.3114V62.1803H34.4134V57.3913C34.4134 56.7893 34.2571 56.3204 33.9445 55.9845C33.6319 55.6453 33.2029 55.4757 32.6575 55.4757C32.2817 55.4757 31.9458 55.5571 31.6498 55.7201C31.3571 55.8831 31.126 56.1208 30.9564 56.4335C30.7867 56.7461 30.7019 57.1252 30.7019 57.5709ZM37.4424 62.1803V54.5178H38.6197V62.1803H37.4424ZM38.041 53.2408C37.8115 53.2408 37.6136 53.1626 37.4474 53.0063C37.2844 52.85 37.2029 52.6621 37.2029 52.4426C37.2029 52.2231 37.2844 52.0352 37.4474 51.8789C37.6136 51.7226 37.8115 51.6444 38.041 51.6444C38.2705 51.6444 38.4667 51.7226 38.6297 51.8789C38.7959 52.0352 38.8791 52.2231 38.8791 52.4426C38.8791 52.6621 38.7959 52.85 38.6297 53.0063C38.4667 53.1626 38.2705 53.2408 38.041 53.2408ZM41.6536 57.5709V62.1803H40.4763V54.5178H41.6137V55.7151H41.7135C41.8931 55.326 42.1658 55.0134 42.5316 54.7773C42.8974 54.5378 43.3697 54.4181 43.9483 54.4181C44.4672 54.4181 44.9211 54.5245 45.3102 54.7373C45.6993 54.9469 46.002 55.2661 46.2181 55.6952C46.4343 56.1208 46.5424 56.6596 46.5424 57.3114V62.1803H45.3651V57.3913C45.3651 56.7893 45.2088 56.3204 44.8962 55.9845C44.5836 55.6453 44.1545 55.4757 43.6091 55.4757C43.2333 55.4757 42.8974 55.5571 42.6014 55.7201C42.3088 55.8831 42.0776 56.1208 41.908 56.4335C41.7384 56.7461 41.6536 57.1252 41.6536 57.5709ZM51.487 65.2134C50.9183 65.2134 50.4294 65.1402 50.0203 64.9939C49.6113 64.8508 49.2704 64.6613 48.9977 64.4252C48.7283 64.1924 48.5138 63.9429 48.3541 63.6769L49.292 63.0184C49.3984 63.1581 49.5331 63.3177 49.6961 63.4973C49.859 63.6802 50.0818 63.8382 50.3645 63.9712C50.6505 64.1076 51.0247 64.1757 51.487 64.1757C52.1055 64.1757 52.616 64.0261 53.0184 63.7268C53.4209 63.4274 53.6221 62.9585 53.6221 62.32V60.7635H53.5223C53.4358 60.9032 53.3128 61.0762 53.1531 61.2824C52.9968 61.4852 52.7707 61.6665 52.4747 61.8261C52.182 61.9824 51.7863 62.0606 51.2874 62.0606C50.6688 62.0606 50.1134 61.9142 49.6212 61.6216C49.1324 61.3289 48.7449 60.9032 48.4589 60.3445C48.1762 59.7858 48.0349 59.1073 48.0349 58.3092C48.0349 57.5243 48.1729 56.8409 48.4489 56.2589C48.7249 55.6735 49.1091 55.2212 49.6013 54.902C50.0935 54.5794 50.6622 54.4181 51.3074 54.4181C51.8062 54.4181 52.202 54.5012 52.4946 54.6675C52.7906 54.8305 53.0168 55.0167 53.1731 55.2262C53.3327 55.4324 53.4558 55.602 53.5422 55.7351H53.662V54.5178H54.7994V62.3998C54.7994 63.0583 54.6497 63.5937 54.3504 64.0061C54.0544 64.4218 53.6553 64.7261 53.1531 64.919C52.6543 65.1152 52.0989 65.2134 51.487 65.2134ZM51.447 61.003C51.9193 61.003 52.3184 60.8949 52.6443 60.6787C52.9702 60.4626 53.218 60.1516 53.3876 59.7459C53.5572 59.3401 53.642 58.8546 53.642 58.2892C53.642 57.7371 53.5589 57.2499 53.3926 56.8276C53.2263 56.4052 52.9802 56.0743 52.6543 55.8348C52.3284 55.5954 51.926 55.4757 51.447 55.4757C50.9482 55.4757 50.5325 55.602 50.1999 55.8548C49.8707 56.1075 49.6229 56.4468 49.4566 56.8725C49.2936 57.2981 49.2122 57.7704 49.2122 58.2892C49.2122 58.8213 49.2953 59.2919 49.4616 59.701C49.6312 60.1067 49.8806 60.426 50.2099 60.6588C50.5425 60.8883 50.9548 61.003 51.447 61.003Z" fill="#004FA3"/>
<path fill-rule="evenodd" clip-rule="evenodd" d="M25.9434 21.4427L15.3168 1.45512C15.2558 1.3403 15.218 1.21458 15.2055 1.08514C15.193 0.955702 15.2062 0.825074 15.2442 0.700717C15.321 0.449567 15.4944 0.239206 15.7263 0.115911C15.9582 -0.00738472 16.2295 -0.0335144 16.4807 0.0432697C16.605 0.0812893 16.7207 0.143431 16.821 0.226145C16.9214 0.30886 17.0044 0.410529 17.0655 0.525347L27.693 20.5129L29.2 19.7109C29.6593 19.4667 30.1623 19.3154 30.6801 19.2656C31.1979 19.2158 31.7204 19.2685 32.2179 19.4207C32.7153 19.5728 33.1779 19.8215 33.5792 20.1525C33.9806 20.4835 34.3128 20.8903 34.5568 21.3496L35.1985 22.5557L42 32.5118L27.891 40.0134L23.4402 28.8066L22.7996 27.6006C22.5553 27.1413 22.404 26.6384 22.3541 26.1207C22.3042 25.6029 22.3568 25.0804 22.5089 24.583C22.661 24.0855 22.9096 23.6229 23.2404 23.2215C23.5713 22.8202 23.978 22.4879 24.4373 22.2438L25.9443 21.4427H25.9434ZM25.3661 23.9924L30.1288 21.4605C30.3584 21.3384 30.6099 21.2627 30.8688 21.2378C31.1276 21.2129 31.3889 21.2392 31.6376 21.3152C31.8863 21.3912 32.1176 21.5155 32.3183 21.681C32.519 21.8464 32.6851 22.0498 32.8072 22.2794L33.4488 23.4844L25.1879 27.8768L24.5472 26.6708C24.4251 26.4412 24.3494 26.1897 24.3245 25.9309C24.2995 25.672 24.3258 25.4107 24.4019 25.162C24.4779 24.9133 24.6022 24.682 24.7676 24.4813C24.9331 24.2806 25.1364 24.1145 25.3661 23.9924V23.9924ZM26.1879 30.3612L28.9139 37.226L30.7298 36.2606L28.5861 32.087L30.3486 31.182L32.4795 35.3308L39.1156 31.8019L34.949 25.7024L26.1879 30.3612V30.3612Z" fill="#004FA3"/>
<path d="M20.2975 30.977C20.3974 30.8938 20.5128 30.8311 20.6369 30.7924C20.7611 30.7538 20.8917 30.74 21.0212 30.7518C21.1507 30.7636 21.2766 30.8008 21.3917 30.8613C21.5068 30.9217 21.6089 31.0043 21.6921 31.1042C21.7754 31.2042 21.8381 31.3195 21.8767 31.4437C21.9154 31.5678 21.9292 31.6984 21.9174 31.8279C21.9056 31.9574 21.8683 32.0833 21.8079 32.1985C21.7474 32.3136 21.6648 32.4157 21.5649 32.4989L21.5639 32.4999L21.5619 32.5019L21.559 32.5038L21.5491 32.5118L21.5194 32.5365L21.4174 32.6147C21.3312 32.6791 21.2094 32.7672 21.054 32.8722C20.7421 33.0801 20.2915 33.3514 19.7232 33.6227C18.2457 34.3316 16.6289 34.7027 14.9902 34.709C14.7276 34.709 14.4757 34.6046 14.29 34.4189C14.1043 34.2332 14 33.9814 14 33.7188C14 33.4562 14.1043 33.2043 14.29 33.0186C14.4757 32.8329 14.7276 32.7286 14.9902 32.7286C16.3343 32.7222 17.6602 32.4168 18.8716 31.8345C19.2468 31.6568 19.6088 31.4526 19.9549 31.2236C20.0688 31.1482 20.1801 31.069 20.2886 30.9859L20.2985 30.976V30.977H20.2975ZM23.4611 37.5131C23.6796 37.3674 23.8312 37.1408 23.8827 36.8832C23.9341 36.6257 23.8811 36.3582 23.7354 36.1398C23.5896 35.9213 23.363 35.7696 23.1055 35.7182C22.8479 35.6667 22.5805 35.7197 22.362 35.8655L22.36 35.8675L22.3402 35.8793L22.2551 35.9338C21.7395 36.2483 21.2044 36.5294 20.653 36.7754C19.5935 37.2448 18.2567 37.6795 16.9705 37.6795C16.7079 37.6795 16.456 37.7838 16.2704 37.9695C16.0847 38.1552 15.9803 38.407 15.9803 38.6696C15.9803 38.9322 16.0847 39.1841 16.2704 39.3698C16.456 39.5555 16.7079 39.6598 16.9705 39.6598C18.6558 39.6598 20.2876 39.1043 21.457 38.5845C22.0922 38.3016 22.7084 37.9778 23.3017 37.6151C23.3395 37.5916 23.3771 37.5679 23.4145 37.5438L23.4462 37.523L23.4561 37.5171L23.4611 37.5131V37.5131Z" fill="#004FA3"/>
</svg>
