<svg width="56" height="91" viewBox="0 0 56 91" fill="none" xmlns="http://www.w3.org/2000/svg">
<path d="M9.45834 78.1564H8.22117C8.148 77.8005 8.01996 77.4879 7.83705 77.2185C7.65746 76.9492 7.43796 76.723 7.17856 76.5401C6.92248 76.3538 6.63813 76.2142 6.32551 76.121C6.01289 76.0279 5.68697 75.9814 5.34775 75.9814C4.72917 75.9814 4.16878 76.1377 3.6666 76.4503C3.16774 76.7629 2.77032 77.2235 2.47433 77.8321C2.18167 78.4407 2.03534 79.1874 2.03534 80.072C2.03534 80.9566 2.18167 81.7033 2.47433 82.3119C2.77032 82.9205 3.16774 83.3811 3.6666 83.6937C4.16878 84.0063 4.72917 84.1626 5.34775 84.1626C5.68697 84.1626 6.01289 84.1161 6.32551 84.0229C6.63813 83.9298 6.92248 83.7918 7.17856 83.6089C7.43796 83.4227 7.65746 83.1948 7.83705 82.9255C8.01996 82.6528 8.148 82.3401 8.22117 81.9876H9.45834C9.36522 82.5097 9.1956 82.977 8.9495 83.3894C8.7034 83.8018 8.39743 84.1527 8.0316 84.442C7.66578 84.728 7.25505 84.9458 6.79943 85.0955C6.34713 85.2451 5.86324 85.32 5.34775 85.32C4.47641 85.32 3.70152 85.1071 3.02308 84.6814C2.34463 84.2557 1.81085 83.6505 1.42174 82.8656C1.03263 82.0807 0.83808 81.1495 0.83808 80.072C0.83808 78.9945 1.03263 78.0633 1.42174 77.2784C1.81085 76.4935 2.34463 75.8882 3.02308 75.4626C3.70152 75.0369 4.47641 74.824 5.34775 74.824C5.86324 74.824 6.34713 74.8988 6.79943 75.0485C7.25505 75.1982 7.66578 75.4177 8.0316 75.707C8.39743 75.993 8.7034 76.3422 8.9495 76.7546C9.1956 77.1637 9.36522 77.6309 9.45834 78.1564ZM12.1755 74.9637V85.1803H10.9982V74.9637H12.1755ZM17.2448 85.3399C16.5064 85.3399 15.8696 85.177 15.3341 84.8511C14.802 84.5218 14.3913 84.0629 14.102 83.4742C13.8159 82.8822 13.6729 82.1938 13.6729 81.4089C13.6729 80.6241 13.8159 79.9323 14.102 79.3337C14.3913 78.7317 14.7937 78.2628 15.3092 77.9269C15.828 77.5877 16.4333 77.4181 17.125 77.4181C17.5241 77.4181 17.9182 77.4846 18.3073 77.6176C18.6964 77.7506 19.0506 77.9668 19.3699 78.2661C19.6892 78.5621 19.9436 78.9546 20.1331 79.4434C20.3227 79.9323 20.4175 80.5343 20.4175 81.2493V81.7482H14.511V80.7305H19.2202C19.2202 80.2981 19.1338 79.9124 18.9608 79.5731C18.7912 79.2339 18.5484 78.9662 18.2325 78.77C17.9199 78.5738 17.5507 78.4757 17.125 78.4757C16.6561 78.4757 16.2504 78.5921 15.9078 78.8249C15.5686 79.0543 15.3075 79.3536 15.1246 79.7228C14.9417 80.092 14.8502 80.4877 14.8502 80.9101V81.5885C14.8502 82.1672 14.95 82.6577 15.1496 83.0602C15.3524 83.4592 15.6334 83.7635 15.9926 83.9731C16.3518 84.1793 16.7692 84.2824 17.2448 84.2824C17.554 84.2824 17.8334 84.2391 18.0828 84.1527C18.3356 84.0629 18.5534 83.9298 18.7363 83.7536C18.9193 83.574 19.0606 83.3512 19.1604 83.0851L20.2978 83.4044C20.178 83.7901 19.9768 84.1294 19.6941 84.422C19.4115 84.7114 19.0623 84.9375 18.6465 85.1005C18.2308 85.2601 17.7636 85.3399 17.2448 85.3399ZM24.1635 85.3599C23.678 85.3599 23.2373 85.2684 22.8416 85.0855C22.4458 84.8993 22.1315 84.6316 21.8987 84.2824C21.6659 83.9298 21.5495 83.5041 21.5495 83.0053C21.5495 82.5663 21.636 82.2104 21.8089 81.9377C21.9819 81.6617 22.213 81.4455 22.5023 81.2892C22.7917 81.1329 23.1109 81.0165 23.4601 80.94C23.8127 80.8602 24.1669 80.797 24.5227 80.7504C24.9883 80.6906 25.3658 80.6457 25.6551 80.6158C25.9478 80.5825 26.1606 80.5276 26.2937 80.4511C26.43 80.3746 26.4982 80.2416 26.4982 80.052V80.0121C26.4982 79.5199 26.3635 79.1375 26.0941 78.8648C25.8281 78.5921 25.424 78.4557 24.8819 78.4557C24.3198 78.4557 23.8792 78.5788 23.5599 78.8249C23.2406 79.071 23.0162 79.3337 22.8865 79.613L21.769 79.214C21.9686 78.7484 22.2346 78.3859 22.5672 78.1265C22.9031 77.8637 23.2689 77.6808 23.6647 77.5777C24.0638 77.4713 24.4562 77.4181 24.842 77.4181C25.0881 77.4181 25.3708 77.448 25.69 77.5079C26.0126 77.5644 26.3236 77.6825 26.6229 77.8621C26.9255 78.0416 27.1766 78.3127 27.3762 78.6752C27.5757 79.0377 27.6755 79.5233 27.6755 80.1319V85.1803H26.4982V84.1427H26.4383C26.3585 84.309 26.2255 84.4869 26.0392 84.6765C25.853 84.866 25.6052 85.0273 25.2959 85.1603C24.9866 85.2934 24.6092 85.3599 24.1635 85.3599ZM24.3431 84.3023C24.8087 84.3023 25.2012 84.2109 25.5204 84.0279C25.843 83.845 26.0858 83.6089 26.2488 83.3196C26.415 83.0302 26.4982 82.7259 26.4982 82.4067V81.3291C26.4483 81.389 26.3386 81.4439 26.1689 81.4937C26.0027 81.5403 25.8098 81.5819 25.5903 81.6185C25.3741 81.6517 25.1629 81.6816 24.9567 81.7083C24.7538 81.7315 24.5892 81.7515 24.4628 81.7681C24.1569 81.808 23.8709 81.8729 23.6048 81.9627C23.3421 82.0491 23.1292 82.1805 22.9663 82.3568C22.8066 82.5297 22.7268 82.7658 22.7268 83.0651C22.7268 83.4742 22.8781 83.7835 23.1808 83.993C23.4868 84.1992 23.8742 84.3023 24.3431 84.3023ZM30.7019 80.5709V85.1803H29.5246V77.5178H30.662V78.7151H30.7618C30.9414 78.326 31.2141 78.0134 31.5799 77.7773C31.9458 77.5378 32.418 77.4181 32.9967 77.4181C33.5155 77.4181 33.9695 77.5245 34.3586 77.7373C34.7477 77.9469 35.0503 78.2661 35.2665 78.6952C35.4827 79.1208 35.5907 79.6596 35.5907 80.3114V85.1803H34.4134V80.3913C34.4134 79.7893 34.2571 79.3204 33.9445 78.9845C33.6319 78.6453 33.2029 78.4757 32.6575 78.4757C32.2817 78.4757 31.9458 78.5571 31.6498 78.7201C31.3571 78.8831 31.126 79.1208 30.9564 79.4335C30.7867 79.7461 30.7019 80.1252 30.7019 80.5709ZM37.4424 85.1803V77.5178H38.6197V85.1803H37.4424ZM38.041 76.2408C37.8115 76.2408 37.6136 76.1626 37.4474 76.0063C37.2844 75.85 37.2029 75.6621 37.2029 75.4426C37.2029 75.2231 37.2844 75.0352 37.4474 74.8789C37.6136 74.7226 37.8115 74.6444 38.041 74.6444C38.2705 74.6444 38.4667 74.7226 38.6297 74.8789C38.7959 75.0352 38.8791 75.2231 38.8791 75.4426C38.8791 75.6621 38.7959 75.85 38.6297 76.0063C38.4667 76.1626 38.2705 76.2408 38.041 76.2408ZM41.6536 80.5709V85.1803H40.4763V77.5178H41.6137V78.7151H41.7135C41.8931 78.326 42.1658 78.0134 42.5316 77.7773C42.8974 77.5378 43.3697 77.4181 43.9483 77.4181C44.4672 77.4181 44.9211 77.5245 45.3102 77.7373C45.6993 77.9469 46.002 78.2661 46.2181 78.6952C46.4343 79.1208 46.5424 79.6596 46.5424 80.3114V85.1803H45.3651V80.3913C45.3651 79.7893 45.2088 79.3204 44.8962 78.9845C44.5836 78.6453 44.1545 78.4757 43.6091 78.4757C43.2333 78.4757 42.8974 78.5571 42.6014 78.7201C42.3088 78.8831 42.0776 79.1208 41.908 79.4335C41.7384 79.7461 41.6536 80.1252 41.6536 80.5709ZM51.487 88.2134C50.9183 88.2134 50.4294 88.1402 50.0203 87.9939C49.6113 87.8508 49.2704 87.6613 48.9977 87.4252C48.7283 87.1924 48.5138 86.9429 48.3541 86.6769L49.292 86.0184C49.3984 86.1581 49.5331 86.3177 49.6961 86.4973C49.859 86.6802 50.0818 86.8382 50.3645 86.9712C50.6505 87.1076 51.0247 87.1757 51.487 87.1757C52.1055 87.1757 52.616 87.0261 53.0184 86.7268C53.4209 86.4274 53.6221 85.9585 53.6221 85.32V83.7635H53.5223C53.4358 83.9032 53.3128 84.0762 53.1531 84.2824C52.9968 84.4852 52.7707 84.6665 52.4747 84.8261C52.182 84.9824 51.7863 85.0606 51.2874 85.0606C50.6688 85.0606 50.1134 84.9142 49.6212 84.6216C49.1324 84.3289 48.7449 83.9032 48.4589 83.3445C48.1762 82.7858 48.0349 82.1073 48.0349 81.3092C48.0349 80.5243 48.1729 79.8409 48.4489 79.2589C48.7249 78.6735 49.1091 78.2212 49.6013 77.902C50.0935 77.5794 50.6622 77.4181 51.3074 77.4181C51.8062 77.4181 52.202 77.5012 52.4946 77.6675C52.7906 77.8305 53.0168 78.0167 53.1731 78.2262C53.3327 78.4324 53.4558 78.602 53.5422 78.7351H53.662V77.5178H54.7994V85.3998C54.7994 86.0583 54.6497 86.5937 54.3504 87.0061C54.0544 87.4218 53.6553 87.7261 53.1531 87.919C52.6543 88.1152 52.0989 88.2134 51.487 88.2134ZM51.447 84.003C51.9193 84.003 52.3184 83.8949 52.6443 83.6787C52.9702 83.4626 53.218 83.1516 53.3876 82.7459C53.5572 82.3401 53.642 81.8546 53.642 81.2892C53.642 80.7371 53.5589 80.2499 53.3926 79.8276C53.2263 79.4052 52.9802 79.0743 52.6543 78.8348C52.3284 78.5954 51.926 78.4757 51.447 78.4757C50.9482 78.4757 50.5325 78.602 50.1999 78.8548C49.8707 79.1075 49.6229 79.4468 49.4566 79.8725C49.2936 80.2981 49.2122 80.7704 49.2122 81.2892C49.2122 81.8213 49.2953 82.2919 49.4616 82.701C49.6312 83.1067 49.8806 83.426 50.2099 83.6588C50.5425 83.8883 50.9548 84.003 51.447 84.003Z" fill="#004FA3"/>
<path fill-rule="evenodd" clip-rule="evenodd" d="M26.4885 31.3982L10.9283 2.1307C10.8389 1.96258 10.7835 1.77849 10.7652 1.58895C10.747 1.39942 10.7662 1.20814 10.8219 1.02605C10.9343 0.658293 11.1883 0.350265 11.5278 0.169726C11.8673 -0.0108133 12.2647 -0.0490745 12.6325 0.0633591C12.8145 0.119031 12.9839 0.210023 13.1308 0.331141C13.2777 0.452259 13.3994 0.601131 13.4888 0.769256L29.0505 30.0367L31.2572 28.8623C31.9298 28.5048 32.6662 28.2832 33.4244 28.2103C34.1826 28.1373 34.9478 28.2145 35.6762 28.4373C36.4046 28.6602 37.0819 29.0243 37.6696 29.5089C38.2572 29.9936 38.7437 30.5892 39.1011 31.2619L40.0406 33.0279L49.9999 47.6065L29.3404 58.5909L22.8232 42.181L21.8851 40.4151C21.5275 39.7426 21.3058 39.0062 21.2328 38.2481C21.1598 37.4899 21.2368 36.7248 21.4595 35.9964C21.6822 35.268 22.0462 34.5906 22.5307 34.0029C23.0152 33.4152 23.6107 32.9287 24.2832 32.5711L26.4899 31.3982H26.4885ZM25.6432 35.1317L32.6172 31.4243C32.9534 31.2455 33.3216 31.1346 33.7007 31.0981C34.0798 31.0616 34.4623 31.1001 34.8265 31.2115C35.1907 31.3228 35.5294 31.5048 35.8233 31.7471C36.1171 31.9893 36.3604 32.2871 36.5391 32.6233L37.4787 34.3879L25.3822 40.8196L24.4441 39.0536C24.2653 38.7174 24.1545 38.3492 24.118 37.9701C24.0815 37.591 24.12 37.2085 24.2313 36.8443C24.3427 36.4801 24.5247 36.1414 24.7669 35.8475C25.0092 35.5537 25.3069 35.3104 25.6432 35.1317ZM26.8466 44.4574L30.8382 54.5094L33.4973 53.0958L30.3583 46.9845L32.9391 45.6593L36.0592 51.7344L45.7764 46.5669L39.6752 37.6356L26.8466 44.4574Z" fill="#004FA3"/>
<path d="M18.2213 45.3592C18.3676 45.2374 18.5365 45.1455 18.7183 45.0889C18.9002 45.0324 19.0913 45.0121 19.281 45.0294C19.4706 45.0467 19.655 45.1012 19.8236 45.1898C19.9921 45.2783 20.1416 45.3992 20.2635 45.5455C20.3853 45.6919 20.4772 45.8608 20.5338 46.0426C20.5903 46.2244 20.6106 46.4156 20.5933 46.6052C20.576 46.7948 20.5215 46.9792 20.4329 47.1478C20.3444 47.3164 20.2235 47.4659 20.0772 47.5877L20.0757 47.5892L20.0728 47.5921L20.0685 47.595L20.054 47.6066L20.0105 47.6428L19.8611 47.7573C19.735 47.8516 19.5567 47.9806 19.329 48.1343C18.8723 48.4388 18.2126 48.8361 17.3804 49.2333C15.2169 50.2713 12.8495 50.8147 10.4499 50.8239C10.0654 50.8239 9.69657 50.6711 9.42466 50.3992C9.15276 50.1273 9 49.7585 9 49.374C9 48.9894 9.15276 48.6207 9.42466 48.3487C9.69657 48.0768 10.0654 47.9241 10.4499 47.9241C12.4181 47.9147 14.3595 47.4675 16.1335 46.6148C16.6827 46.3546 17.2128 46.0557 17.7196 45.7202C17.8865 45.61 18.0495 45.4939 18.2083 45.3723L18.2228 45.3578V45.3592H18.2213ZM22.8537 54.93C23.1736 54.7165 23.3957 54.3848 23.471 54.0076C23.5463 53.6305 23.4687 53.2389 23.2553 52.919C23.0419 52.599 22.7101 52.377 22.333 52.3017C21.9559 52.2263 21.5643 52.3039 21.2443 52.5173L21.2414 52.5202L21.2124 52.5376L21.0877 52.6174C20.3329 53.0779 19.5493 53.4895 18.7418 53.8498C17.1904 54.537 15.2331 55.1735 13.3497 55.1735C12.9651 55.1735 12.5964 55.3263 12.3244 55.5982C12.0525 55.8701 11.8998 56.2389 11.8998 56.6234C11.8998 57.008 12.0525 57.3767 12.3244 57.6487C12.5964 57.9206 12.9651 58.0733 13.3497 58.0733C15.8174 58.0733 18.2068 57.2599 19.9191 56.4987C20.8492 56.0845 21.7515 55.6103 22.6203 55.0793C22.6756 55.0449 22.7307 55.0101 22.7856 54.9749L22.832 54.9445L22.8465 54.9358L22.8537 54.93Z" fill="#004FA3"/>
</svg>
