<svg width="28" height="35" viewBox="0 0 28 35" fill="none" xmlns="http://www.w3.org/2000/svg">
<path d="M3.1236e-07 4.35115V33.7214C-0.000147919 33.9103 0.0524639 34.096 0.152657 34.2602C0.252851 34.4244 0.397172 34.5614 0.571414 34.6578C0.745656 34.7541 0.943813 34.8065 1.14638 34.8098C1.34894 34.8131 1.54894 34.7672 1.72667 34.6765L14 28.4326L26.2733 34.6765C26.4511 34.7672 26.6511 34.8131 26.8536 34.8098C27.0562 34.8065 27.2543 34.7541 27.4286 34.6578C27.6028 34.5614 27.7471 34.4244 27.8473 34.2602C27.9475 34.096 28.0001 33.9103 28 33.7214V4.35115C28 3.19715 27.5083 2.09042 26.6332 1.27442C25.758 0.458424 24.571 0 23.3333 0L4.66667 0C3.42899 0 2.242 0.458424 1.36684 1.27442C0.491665 2.09042 3.1236e-07 3.19715 3.1236e-07 4.35115V4.35115Z" fill="#E26060"/>
</svg>
