<svg width="77" height="79" viewBox="0 0 77 79" fill="none" xmlns="http://www.w3.org/2000/svg">
<path d="M0.55872 65.3348V63.7834H8.71005V65.3348H5.55228V74H3.71649V65.3348H0.55872ZM12.183 74.1497C11.4147 74.1497 10.7513 73.99 10.1925 73.6708C9.63714 73.3482 9.20978 72.8925 8.91047 72.3039C8.61115 71.7119 8.4615 71.0152 8.4615 70.2137C8.4615 69.4255 8.61115 68.7337 8.91047 68.1384C9.21311 67.5398 9.63547 67.0742 10.1776 66.7416C10.7197 66.4057 11.3565 66.2378 12.0882 66.2378C12.5604 66.2378 13.0061 66.3143 13.4251 66.4673C13.8475 66.6169 14.22 66.8497 14.5426 67.1657C14.8685 67.4816 15.1246 67.884 15.3108 68.3729C15.497 68.8584 15.5902 69.4371 15.5902 70.1089V70.6626H9.30955V69.4454H13.8591C13.8558 69.0996 13.781 68.7919 13.6346 68.5225C13.4883 68.2498 13.2838 68.0353 13.0211 67.879C12.7616 67.7227 12.459 67.6446 12.1131 67.6446C11.744 67.6446 11.4197 67.7344 11.1404 67.9139C10.861 68.0902 10.6432 68.323 10.4869 68.6123C10.3339 68.8984 10.2557 69.2126 10.2524 69.5552V70.6177C10.2524 71.0634 10.3339 71.4459 10.4968 71.7651C10.6598 72.0811 10.8876 72.3238 11.1803 72.4935C11.4729 72.6597 11.8155 72.7429 12.2079 72.7429C12.4706 72.7429 12.7084 72.7063 12.9213 72.6331C13.1341 72.5566 13.3187 72.4452 13.475 72.2989C13.6313 72.1526 13.7494 71.9713 13.8292 71.7551L15.5153 71.9447C15.4089 72.3904 15.206 72.7795 14.9067 73.112C14.6107 73.4413 14.2316 73.6974 13.7693 73.8803C13.3071 74.0599 12.7783 74.1497 12.183 74.1497ZM20.1606 74.1497C19.3957 74.1497 18.7388 73.9817 18.1901 73.6458C17.6447 73.3099 17.224 72.846 16.928 72.254C16.6353 71.6587 16.489 70.9736 16.489 70.1987C16.489 69.4205 16.6386 68.7337 16.938 68.1384C17.2373 67.5398 17.6596 67.0742 18.2051 66.7416C18.7538 66.4057 19.4023 66.2378 20.1506 66.2378C20.7725 66.2378 21.3229 66.3525 21.8018 66.582C22.284 66.8081 22.6682 67.1291 22.9542 67.5448C23.2402 67.9572 23.4031 68.4394 23.4431 68.9915H21.717C21.6472 68.6223 21.4809 68.3147 21.2182 68.0686C20.9587 67.8192 20.6112 67.6944 20.1755 67.6944C19.8064 67.6944 19.4821 67.7942 19.2028 67.9938C18.9234 68.19 18.7056 68.4727 18.5493 68.8418C18.3963 69.211 18.3198 69.6533 18.3198 70.1688C18.3198 70.6909 18.3963 71.1399 18.5493 71.5157C18.7022 71.8882 18.9168 72.1758 19.1928 72.3787C19.4722 72.5783 19.7997 72.678 20.1755 72.678C20.4416 72.678 20.6794 72.6281 20.8889 72.5284C21.1018 72.4253 21.2797 72.2773 21.4227 72.0844C21.5657 71.8915 21.6638 71.657 21.717 71.381H23.4431C23.3998 71.9231 23.2402 72.4037 22.9642 72.8227C22.6881 73.2384 22.3123 73.5643 21.8367 73.8005C21.3612 74.0333 20.8024 74.1497 20.1606 74.1497ZM26.4321 69.5103V74H24.6262V63.7834H26.3922V67.6396H26.482C26.6616 67.2072 26.9393 66.8663 27.3151 66.6169C27.6942 66.3642 28.1764 66.2378 28.7618 66.2378C29.2939 66.2378 29.7578 66.3492 30.1536 66.572C30.5493 66.7948 30.8553 67.1208 31.0715 67.5498C31.291 67.9788 31.4007 68.5026 31.4007 69.1212V74H29.5948V69.4005C29.5948 68.885 29.4618 68.4843 29.1958 68.1983C28.933 67.909 28.5639 67.7643 28.0883 67.7643C27.769 67.7643 27.483 67.8341 27.2303 67.9738C26.9808 68.1102 26.7846 68.308 26.6416 68.5674C26.5019 68.8268 26.4321 69.1411 26.4321 69.5103ZM34.7477 69.5103V74H32.9418V66.3376H34.6679V67.6396H34.7576C34.9339 67.2106 35.2149 66.8697 35.6007 66.6169C35.9898 66.3642 36.4704 66.2378 37.0424 66.2378C37.5712 66.2378 38.0318 66.3509 38.4242 66.577C38.82 66.8032 39.126 67.1307 39.3421 67.5598C39.5616 67.9888 39.6697 68.5092 39.6664 69.1212V74H37.8605V69.4005C37.8605 68.8884 37.7275 68.4876 37.4615 68.1983C37.1987 67.909 36.8346 67.7643 36.369 67.7643C36.053 67.7643 35.772 67.8341 35.5259 67.9738C35.2831 68.1102 35.0919 68.308 34.9522 68.5674C34.8158 68.8268 34.7477 69.1411 34.7477 69.5103ZM44.5449 74.1497C43.7966 74.1497 43.1481 73.985 42.5993 73.6558C42.0506 73.3265 41.6249 72.8659 41.3222 72.274C41.0229 71.682 40.8733 70.9902 40.8733 70.1987C40.8733 69.4072 41.0229 68.7138 41.3222 68.1185C41.6249 67.5232 42.0506 67.0609 42.5993 66.7316C43.1481 66.4024 43.7966 66.2378 44.5449 66.2378C45.2931 66.2378 45.9417 66.4024 46.4904 66.7316C47.0391 67.0609 47.4632 67.5232 47.7625 68.1185C48.0651 68.7138 48.2164 69.4072 48.2164 70.1987C48.2164 70.9902 48.0651 71.682 47.7625 72.274C47.4632 72.8659 47.0391 73.3265 46.4904 73.6558C45.9417 73.985 45.2931 74.1497 44.5449 74.1497ZM44.5548 72.703C44.9606 72.703 45.2998 72.5916 45.5725 72.3687C45.8452 72.1426 46.0481 71.8399 46.1811 71.4608C46.3175 71.0817 46.3856 70.6593 46.3856 70.1937C46.3856 69.7248 46.3175 69.3008 46.1811 68.9216C46.0481 68.5392 45.8452 68.2349 45.5725 68.0087C45.2998 67.7826 44.9606 67.6695 44.5548 67.6695C44.1391 67.6695 43.7932 67.7826 43.5172 68.0087C43.2445 68.2349 43.04 68.5392 42.9036 68.9216C42.7706 69.3008 42.7041 69.7248 42.7041 70.1937C42.7041 70.6593 42.7706 71.0817 42.9036 71.4608C43.04 71.8399 43.2445 72.1426 43.5172 72.3687C43.7932 72.5916 44.1391 72.703 44.5548 72.703ZM51.2554 63.7834V74H49.4495V63.7834H51.2554ZM56.155 74.1497C55.4067 74.1497 54.7582 73.985 54.2095 73.6558C53.6607 73.3265 53.235 72.8659 52.9324 72.274C52.6331 71.682 52.4834 70.9902 52.4834 70.1987C52.4834 69.4072 52.6331 68.7138 52.9324 68.1185C53.235 67.5232 53.6607 67.0609 54.2095 66.7316C54.7582 66.4024 55.4067 66.2378 56.155 66.2378C56.9033 66.2378 57.5518 66.4024 58.1006 66.7316C58.6493 67.0609 59.0733 67.5232 59.3726 68.1185C59.6753 68.7138 59.8266 69.4072 59.8266 70.1987C59.8266 70.9902 59.6753 71.682 59.3726 72.274C59.0733 72.8659 58.6493 73.3265 58.1006 73.6558C57.5518 73.985 56.9033 74.1497 56.155 74.1497ZM56.165 72.703C56.5707 72.703 56.91 72.5916 57.1827 72.3687C57.4554 72.1426 57.6582 71.8399 57.7913 71.4608C57.9276 71.0817 57.9958 70.6593 57.9958 70.1937C57.9958 69.7248 57.9276 69.3008 57.7913 68.9216C57.6582 68.5392 57.4554 68.2349 57.1827 68.0087C56.91 67.7826 56.5707 67.6695 56.165 67.6695C55.7493 67.6695 55.4034 67.7826 55.1274 68.0087C54.8547 68.2349 54.6501 68.5392 54.5138 68.9216C54.3807 69.3008 54.3142 69.7248 54.3142 70.1937C54.3142 70.6593 54.3807 71.0817 54.5138 71.4608C54.6501 71.8399 54.8547 72.1426 55.1274 72.3687C55.4034 72.5916 55.7493 72.703 56.165 72.703ZM64.392 77.0331C63.7435 77.0331 63.1865 76.9449 62.7209 76.7687C62.2553 76.5957 61.8811 76.3629 61.5984 76.0703C61.3157 75.7776 61.1195 75.4533 61.0098 75.0975L62.636 74.7034C62.7092 74.853 62.8156 75.001 62.9553 75.1474C63.095 75.297 63.2829 75.4201 63.519 75.5165C63.7585 75.6163 64.0595 75.6662 64.422 75.6662C64.9341 75.6662 65.3581 75.5415 65.694 75.292C66.0299 75.0459 66.1979 74.6402 66.1979 74.0748V72.6232H66.1081C66.015 72.8094 65.8786 73.0006 65.699 73.1968C65.5228 73.3931 65.2883 73.5577 64.9956 73.6907C64.7063 73.8237 64.3421 73.8903 63.9031 73.8903C63.3145 73.8903 62.7807 73.7522 62.3018 73.4762C61.8262 73.1968 61.4471 72.7811 61.1644 72.2291C60.8851 71.6737 60.7454 70.9786 60.7454 70.1438C60.7454 69.3024 60.8851 68.5924 61.1644 68.0137C61.4471 67.4317 61.8279 66.9911 62.3068 66.6917C62.7857 66.3891 63.3195 66.2378 63.9081 66.2378C64.3571 66.2378 64.7263 66.3143 65.0156 66.4673C65.3083 66.6169 65.5411 66.7982 65.714 67.011C65.8869 67.2205 66.0183 67.4184 66.1081 67.6046H66.2079V66.3376H67.9888V74.1247C67.9888 74.7799 67.8325 75.322 67.5199 75.751C67.2072 76.18 66.7799 76.5009 66.2378 76.7138C65.6957 76.9266 65.0804 77.0331 64.392 77.0331ZM64.407 72.4735C64.7894 72.4735 65.1154 72.3804 65.3848 72.1941C65.6541 72.0079 65.8587 71.7402 65.9983 71.391C66.138 71.0418 66.2079 70.6227 66.2079 70.1339C66.2079 69.6516 66.138 69.2293 65.9983 68.8668C65.862 68.5043 65.6591 68.2232 65.3897 68.0237C65.1237 67.8208 64.7961 67.7194 64.407 67.7194C64.0046 67.7194 63.6687 67.8241 63.3993 68.0337C63.1299 68.2432 62.927 68.5309 62.7907 68.8967C62.6543 69.2592 62.5862 69.6716 62.5862 70.1339C62.5862 70.6028 62.6543 71.0135 62.7907 71.366C62.9304 71.7152 63.1349 71.9879 63.4043 72.1842C63.677 72.3771 64.0112 72.4735 64.407 72.4735ZM70.6623 76.8734C70.4162 76.8734 70.1884 76.8535 69.9789 76.8136C69.7727 76.777 69.608 76.7337 69.485 76.6839L69.904 75.2771C70.1668 75.3536 70.4012 75.3901 70.6074 75.3868C70.8136 75.3835 70.9949 75.3186 71.1512 75.1923C71.3108 75.0692 71.4455 74.863 71.5552 74.5737L71.7099 74.1596L68.9313 66.3376H70.8469L72.6128 72.1243H72.6926L74.4636 66.3376H76.3842L73.3162 74.9279C73.1732 75.3336 72.9836 75.6811 72.7475 75.9705C72.5114 76.2631 72.222 76.486 71.8795 76.639C71.5403 76.7953 71.1345 76.8734 70.6623 76.8734Z" fill="#004FA3"/>
<path d="M49.0192 0H17.6786L17.2899 0.0126319C15.8544 0.111214 14.5098 0.751615 13.5278 1.80441C12.5459 2.85721 11.9998 4.24389 12 5.68421V32.2156L12.0126 32.6046C12.1111 34.0416 12.7509 35.3875 13.8026 36.3704C14.8544 37.3534 16.2397 37.9 17.6786 37.8998H28.4022V44.2105H23.9881L23.7307 44.2282C23.2556 44.2936 22.823 44.5372 22.5203 44.9096C22.2177 45.282 22.0675 45.7555 22.1002 46.2344C22.1329 46.7134 22.346 47.162 22.6964 47.4898C23.0469 47.8175 23.5085 47.9999 23.9881 48H50.4881L50.7455 47.9848C51.2247 47.924 51.6625 47.6821 51.9693 47.3086C52.2761 46.9352 52.4287 46.4585 52.3958 45.9761C52.3629 45.4937 52.147 45.0422 51.7924 44.7139C51.4377 44.3857 50.9711 44.2056 50.4881 44.2105H46.0689V37.8998H56.7951L57.1838 37.8872C58.6193 37.7886 59.9639 37.1482 60.9458 36.0954C61.9278 35.0426 62.4738 33.6559 62.4737 32.2156V16.4211H58.688V32.2156L58.6703 32.4733C58.6081 32.9269 58.3839 33.3426 58.0392 33.6435C57.6944 33.9445 57.2525 34.1103 56.7951 34.1103H17.6786L17.4211 34.0926C16.968 34.0304 16.5527 33.8059 16.252 33.4609C15.9514 33.1158 15.7857 32.6734 15.7857 32.2156V5.68421L15.8034 5.42653C15.8656 4.97292 16.0898 4.5572 16.4345 4.25625C16.7792 3.95531 17.2212 3.78949 17.6786 3.78947H48.5952V1.89474C48.5952 1.21768 48.7467 0.573474 49.0192 0ZM32.1854 37.8998H42.2807L42.2832 44.2105H32.188L32.1854 37.8998ZM51.119 1.89474C51.119 1.39222 51.3185 0.910287 51.6734 0.554955C52.0284 0.199623 52.5099 0 53.0119 0H63.1071C63.6092 0 64.0906 0.199623 64.4456 0.554955C64.8006 0.910287 65 1.39222 65 1.89474V12C65 12.5025 64.8006 12.9844 64.4456 13.3398C64.0906 13.6951 63.6092 13.8947 63.1071 13.8947H53.0119C52.5099 13.8947 52.0284 13.6951 51.6734 13.3398C51.3185 12.9844 51.119 12.5025 51.119 12V10.1053H50.3039C50.0203 10.1054 49.744 10.1948 49.5139 10.3607C49.2839 10.5266 49.1117 10.7607 49.0218 11.0299L46.715 17.9571C46.3738 18.9813 45.7193 19.8721 44.8441 20.5033C43.969 21.1345 42.9176 21.474 41.839 21.4737H39.7619V25.8947C39.7619 26.3973 39.5625 26.8792 39.2075 27.2345C38.8525 27.5898 38.3711 27.7895 37.869 27.7895H27.7738C27.2718 27.7895 26.7903 27.5898 26.4354 27.2345C26.0804 26.8792 25.881 26.3973 25.881 25.8947V15.7895C25.881 15.287 26.0804 14.805 26.4354 14.4497C26.7903 14.0944 27.2718 13.8947 27.7738 13.8947H37.869C38.3711 13.8947 38.8525 14.0944 39.2075 14.4497C39.5625 14.805 39.7619 15.287 39.7619 15.7895V17.6842H41.839C42.4195 17.6842 42.9394 17.3103 43.1211 16.7596L45.4279 9.83242C45.769 8.80815 46.4236 7.91732 47.2987 7.28616C48.1738 6.655 49.2252 6.31551 50.3039 6.31579H51.119V1.89474ZM54.9048 8.256V10.1053H61.2143V3.78947H54.9048V8.16505C54.9053 8.19537 54.9053 8.22569 54.9048 8.256ZM29.6667 17.6842V24H35.9762V17.6842H29.6667Z" fill="#004FA3"/>
</svg>
