<svg width="98" height="78" viewBox="0 0 98 78" fill="none" xmlns="http://www.w3.org/2000/svg">
<path d="M0.55872 64.3348V62.7834H8.71005V64.3348H5.55228V73H3.71649V64.3348H0.55872ZM9.10627 73V65.3376H10.8573V66.6146H10.9371C11.0768 66.1723 11.3162 65.8314 11.6554 65.592C11.998 65.3492 12.3888 65.2278 12.8277 65.2278C12.9275 65.2278 13.0389 65.2328 13.162 65.2428C13.2884 65.2494 13.3931 65.2611 13.4763 65.2777V66.9389C13.3998 66.9123 13.2784 66.889 13.1121 66.869C12.9491 66.8458 12.7912 66.8341 12.6382 66.8341C12.3089 66.8341 12.0129 66.9056 11.7502 67.0486C11.4908 67.1883 11.2863 67.3829 11.1366 67.6323C10.987 67.8817 10.9121 68.1694 10.9121 68.4953V73H9.10627ZM16.4441 73.1546C15.9585 73.1546 15.5212 73.0682 15.1321 72.8952C14.7463 72.719 14.4403 72.4596 14.2142 72.117C13.9914 71.7745 13.88 71.3521 13.88 70.8499C13.88 70.4176 13.9598 70.0601 14.1194 69.7774C14.279 69.4947 14.4969 69.2685 14.7729 69.0989C15.049 68.9293 15.3599 68.8013 15.7058 68.7148C16.055 68.625 16.4158 68.5602 16.7883 68.5203C17.2373 68.4737 17.6014 68.4321 17.8808 68.3955C18.1602 68.3556 18.363 68.2958 18.4894 68.216C18.6191 68.1328 18.684 68.0048 18.684 67.8318V67.8019C18.684 67.4261 18.5725 67.1351 18.3497 66.9289C18.1269 66.7227 17.806 66.6196 17.3869 66.6196C16.9446 66.6196 16.5937 66.7161 16.3343 66.909C16.0783 67.1018 15.9053 67.3297 15.8155 67.5924L14.1294 67.3529C14.2624 66.8873 14.4819 66.4982 14.7879 66.1856C15.0938 65.8697 15.468 65.6335 15.9103 65.4772C16.3526 65.3176 16.8415 65.2378 17.377 65.2378C17.7461 65.2378 18.1136 65.281 18.4794 65.3675C18.8453 65.454 19.1795 65.597 19.4821 65.7965C19.7848 65.9927 20.0275 66.2604 20.2105 66.5997C20.3967 66.9389 20.4898 67.3629 20.4898 67.8717V73H18.7538V71.9474H18.6939C18.5842 72.1603 18.4295 72.3598 18.23 72.546C18.0338 72.729 17.786 72.8769 17.4867 72.99C17.1907 73.0998 16.8432 73.1546 16.4441 73.1546ZM16.913 71.8277C17.2755 71.8277 17.5898 71.7562 17.8559 71.6132C18.1219 71.4668 18.3264 71.274 18.4694 71.0345C18.6158 70.7951 18.6889 70.534 18.6889 70.2513V69.3484C18.6324 69.3949 18.536 69.4382 18.3996 69.4781C18.2666 69.518 18.1169 69.5529 17.9506 69.5828C17.7844 69.6128 17.6197 69.6394 17.4568 69.6626C17.2938 69.6859 17.1525 69.7059 17.0327 69.7225C16.7634 69.7591 16.5222 69.819 16.3094 69.9021C16.0966 69.9852 15.9286 70.1016 15.8056 70.2513C15.6825 70.3976 15.621 70.5872 15.621 70.82C15.621 71.1526 15.7424 71.4037 15.9851 71.5733C16.2279 71.7429 16.5372 71.8277 16.913 71.8277ZM23.8118 68.5103V73H22.006V65.3376H23.732V66.6396H23.8218C23.9981 66.2106 24.2791 65.8697 24.6649 65.6169C25.054 65.3642 25.5346 65.2378 26.1066 65.2378C26.6354 65.2378 27.096 65.3509 27.4884 65.577C27.8842 65.8032 28.1901 66.1307 28.4063 66.5598C28.6258 66.9888 28.7339 67.5092 28.7306 68.1212V73H26.9247V68.4005C26.9247 67.8884 26.7917 67.4876 26.5256 67.1983C26.2629 66.909 25.8987 66.7643 25.4331 66.7643C25.1172 66.7643 24.8362 66.8341 24.5901 66.9738C24.3473 67.1102 24.1561 67.308 24.0164 67.5674C23.88 67.8268 23.8118 68.1411 23.8118 68.5103ZM36.3228 67.3629L34.6766 67.5425C34.63 67.3762 34.5485 67.2199 34.4321 67.0736C34.3191 66.9272 34.1661 66.8092 33.9732 66.7194C33.7803 66.6296 33.5442 66.5847 33.2648 66.5847C32.889 66.5847 32.5731 66.6662 32.317 66.8291C32.0642 66.9921 31.9395 67.2033 31.9428 67.4627C31.9395 67.6855 32.021 67.8668 32.1873 68.0064C32.3569 68.1461 32.6363 68.2609 33.0254 68.3506L34.3324 68.63C35.0574 68.7863 35.5961 69.0341 35.9487 69.3733C36.3045 69.7125 36.4841 70.1565 36.4874 70.7053C36.4841 71.1875 36.3428 71.6132 36.0634 71.9823C35.7874 72.3482 35.4032 72.6342 34.911 72.8404C34.4188 73.0466 33.8535 73.1497 33.2149 73.1497C32.2771 73.1497 31.5221 72.9534 30.9501 72.561C30.3781 72.1652 30.0372 71.6148 29.9275 70.9098L31.6884 70.7402C31.7682 71.0861 31.9379 71.3471 32.1973 71.5234C32.4567 71.6996 32.7942 71.7878 33.2099 71.7878C33.639 71.7878 33.9832 71.6996 34.2426 71.5234C34.5053 71.3471 34.6367 71.1293 34.6367 70.8699C34.6367 70.6504 34.5519 70.4691 34.3823 70.3261C34.216 70.1831 33.9566 70.0734 33.604 69.9969L32.297 69.7225C31.562 69.5695 31.0183 69.3118 30.6658 68.9493C30.3132 68.5834 30.1386 68.1212 30.142 67.5625C30.1386 67.0902 30.2667 66.6811 30.5261 66.3353C30.7888 65.9861 31.153 65.7167 31.6186 65.5271C32.0875 65.3342 32.6279 65.2378 33.2399 65.2378C34.1378 65.2378 34.8445 65.429 35.36 65.8115C35.8788 66.1939 36.1998 66.7111 36.3228 67.3629ZM37.6768 75.8734V65.3376H39.4528V66.6046H39.5575C39.6506 66.4184 39.782 66.2205 39.9516 66.011C40.1212 65.7982 40.3507 65.6169 40.64 65.4673C40.9294 65.3143 41.2985 65.2378 41.7475 65.2378C42.3395 65.2378 42.8733 65.3891 43.3488 65.6917C43.8277 65.9911 44.2069 66.435 44.4862 67.0237C44.7689 67.609 44.9103 68.3274 44.9103 69.1788C44.9103 70.0202 44.7722 70.7352 44.4962 71.3238C44.2202 71.9125 43.8444 72.3615 43.3688 72.6708C42.8932 72.98 42.3545 73.1347 41.7525 73.1347C41.3135 73.1347 40.9493 73.0615 40.66 72.9152C40.3707 72.7689 40.1379 72.5926 39.9616 72.3864C39.7887 72.1769 39.654 71.979 39.5575 71.7928H39.4827V75.8734H37.6768ZM39.4478 69.1688C39.4478 69.6643 39.5176 70.0983 39.6573 70.4708C39.8003 70.8433 40.0048 71.1343 40.2709 71.3438C40.5403 71.55 40.8662 71.6531 41.2487 71.6531C41.6477 71.6531 41.982 71.5467 42.2514 71.3338C42.5207 71.1176 42.7236 70.8233 42.86 70.4508C42.9996 70.075 43.0695 69.6477 43.0695 69.1688C43.0695 68.6932 43.0013 68.2708 42.865 67.9017C42.7286 67.5325 42.5257 67.2432 42.2563 67.0337C41.987 66.8241 41.6511 66.7194 41.2487 66.7194C40.8629 66.7194 40.5353 66.8208 40.2659 67.0237C39.9965 67.2266 39.792 67.5109 39.6523 67.8767C39.516 68.2426 39.4478 68.6732 39.4478 69.1688ZM49.4994 73.1497C48.7511 73.1497 48.1026 72.985 47.5538 72.6558C47.0051 72.3265 46.5794 71.8659 46.2768 71.274C45.9775 70.682 45.8278 69.9902 45.8278 69.1987C45.8278 68.4072 45.9775 67.7138 46.2768 67.1185C46.5794 66.5232 47.0051 66.0609 47.5538 65.7316C48.1026 65.4024 48.7511 65.2378 49.4994 65.2378C50.2477 65.2378 50.8962 65.4024 51.4449 65.7316C51.9937 66.0609 52.4177 66.5232 52.717 67.1185C53.0197 67.7138 53.171 68.4072 53.171 69.1987C53.171 69.9902 53.0197 70.682 52.717 71.274C52.4177 71.8659 51.9937 72.3265 51.4449 72.6558C50.8962 72.985 50.2477 73.1497 49.4994 73.1497ZM49.5094 71.703C49.9151 71.703 50.2543 71.5916 50.527 71.3687C50.7997 71.1426 51.0026 70.8399 51.1356 70.4608C51.272 70.0817 51.3402 69.6593 51.3402 69.1937C51.3402 68.7248 51.272 68.3008 51.1356 67.9216C51.0026 67.5392 50.7997 67.2349 50.527 67.0087C50.2543 66.7826 49.9151 66.6695 49.5094 66.6695C49.0936 66.6695 48.7478 66.7826 48.4717 67.0087C48.199 67.2349 47.9945 67.5392 47.8581 67.9216C47.7251 68.3008 47.6586 68.7248 47.6586 69.1937C47.6586 69.6593 47.7251 70.0817 47.8581 70.4608C47.9945 70.8399 48.199 71.1426 48.4717 71.3687C48.7478 71.5916 49.0936 71.703 49.5094 71.703ZM54.404 73V65.3376H56.155V66.6146H56.2348C56.3745 66.1723 56.614 65.8314 56.9532 65.592C57.2957 65.3492 57.6865 65.2278 58.1255 65.2278C58.2253 65.2278 58.3367 65.2328 58.4597 65.2428C58.5861 65.2494 58.6909 65.2611 58.774 65.2777V66.9389C58.6975 66.9123 58.5761 66.889 58.4099 66.869C58.2469 66.8458 58.0889 66.8341 57.9359 66.8341C57.6067 66.8341 57.3107 66.9056 57.048 67.0486C56.7886 67.1883 56.584 67.3829 56.4344 67.6323C56.2847 67.8817 56.2099 68.1694 56.2099 68.4953V73H54.404ZM63.9119 65.3376V66.7344H59.507V65.3376H63.9119ZM60.5945 63.5018H62.4003V70.6953C62.4003 70.9381 62.4369 71.1243 62.5101 71.254C62.5866 71.3804 62.6863 71.4668 62.8094 71.5134C62.9325 71.56 63.0688 71.5832 63.2185 71.5832C63.3315 71.5832 63.4346 71.5749 63.5278 71.5583C63.6242 71.5417 63.6974 71.5267 63.7473 71.5134L64.0516 72.9252C63.9551 72.9584 63.8171 72.995 63.6375 73.0349C63.4612 73.0748 63.2451 73.0981 62.989 73.1048C62.5367 73.1181 62.1293 73.0499 61.7668 72.9002C61.4043 72.7472 61.1166 72.5111 60.9038 72.1919C60.6942 71.8726 60.5911 71.4735 60.5945 70.9946V63.5018ZM67.3274 73.1546C66.8419 73.1546 66.4045 73.0682 66.0154 72.8952C65.6296 72.719 65.3237 72.4596 65.0975 72.117C64.8747 71.7745 64.7633 71.3521 64.7633 70.8499C64.7633 70.4176 64.8431 70.0601 65.0028 69.7774C65.1624 69.4947 65.3802 69.2685 65.6563 69.0989C65.9323 68.9293 66.2432 68.8013 66.5891 68.7148C66.9383 68.625 67.2992 68.5602 67.6716 68.5203C68.1206 68.4737 68.4848 68.4321 68.7641 68.3955C69.0435 68.3556 69.2464 68.2958 69.3727 68.216C69.5024 68.1328 69.5673 68.0048 69.5673 67.8318V67.8019C69.5673 67.4261 69.4559 67.1351 69.2331 66.9289C69.0102 66.7227 68.6893 66.6196 68.2703 66.6196C67.8279 66.6196 67.4771 66.7161 67.2177 66.909C66.9616 67.1018 66.7887 67.3297 66.6989 67.5924L65.0127 67.3529C65.1458 66.8873 65.3653 66.4982 65.6712 66.1856C65.9772 65.8697 66.3513 65.6335 66.7936 65.4772C67.236 65.3176 67.7249 65.2378 68.2603 65.2378C68.6294 65.2378 68.9969 65.281 69.3628 65.3675C69.7286 65.454 70.0628 65.597 70.3655 65.7965C70.6681 65.9927 70.9109 66.2604 71.0938 66.5997C71.28 66.9389 71.3732 67.3629 71.3732 67.8717V73H69.6371V71.9474H69.5773C69.4675 72.1603 69.3129 72.3598 69.1133 72.546C68.9171 72.729 68.6694 72.8769 68.37 72.99C68.0741 73.0998 67.7265 73.1546 67.3274 73.1546ZM67.7964 71.8277C68.1589 71.8277 68.4731 71.7562 68.7392 71.6132C69.0053 71.4668 69.2098 71.274 69.3528 71.0345C69.4991 70.7951 69.5723 70.534 69.5723 70.2513V69.3484C69.5157 69.3949 69.4193 69.4382 69.2829 69.4781C69.1499 69.518 69.0003 69.5529 68.834 69.5828C68.6677 69.6128 68.5031 69.6394 68.3401 69.6626C68.1771 69.6859 68.0358 69.7059 67.9161 69.7225C67.6467 69.7591 67.4056 69.819 67.1927 69.9021C66.9799 69.9852 66.8119 70.1016 66.6889 70.2513C66.5658 70.3976 66.5043 70.5872 66.5043 70.82C66.5043 71.1526 66.6257 71.4037 66.8685 71.5733C67.1113 71.7429 67.4205 71.8277 67.7964 71.8277ZM76.7156 65.3376V66.7344H72.3106V65.3376H76.7156ZM73.3982 63.5018H75.204V70.6953C75.204 70.9381 75.2406 71.1243 75.3138 71.254C75.3903 71.3804 75.49 71.4668 75.6131 71.5134C75.7361 71.56 75.8725 71.5832 76.0221 71.5832C76.1352 71.5832 76.2383 71.5749 76.3314 71.5583C76.4279 71.5417 76.501 71.5267 76.5509 71.5134L76.8552 72.9252C76.7588 72.9584 76.6208 72.995 76.4412 73.0349C76.2649 73.0748 76.0487 73.0981 75.7927 73.1048C75.3404 73.1181 74.933 73.0499 74.5705 72.9002C74.208 72.7472 73.9203 72.5111 73.7074 72.1919C73.4979 71.8726 73.3948 71.4735 73.3982 70.9946V63.5018ZM77.9262 73V65.3376H79.732V73H77.9262ZM78.8341 64.25C78.5481 64.25 78.302 64.1553 78.0958 63.9657C77.8896 63.7728 77.7865 63.5417 77.7865 63.2723C77.7865 62.9996 77.8896 62.7684 78.0958 62.5789C78.302 62.386 78.5481 62.2895 78.8341 62.2895C79.1234 62.2895 79.3695 62.386 79.5724 62.5789C79.7786 62.7684 79.8817 62.9996 79.8817 63.2723C79.8817 63.5417 79.7786 63.7728 79.5724 63.9657C79.3695 64.1553 79.1234 64.25 78.8341 64.25ZM84.6317 73.1497C83.8834 73.1497 83.2349 72.985 82.6861 72.6558C82.1374 72.3265 81.7117 71.8659 81.4091 71.274C81.1097 70.682 80.9601 69.9902 80.9601 69.1987C80.9601 68.4072 81.1097 67.7138 81.4091 67.1185C81.7117 66.5232 82.1374 66.0609 82.6861 65.7316C83.2349 65.4024 83.8834 65.2378 84.6317 65.2378C85.38 65.2378 86.0285 65.4024 86.5772 65.7316C87.126 66.0609 87.55 66.5232 87.8493 67.1185C88.1519 67.7138 88.3033 68.4072 88.3033 69.1987C88.3033 69.9902 88.1519 70.682 87.8493 71.274C87.55 71.8659 87.126 72.3265 86.5772 72.6558C86.0285 72.985 85.38 73.1497 84.6317 73.1497ZM84.6416 71.703C85.0474 71.703 85.3866 71.5916 85.6593 71.3687C85.932 71.1426 86.1349 70.8399 86.2679 70.4608C86.4043 70.0817 86.4725 69.6593 86.4725 69.1937C86.4725 68.7248 86.4043 68.3008 86.2679 67.9216C86.1349 67.5392 85.932 67.2349 85.6593 67.0087C85.3866 66.7826 85.0474 66.6695 84.6416 66.6695C84.2259 66.6695 83.8801 66.7826 83.604 67.0087C83.3313 67.2349 83.1268 67.5392 82.9904 67.9216C82.8574 68.3008 82.7909 68.7248 82.7909 69.1937C82.7909 69.6593 82.8574 70.0817 82.9904 70.4608C83.1268 70.8399 83.3313 71.1426 83.604 71.3687C83.8801 71.5916 84.2259 71.703 84.6416 71.703ZM91.3422 68.5103V73H89.5363V65.3376H91.2624V66.6396H91.3522C91.5284 66.2106 91.8094 65.8697 92.1952 65.6169C92.5843 65.3642 93.0649 65.2378 93.6369 65.2378C94.1657 65.2378 94.6263 65.3509 95.0188 65.577C95.4145 65.8032 95.7205 66.1307 95.9367 66.5598C96.1561 66.9888 96.2642 67.5092 96.2609 68.1212V73H94.455V68.4005C94.455 67.8884 94.322 67.4876 94.056 67.1983C93.7932 66.909 93.4291 66.7643 92.9635 66.7643C92.6475 66.7643 92.3665 66.8341 92.1204 66.9738C91.8776 67.1102 91.6864 67.308 91.5467 67.5674C91.4104 67.8268 91.3422 68.1411 91.3422 68.5103Z" fill="#004FA3"/>
<path d="M68.7584 14.022L65.6424 4.67172C65.1904 3.31071 64.321 2.12676 63.1577 1.2881C61.9943 0.449442 60.5963 -0.00127147 59.1622 2.6941e-06H38.3934C36.9593 -0.00127147 35.5612 0.449442 34.3979 1.2881C33.2346 2.12676 32.3651 3.31071 31.9131 4.67172L28.7971 14.022C27.9694 14.3693 27.2625 14.9531 26.765 15.7002C26.2674 16.4473 26.0013 17.3246 26 18.2222V29.6111C26 31.3263 26.9635 32.8046 28.3666 33.5813C28.337 33.7316 28.2778 33.8683 28.2778 34.0254V38.7222C28.2778 39.3263 28.5178 39.9057 28.9449 40.3329C29.3721 40.76 29.9515 41 30.5556 41H32.8333C33.4374 41 34.0168 40.76 34.444 40.3329C34.8711 39.9057 35.1111 39.3263 35.1111 38.7222V34.1667H62.4444V38.7222C62.4444 39.3263 62.6844 39.9057 63.1116 40.3329C63.5388 40.76 64.1181 41 64.7222 41H67C67.6041 41 68.1835 40.76 68.6106 40.3329C69.0378 39.9057 69.2778 39.3263 69.2778 38.7222V34.0254C69.2778 33.8683 69.2186 33.7293 69.1889 33.5813C69.9028 33.1921 70.499 32.6183 70.9153 31.9199C71.3317 31.2215 71.5528 30.4242 71.5556 29.6111V18.2222C71.5556 16.3339 70.3984 14.7122 68.7584 14.022ZM30.5556 29.6111V18.2222H67L67.0046 29.6111H30.5556ZM38.3934 4.55556H59.1599C60.1416 4.55556 61.0117 5.17967 61.3215 6.11356L63.8407 13.6667H33.7148L36.2318 6.11356C36.3829 5.65981 36.673 5.26514 37.061 4.9855C37.449 4.70587 37.9151 4.55544 38.3934 4.55556V4.55556Z" fill="#004FA3"/>
<path d="M36.2502 27.3333C38.1371 27.3333 39.6668 25.8036 39.6668 23.9167C39.6668 22.0297 38.1371 20.5 36.2502 20.5C34.3632 20.5 32.8335 22.0297 32.8335 23.9167C32.8335 25.8036 34.3632 27.3333 36.2502 27.3333Z" fill="#004FA3"/>
<path d="M61.3053 27.3333C63.1923 27.3333 64.722 25.8036 64.722 23.9167C64.722 22.0297 63.1923 20.5 61.3053 20.5C59.4184 20.5 57.8887 22.0297 57.8887 23.9167C57.8887 25.8036 59.4184 27.3333 61.3053 27.3333Z" fill="#004FA3"/>
</svg>
