<svg width="25" height="25" viewBox="0 0 25 25" fill="none" xmlns="http://www.w3.org/2000/svg">
<path d="M1.29229 0.0943126C1.14282 0.0195559 0.975369 -0.0117519 0.808988 0.00395043C0.642606 0.0196528 0.483971 0.081735 0.351128 0.183135C0.218285 0.284535 0.116566 0.421182 0.0575419 0.577533C-0.00148195 0.733884 -0.0154412 0.903661 0.0172521 1.06755L2.52268 9.7285C2.56939 9.8899 2.6607 10.0348 2.78611 10.1467C2.91152 10.2585 3.06594 10.3327 3.23162 10.3607L13.3926 12.0625C13.8712 12.1571 13.8712 12.8429 13.3926 12.9375L3.23162 14.6393C3.06594 14.6673 2.91152 14.7415 2.78611 14.8533C2.6607 14.9652 2.56939 15.1101 2.52268 15.2715L0.0172521 23.9324C-0.0154412 24.0963 -0.00148195 24.2661 0.0575419 24.4225C0.116566 24.5788 0.218285 24.7155 0.351128 24.8169C0.483971 24.9183 0.642606 24.9803 0.808988 24.996C0.975369 25.0118 1.14282 24.9804 1.29229 24.9057L24.5072 13.2982C24.6553 13.224 24.7798 13.11 24.8669 12.9691C24.9539 12.8281 25 12.6657 25 12.5C25 12.3343 24.9539 12.1719 24.8669 12.0309C24.7798 11.89 24.6553 11.776 24.5072 11.7018L1.29229 0.0943126Z" fill="#004FA3"/>
</svg>
