<svg width="28" height="35" viewBox="0 0 28 35" fill="none" xmlns="http://www.w3.org/2000/svg">
<path d="M0 4.35098C0 3.19703 0.491665 2.09034 1.36683 1.27437C2.242 0.458406 3.42899 0 4.66667 0L23.3333 0C24.571 0 25.758 0.458406 26.6332 1.27437C27.5083 2.09034 28 3.19703 28 4.35098V33.7201C27.9999 33.9169 27.9425 34.1099 27.8341 34.2787C27.7256 34.4474 27.57 34.5856 27.384 34.6785C27.198 34.7714 26.9884 34.8154 26.7776 34.806C26.5668 34.7966 26.3627 34.7341 26.187 34.6251L14 28.5011L1.813 34.6251C1.63731 34.7341 1.4332 34.7966 1.22241 34.806C1.01162 34.8154 0.802044 34.7714 0.615999 34.6785C0.429954 34.5856 0.27441 34.4474 0.165933 34.2787C0.0574561 34.1099 0.000109014 33.9169 0 33.7201V4.35098ZM4.66667 2.17549C4.04783 2.17549 3.45434 2.40469 3.01675 2.81268C2.57917 3.22066 2.33333 3.774 2.33333 4.35098V31.6882L13.3537 26.2886C13.5451 26.1698 13.77 26.1064 14 26.1064C14.23 26.1064 14.4549 26.1698 14.6463 26.2886L25.6667 31.6882V4.35098C25.6667 3.774 25.4208 3.22066 24.9832 2.81268C24.5457 2.40469 23.9522 2.17549 23.3333 2.17549H4.66667Z" fill="white"/>
</svg>
