<svg width="38" height="48" viewBox="0 0 38 48" fill="none" xmlns="http://www.w3.org/2000/svg">
<path d="M0 6.0001C0 4.40877 0.66726 2.88262 1.85499 1.75739C3.04272 0.632151 4.65363 0 6.33333 0L31.6667 0C33.3464 0 34.9573 0.632151 36.145 1.75739C37.3327 2.88262 38 4.40877 38 6.0001V46.5008C37.9999 46.7721 37.922 47.0383 37.7748 47.271C37.6276 47.5038 37.4165 47.6943 37.164 47.8224C36.9115 47.9505 36.6271 48.0113 36.341 47.9983C36.0549 47.9853 35.7779 47.8991 35.5395 47.7488L19 39.3036L2.4605 47.7488C2.22207 47.8991 1.94506 47.9853 1.65899 47.9983C1.37292 48.0113 1.08849 47.9505 0.835998 47.8224C0.583508 47.6943 0.372413 47.5038 0.225195 47.271C0.0779761 47.0383 0.000147948 46.7721 0 46.5008V6.0001ZM6.33333 3.00005C5.49348 3.00005 4.68803 3.31612 4.09416 3.87874C3.5003 4.44136 3.16667 5.20443 3.16667 6.0001V43.6987L18.1228 36.2526C18.3827 36.0888 18.6879 36.0014 19 36.0014C19.3121 36.0014 19.6173 36.0888 19.8772 36.2526L34.8333 43.6987V6.0001C34.8333 5.20443 34.4997 4.44136 33.9058 3.87874C33.312 3.31612 32.5065 3.00005 31.6667 3.00005H6.33333Z" fill="black"/>
</svg>
