<svg width="81" height="27" viewBox="0 0 81 27" fill="none" xmlns="http://www.w3.org/2000/svg">
<rect width="80.3279" height="26.4999" rx="8.28123" fill="#93C5FF"/>
<path d="M30.8746 16.8281V8.9986H33.5201C34.1343 8.9986 34.6364 9.10947 35.0264 9.3312C35.4189 9.55039 35.7094 9.84731 35.898 10.222C36.0866 10.5966 36.1809 11.0146 36.1809 11.4759C36.1809 11.9372 36.0866 12.3565 35.898 12.7337C35.712 13.1109 35.424 13.4116 35.034 13.6359C34.6441 13.8576 34.1445 13.9685 33.5354 13.9685H31.6392V13.1275H33.5048C33.9254 13.1275 34.2631 13.0548 34.5179 12.9095C34.7728 12.7643 34.9576 12.568 35.0723 12.3208C35.1895 12.071 35.2481 11.7894 35.2481 11.4759C35.2481 11.1624 35.1895 10.8821 35.0723 10.6348C34.9576 10.3876 34.7715 10.1939 34.5141 10.0538C34.2567 9.91103 33.9152 9.83966 33.4895 9.83966H31.8227V16.8281H30.8746ZM38.9584 16.9658C38.5863 16.9658 38.2486 16.8957 37.9453 16.7555C37.642 16.6128 37.4012 16.4076 37.2228 16.14C37.0443 15.8698 36.9551 15.5436 36.9551 15.1613C36.9551 14.8249 37.0214 14.5522 37.1539 14.3432C37.2865 14.1316 37.4636 13.966 37.6853 13.8462C37.9071 13.7264 38.1517 13.6372 38.4194 13.5786C38.6895 13.5174 38.9609 13.469 39.2337 13.4333C39.5905 13.3874 39.8797 13.353 40.1015 13.3301C40.3258 13.3046 40.4889 13.2625 40.5908 13.2039C40.6953 13.1453 40.7476 13.0433 40.7476 12.8981V12.8675C40.7476 12.4903 40.6443 12.1972 40.4379 11.9882C40.234 11.7792 39.9243 11.6747 39.5089 11.6747C39.0782 11.6747 38.7405 11.769 38.4958 11.9576C38.2511 12.1462 38.0791 12.3476 37.9797 12.5616L37.1234 12.2558C37.2763 11.899 37.4802 11.6212 37.735 11.4224C37.9925 11.221 38.2728 11.0809 38.5761 11.0019C38.8819 10.9203 39.1827 10.8795 39.4783 10.8795C39.6669 10.8795 39.8836 10.9025 40.1282 10.9483C40.3755 10.9917 40.6138 11.0821 40.8431 11.2198C41.0751 11.3574 41.2675 11.5651 41.4204 11.8429C41.5733 12.1207 41.6498 12.4928 41.6498 12.9592V16.8281H40.7476V16.0329H40.7017C40.6405 16.1604 40.5386 16.2967 40.3959 16.442C40.2531 16.5873 40.0633 16.7109 39.8262 16.8128C39.5892 16.9148 39.2999 16.9658 38.9584 16.9658ZM39.096 16.1553C39.4528 16.1553 39.7536 16.0852 39.9983 15.945C40.2455 15.8048 40.4315 15.6239 40.5564 15.4021C40.6839 15.1804 40.7476 14.9472 40.7476 14.7025V13.8768C40.7093 13.9226 40.6252 13.9647 40.4953 14.0029C40.3678 14.0386 40.22 14.0705 40.0518 14.0985C39.8861 14.124 39.7243 14.1469 39.5663 14.1673C39.4108 14.1852 39.2846 14.2004 39.1878 14.2132C38.9533 14.2438 38.7341 14.2935 38.5302 14.3623C38.3289 14.4285 38.1658 14.5292 38.0409 14.6643C37.9185 14.7968 37.8574 14.9778 37.8574 15.2072C37.8574 15.5207 37.9733 15.7577 38.2053 15.9182C38.4397 16.0763 38.7367 16.1553 39.096 16.1553ZM42.9411 16.8281V10.956H43.8127V11.8429H43.8739C43.9809 11.5524 44.1746 11.3166 44.455 11.1357C44.7353 10.9547 45.0514 10.8642 45.4031 10.8642C45.4694 10.8642 45.5522 10.8655 45.6516 10.8681C45.751 10.8706 45.8262 10.8744 45.8771 10.8795V11.797C45.8466 11.7894 45.7765 11.7779 45.6669 11.7626C45.5598 11.7448 45.4464 11.7359 45.3266 11.7359C45.0412 11.7359 44.7863 11.7958 44.562 11.9156C44.3403 12.0328 44.1644 12.1959 44.0345 12.4049C43.907 12.6113 43.8433 12.8471 43.8433 13.1122V16.8281H42.9411ZM49.5129 10.956V11.7206H46.4698V10.956H49.5129ZM47.3567 9.54911H48.2589V15.146C48.2589 15.4009 48.2959 15.592 48.3698 15.7195C48.4463 15.8443 48.5431 15.9284 48.6604 15.9718C48.7801 16.0125 48.9063 16.0329 49.0388 16.0329C49.1382 16.0329 49.2198 16.0278 49.2835 16.0176C49.3472 16.0049 49.3982 15.9947 49.4364 15.9871L49.6199 16.7975C49.5588 16.8205 49.4734 16.8434 49.3638 16.8664C49.2542 16.8918 49.1153 16.9046 48.9471 16.9046C48.6922 16.9046 48.4424 16.8498 48.1978 16.7402C47.9556 16.6306 47.7543 16.4637 47.5937 16.2394C47.4357 16.0151 47.3567 15.7322 47.3567 15.3907V9.54911ZM53.6685 13.051V13.8921H50.2431V13.051H53.6685ZM57.4543 10.956V11.7206H54.4112V10.956H57.4543ZM55.2982 9.54911H56.2004V15.146C56.2004 15.4009 56.2373 15.592 56.3113 15.7195C56.3877 15.8443 56.4846 15.9284 56.6018 15.9718C56.7216 16.0125 56.8477 16.0329 56.9803 16.0329C57.0797 16.0329 57.1612 16.0278 57.225 16.0176C57.2887 16.0049 57.3396 15.9947 57.3779 15.9871L57.5614 16.7975C57.5002 16.8205 57.4148 16.8434 57.3052 16.8664C57.1956 16.8918 57.0567 16.9046 56.8885 16.9046C56.6337 16.9046 56.3839 16.8498 56.1392 16.7402C55.8971 16.6306 55.6957 16.4637 55.5352 16.2394C55.3772 16.0151 55.2982 15.7322 55.2982 15.3907V9.54911ZM58.456 16.8281V10.956H59.3582V16.8281H58.456ZM58.9148 9.97729C58.7389 9.97729 58.5873 9.9174 58.4598 9.79761C58.335 9.67782 58.2725 9.53382 58.2725 9.36561C58.2725 9.1974 58.335 9.0534 58.4598 8.93361C58.5873 8.81382 58.7389 8.75393 58.9148 8.75393C59.0906 8.75393 59.241 8.81382 59.3659 8.93361C59.4933 9.0534 59.557 9.1974 59.557 9.36561C59.557 9.53382 59.4933 9.67782 59.3659 9.79761C59.241 9.9174 59.0906 9.97729 58.9148 9.97729ZM60.6553 16.8281V10.956H61.5269V11.8735H61.6034C61.7257 11.56 61.9232 11.3166 62.1959 11.1433C62.4686 10.9675 62.7961 10.8795 63.1784 10.8795C63.5658 10.8795 63.8882 10.9675 64.1457 11.1433C64.4056 11.3166 64.6082 11.56 64.7535 11.8735H64.8147C64.9651 11.5702 65.1906 11.3294 65.4914 11.151C65.7921 10.97 66.1527 10.8795 66.5733 10.8795C67.0983 10.8795 67.5278 11.0439 67.8616 11.3727C68.1955 11.6989 68.3624 12.2074 68.3624 12.8981V16.8281H67.4602V12.8981C67.4602 12.4648 67.3417 12.1551 67.1047 11.9691C66.8676 11.783 66.5886 11.69 66.2674 11.69C65.8546 11.69 65.5347 11.8149 65.3079 12.0647C65.081 12.3119 64.9676 12.6254 64.9676 13.0051V16.8281H64.0501V12.8063C64.0501 12.4724 63.9418 12.2036 63.7251 11.9997C63.5085 11.7932 63.2294 11.69 62.8879 11.69C62.6534 11.69 62.4342 11.7524 62.2303 11.8773C62.029 12.0022 61.8659 12.1755 61.741 12.3973C61.6187 12.6164 61.5575 12.87 61.5575 13.158V16.8281H60.6553ZM72.1186 16.9505C71.5528 16.9505 71.0647 16.8256 70.6544 16.5758C70.2466 16.3235 69.9318 15.9718 69.7101 15.5207C69.4909 15.067 69.3813 14.5394 69.3813 13.9379C69.3813 13.3364 69.4909 12.8063 69.7101 12.3476C69.9318 11.8862 70.2402 11.5269 70.6353 11.2695C71.0329 11.0095 71.4967 10.8795 72.0269 10.8795C72.3327 10.8795 72.6347 10.9305 72.9329 11.0324C73.2311 11.1344 73.5025 11.3001 73.7472 11.5294C73.9919 11.7563 74.1869 12.057 74.3321 12.4317C74.4774 12.8063 74.55 13.2676 74.55 13.8156V14.1979H70.0236V13.418H73.6325C73.6325 13.0867 73.5662 12.791 73.4337 12.5311C73.3037 12.2711 73.1177 12.0659 72.8756 11.9156C72.636 11.7652 72.3531 11.69 72.0269 11.69C71.6675 11.69 71.3565 11.7792 71.094 11.9576C70.8341 12.1335 70.634 12.3628 70.4938 12.6458C70.3536 12.9287 70.2836 13.2319 70.2836 13.5556V14.0756C70.2836 14.519 70.36 14.895 70.5129 15.2033C70.6684 15.5092 70.8838 15.7424 71.159 15.903C71.4343 16.061 71.7541 16.14 72.1186 16.14C72.3556 16.14 72.5697 16.1069 72.7609 16.0406C72.9546 15.9718 73.1215 15.8698 73.2617 15.7347C73.4019 15.5971 73.5102 15.4264 73.5866 15.2225L74.4583 15.4671C74.3665 15.7628 74.2123 16.0227 73.9957 16.247C73.7791 16.4688 73.5115 16.6421 73.1929 16.767C72.8743 16.8893 72.5162 16.9505 72.1186 16.9505Z" fill="#373C3F"/>
<path d="M20.3211 8.24795H18.3487V6.93306C18.3487 6.20789 17.759 5.61816 17.0339 5.61816H13.0892C12.364 5.61816 11.7743 6.20789 11.7743 6.93306V8.24795H9.80195C9.07679 8.24795 8.48706 8.83768 8.48706 9.56284V11.5352H21.636V9.56284C21.636 8.83768 21.0462 8.24795 20.3211 8.24795ZM13.0892 6.93306H17.0339V8.24795H13.0892V6.93306ZM16.3764 13.5075H13.7466V12.1926H8.48706V16.7947C8.48706 17.5199 9.07679 18.1096 9.80195 18.1096H20.3211C21.0462 18.1096 21.636 17.5199 21.636 16.7947V12.1926H16.3764V13.5075Z" fill="#373C3F"/>
</svg>
