<svg width="7" height="9" viewBox="0 0 7 9" fill="none" xmlns="http://www.w3.org/2000/svg">
<path d="M3.39286 0C2.49334 0.00106118 1.63097 0.358862 0.99492 0.994916C0.358866 1.63097 0.00106479 2.49334 3.60965e-06 3.39285C-0.00107374 4.12794 0.23904 4.84308 0.68351 5.42857C0.68351 5.42857 0.776042 5.5504 0.791156 5.56798L3.39286 8.63636L5.99579 5.56644C6.00936 5.55009 6.10221 5.42857 6.10221 5.42857C6.54646 4.84333 6.78677 4.1276 6.78571 3.39285C6.78465 2.49334 6.42685 1.63097 5.7908 0.994916C5.15474 0.358862 4.29237 0.00106118 3.39286 0ZM3.39286 4.62662C3.14884 4.62662 2.91031 4.55426 2.70741 4.41869C2.50452 4.28312 2.34639 4.09044 2.25301 3.865C2.15963 3.63955 2.13519 3.39149 2.1828 3.15216C2.2304 2.91283 2.34791 2.693 2.52045 2.52045C2.693 2.3479 2.91284 2.2304 3.15216 2.1828C3.39149 2.13519 3.63956 2.15962 3.865 2.253C4.09044 2.34638 4.28313 2.50452 4.4187 2.70741C4.55426 2.9103 4.62662 3.14884 4.62662 3.39285C4.62621 3.71994 4.4961 4.03352 4.26481 4.26481C4.03352 4.49609 3.71995 4.62621 3.39286 4.62662Z" fill="#E26060"/>
</svg>
