<svg width="48" height="48" viewBox="0 0 48 48" fill="none" xmlns="http://www.w3.org/2000/svg">
<ellipse cx="23.5003" cy="23.5" rx="9.39583" ry="9.9" fill="#FFCC00"/>
<path d="M23.5437 10C28.1478 10 32.3003 11.2516 36.0011 13.7547C39.7018 16.2578 42.3682 19.5062 44 23.5C42.3682 27.4937 39.7018 30.7422 36.0011 33.2453C32.3003 35.7484 28.1478 37 23.5437 37C18.9396 37 14.7726 35.7484 11.0426 33.2453C7.31272 30.7422 4.63184 27.4937 3 23.5C4.63184 19.5062 7.31272 16.2578 11.0426 13.7547C14.7726 11.2516 18.9396 10 23.5437 10ZM23.5437 32.5281C26.108 32.5281 28.2935 31.6422 30.1002 29.8703C31.9069 28.0984 32.8102 25.975 32.8102 23.5C32.8102 21.025 31.9069 18.9016 30.1002 17.1297C28.2935 15.3578 26.108 14.4719 23.5437 14.4719C20.9794 14.4719 18.7793 15.3578 16.9435 17.1297C15.1077 18.9016 14.1898 21.025 14.1898 23.5C14.1898 25.975 15.1077 28.0984 16.9435 29.8703C18.7793 31.6422 20.9794 32.5281 23.5437 32.5281ZM23.5 18.1C25.0444 18.1 26.3703 18.6203 27.4776 19.6609C28.5849 20.7016 29.1386 21.9812 29.1386 23.5C29.1386 25.0187 28.5849 26.2984 27.4776 27.3391C26.3703 28.3797 25.0444 28.9 23.5 28.9C21.9556 28.9 20.6443 28.3797 19.5661 27.3391C18.4879 26.2984 17.9488 25.0187 17.9488 23.5C17.9488 21.9812 18.4879 20.7016 19.5661 19.6609C20.6443 18.6203 21.9556 18.1 23.5 18.1Z" fill="#004FA3"/>
</svg>
