<svg width="48" height="48" viewBox="0 0 48 48" fill="none" xmlns="http://www.w3.org/2000/svg">
<path d="M23.9998 2.66667C22.0841 2.67198 20.1779 2.9366 18.3332 3.45334L19.3598 5.93334C23.3474 4.87753 27.5718 5.16541 31.3792 6.75242C35.1867 8.33944 38.3649 11.1371 40.4221 14.7125C42.4793 18.2879 43.3007 22.4416 42.7593 26.5309C42.2178 30.6201 40.3437 34.4169 37.4269 37.3337C34.5101 40.2505 30.7133 42.1247 26.624 42.6661C22.5348 43.2075 18.381 42.3861 14.8057 40.3289C11.2303 38.2717 8.43261 35.0935 6.84559 31.286C5.25857 27.4786 4.97069 23.2542 6.0265 19.2667L3.5465 18.2267C2.33625 22.532 2.50962 27.1088 4.04212 31.3102C5.57462 35.5116 8.38874 39.1252 12.0868 41.6402C15.7848 44.1552 20.1796 45.4444 24.6503 45.3257C29.1209 45.2069 33.4411 43.6862 37.0004 40.9784C40.5597 38.2707 43.178 34.5128 44.4853 30.236C45.7926 25.9591 45.7228 21.3796 44.2857 17.1446C42.8486 12.9096 40.117 9.23332 36.4768 6.63534C32.8366 4.03735 28.472 2.64906 23.9998 2.66667V2.66667Z" fill="#004FA3"/>
<path d="M9.93336 20.9333C9.26788 23.9741 9.60467 27.1486 10.8934 29.982C12.1821 32.8155 14.3534 35.1556 17.0827 36.6524C19.8119 38.1491 22.9524 38.7222 26.0343 38.2857C29.1163 37.8493 31.9742 36.4269 34.1806 34.2311C36.3869 32.0354 37.8231 29.1844 38.2745 26.1046C38.7258 23.0248 38.1679 19.8816 36.6844 17.1451C35.2008 14.4087 32.8712 12.2261 30.044 10.9237C27.2168 9.62132 24.044 9.2692 21 9.91998L21.8267 12C24.4165 11.5151 27.0935 11.8733 29.4648 13.0219C31.836 14.1705 33.7765 16.0491 35.0015 18.3818C36.2264 20.7146 36.6713 23.3785 36.2707 25.9827C35.8701 28.5869 34.6452 30.994 32.7758 32.8507C30.9063 34.7075 28.4909 35.916 25.8841 36.2988C23.2773 36.6817 20.6164 36.2187 18.292 34.9779C15.9677 33.7371 14.1024 31.7838 12.9699 29.4048C11.8375 27.0258 11.4975 24.3464 12 21.76L9.93336 20.9333Z" fill="#004FA3"/>
<path d="M23.9998 29.4533C22.6633 29.4335 21.3809 28.9224 20.3972 28.0174C19.4135 27.1124 18.7974 25.8769 18.6665 24.5467L16.4932 23.64V24C16.4932 25.5039 16.9403 26.9738 17.7775 28.2231C18.6147 29.4724 19.8044 30.4447 21.1953 31.0165C22.5863 31.5883 24.1158 31.7338 25.5896 31.4345C27.0634 31.1352 28.415 30.4047 29.4728 29.3356C30.5305 28.2666 31.2467 26.9073 31.5303 25.4304C31.814 23.9535 31.6523 22.4256 31.0658 21.0408C30.4793 19.656 29.4944 18.4768 28.2363 17.6528C26.9782 16.8289 25.5036 16.3975 23.9998 16.4133H23.6798L24.5732 18.6667C25.9058 18.8688 27.1156 19.5596 27.9669 20.6046C28.8182 21.6496 29.2501 22.974 29.1785 24.32C29.107 25.666 28.5371 26.9372 27.5798 27.8861C26.6225 28.835 25.3464 29.3936 23.9998 29.4533Z" fill="#004FA3"/>
<path d="M10.9334 17.7867C11.0565 17.9123 11.2242 17.9842 11.4001 17.9867H16.2667L23.4267 25.1467C23.6778 25.3995 24.019 25.5422 24.3754 25.5435C24.7317 25.5447 25.0739 25.4044 25.3267 25.1533C25.5796 24.9023 25.7223 24.561 25.7236 24.2047C25.7248 23.8484 25.5845 23.5062 25.3334 23.2533L18.0401 16V11.3467C18.0376 11.1708 17.9657 11.0031 17.8401 10.88L10.3867 3.42666C10.2936 3.3353 10.1756 3.27329 10.0475 3.24833C9.91944 3.22337 9.78685 3.23655 9.66618 3.28624C9.54551 3.33592 9.44208 3.41993 9.3687 3.52785C9.29533 3.63576 9.25524 3.76284 9.25341 3.89333V9.22666H4.00008C3.86959 9.22849 3.74252 9.26858 3.6346 9.34195C3.52668 9.41533 3.44267 9.51876 3.39299 9.63943C3.3433 9.76009 3.33012 9.89269 3.35508 10.0208C3.38004 10.1489 3.44205 10.2668 3.53341 10.36L10.9334 17.7867Z" fill="#FFCC00"/>
</svg>
