<svg width="59" height="54" viewBox="0 0 59 54" fill="none" xmlns="http://www.w3.org/2000/svg">
<path d="M29.0731 31.9324C29.5399 32.3804 30.2947 32.3785 30.7615 31.9304L40.0158 23.0051C40.5223 22.5188 40.9215 21.9678 41.2175 21.3805L29.9173 19.4757L18.5972 21.3824C18.8951 21.9869 19.3023 22.5532 19.8227 23.0527L29.0731 31.9324Z" fill="#FFCC00"/>
<path d="M40.0134 14.5486C37.5841 12.2167 33.6313 12.2167 31.202 14.5486L29.9169 15.828L28.6317 14.5944C26.2024 12.2625 22.2497 12.2625 19.8204 14.5944C17.9115 16.4268 17.5043 19.1629 18.5968 21.3823H41.2151C42.3354 19.1553 41.9362 16.3943 40.0134 14.5486Z" fill="#004FA3"/>
<path d="M42.9872 28.9259L42.0047 33.0482L33.2988 39.6177L33.3489 51.8226L39.9872 51.867L39.6146 43.0283C46.536 38.5194 49.9968 35.2159 49.9968 33.1179C49.9968 31.0198 49.9968 25.4849 49.9968 14.4297" stroke="#004FA3" stroke-width="4" stroke-linecap="round" stroke-linejoin="round"/>
<path d="M16.9874 29.0043L18.0205 33.1179L26.3879 39.8006L26.7469 52.0001L19.9874 51.867L20.1903 43.4388C13.3967 39.3683 10 36.2687 10 34.1397C10 32.0109 10 26.125 10 14.3989" stroke="#004FA3" stroke-width="4" stroke-linecap="round" stroke-linejoin="round"/>
</svg>
