<svg width="26" height="26" viewBox="0 0 26 26" fill="none" xmlns="http://www.w3.org/2000/svg">
<g clip-path="url(#clip0_107_3143)">
<path d="M3.25 3.25V25.1875C3.2499 25.3286 3.28654 25.4673 3.35631 25.5899C3.42609 25.7125 3.5266 25.8149 3.64795 25.8869C3.7693 25.9589 3.9073 25.998 4.04837 26.0005C4.18944 26.0029 4.32872 25.9686 4.4525 25.9009L13 21.2371L21.5475 25.9009C21.6713 25.9686 21.8106 26.0029 21.9516 26.0005C22.0927 25.998 22.2307 25.9589 22.3521 25.8869C22.4734 25.8149 22.5739 25.7125 22.6437 25.5899C22.7135 25.4673 22.7501 25.3286 22.75 25.1875V3.25C22.75 2.38805 22.4076 1.5614 21.7981 0.951903C21.1886 0.34241 20.362 0 19.5 0L6.5 0C5.63805 0 4.8114 0.34241 4.2019 0.951903C3.59241 1.5614 3.25 2.38805 3.25 3.25Z" fill="#373C3F"/>
</g>
<defs>
<clipPath id="clip0_107_3143">
<rect width="26" height="26" fill="white"/>
</clipPath>
</defs>
</svg>
