<svg width="126" height="126" viewBox="0 0 126 126" fill="none" xmlns="http://www.w3.org/2000/svg">
<rect width="126" height="126" rx="10" fill="#FFDE5C"/>
<path d="M36.7527 99.2305H34.8869C34.8337 98.9245 34.7356 98.6535 34.5926 98.4174C34.4496 98.1779 34.2717 97.975 34.0588 97.8088C33.846 97.6425 33.6032 97.5178 33.3305 97.4346C33.0611 97.3482 32.7701 97.3049 32.4575 97.3049C31.9021 97.3049 31.4099 97.4446 30.9809 97.724C30.5519 98 30.216 98.4057 29.9732 98.9412C29.7304 99.4733 29.609 100.123 29.609 100.892C29.609 101.673 29.7304 102.332 29.9732 102.867C30.2193 103.399 30.5552 103.802 30.9809 104.074C31.4099 104.344 31.9004 104.478 32.4525 104.478C32.7585 104.478 33.0445 104.439 33.3105 104.359C33.5799 104.276 33.821 104.154 34.0339 103.995C34.2501 103.835 34.4313 103.639 34.5776 103.406C34.7273 103.173 34.8304 102.907 34.8869 102.608L36.7527 102.618C36.6828 103.103 36.5315 103.559 36.2987 103.985C36.0692 104.41 35.7683 104.786 35.3958 105.112C35.0233 105.435 34.5876 105.687 34.0888 105.87C33.5899 106.05 33.0362 106.14 32.4276 106.14C31.5296 106.14 30.7281 105.932 30.0231 105.516C29.318 105.1 28.7626 104.5 28.3569 103.715C27.9512 102.93 27.7483 101.989 27.7483 100.892C27.7483 99.7909 27.9528 98.8497 28.3619 98.0682C28.7709 97.2833 29.328 96.683 30.0331 96.2673C30.7381 95.8516 31.5363 95.6437 32.4276 95.6437C32.9963 95.6437 33.5251 95.7235 34.0139 95.8832C34.5028 96.0428 34.9385 96.2773 35.3209 96.5866C35.7034 96.8925 36.0177 97.2683 36.2638 97.714C36.5132 98.1563 36.6762 98.6618 36.7527 99.2305ZM40.273 106.155C39.7874 106.155 39.3501 106.068 38.961 105.895C38.5752 105.719 38.2692 105.46 38.0431 105.117C37.8203 104.774 37.7088 104.352 37.7088 103.85C37.7088 103.418 37.7887 103.06 37.9483 102.777C38.1079 102.495 38.3258 102.269 38.6018 102.099C38.8778 101.929 39.1888 101.801 39.5347 101.715C39.8839 101.625 40.2447 101.56 40.6172 101.52C41.0662 101.474 41.4303 101.432 41.7097 101.396C41.989 101.356 42.1919 101.296 42.3183 101.216C42.448 101.133 42.5128 101.005 42.5128 100.832V100.802C42.5128 100.426 42.4014 100.135 42.1786 99.9289C41.9558 99.7227 41.6349 99.6196 41.2158 99.6196C40.7735 99.6196 40.4226 99.7161 40.1632 99.909C39.9071 100.102 39.7342 100.33 39.6444 100.592L37.9583 100.353C38.0913 99.8873 38.3108 99.4982 38.6168 99.1856C38.9227 98.8697 39.2969 98.6335 39.7392 98.4772C40.1815 98.3176 40.6704 98.2378 41.2058 98.2378C41.575 98.2378 41.9425 98.281 42.3083 98.3675C42.6741 98.454 43.0084 98.597 43.311 98.7965C43.6137 98.9927 43.8564 99.2604 44.0393 99.5997C44.2256 99.9389 44.3187 100.363 44.3187 100.872V106H42.5827V104.947H42.5228C42.4131 105.16 42.2584 105.36 42.0589 105.546C41.8627 105.729 41.6149 105.877 41.3156 105.99C41.0196 106.1 40.6721 106.155 40.273 106.155ZM40.7419 104.828C41.1044 104.828 41.4187 104.756 41.6847 104.613C41.9508 104.467 42.1553 104.274 42.2983 104.035C42.4447 103.795 42.5178 103.534 42.5178 103.251V102.348C42.4613 102.395 42.3649 102.438 42.2285 102.478C42.0955 102.518 41.9458 102.553 41.7795 102.583C41.6132 102.613 41.4486 102.639 41.2857 102.663C41.1227 102.686 40.9814 102.706 40.8616 102.723C40.5922 102.759 40.3511 102.819 40.1383 102.902C39.9254 102.985 39.7575 103.102 39.6344 103.251C39.5114 103.398 39.4499 103.587 39.4499 103.82C39.4499 104.153 39.5712 104.404 39.814 104.573C40.0568 104.743 40.3661 104.828 40.7419 104.828ZM45.8349 106V98.3376H47.5859V99.6146H47.6657C47.8053 99.1723 48.0448 98.8314 48.384 98.592C48.7266 98.3492 49.1173 98.2278 49.5563 98.2278C49.6561 98.2278 49.7675 98.2328 49.8906 98.2428C50.017 98.2494 50.1217 98.2611 50.2049 98.2777V99.9389C50.1284 99.9123 50.007 99.889 49.8407 99.869C49.6777 99.8458 49.5198 99.8341 49.3668 99.8341C49.0375 99.8341 48.7415 99.9056 48.4788 100.049C48.2194 100.188 48.0149 100.383 47.8652 100.632C47.7156 100.882 47.6407 101.169 47.6407 101.495V106H45.8349ZM54.1816 106.15C53.4134 106.15 52.7499 105.99 52.1912 105.671C51.6358 105.348 51.2084 104.893 50.9091 104.304C50.6098 103.712 50.4601 103.015 50.4601 102.214C50.4601 101.425 50.6098 100.734 50.9091 100.138C51.2118 99.5398 51.6341 99.0742 52.1762 98.7416C52.7183 98.4057 53.3552 98.2378 54.0868 98.2378C54.5591 98.2378 55.0047 98.3143 55.4238 98.4673C55.8461 98.6169 56.2186 98.8497 56.5412 99.1657C56.8671 99.4816 57.1232 99.884 57.3095 100.373C57.4957 100.858 57.5888 101.437 57.5888 102.109V102.663H51.3082V101.445H55.8578C55.8545 101.1 55.7796 100.792 55.6333 100.523C55.487 100.25 55.2824 100.035 55.0197 99.879C54.7603 99.7227 54.4577 99.6446 54.1118 99.6446C53.7426 99.6446 53.4184 99.7344 53.139 99.9139C52.8596 100.09 52.6418 100.323 52.4855 100.612C52.3325 100.898 52.2544 101.213 52.251 101.555V102.618C52.251 103.063 52.3325 103.446 52.4955 103.765C52.6584 104.081 52.8863 104.324 53.1789 104.493C53.4716 104.66 53.8141 104.743 54.2066 104.743C54.4693 104.743 54.7071 104.706 54.9199 104.633C55.1328 104.557 55.3174 104.445 55.4737 104.299C55.63 104.153 55.748 103.971 55.8278 103.755L57.514 103.945C57.4076 104.39 57.2047 104.779 56.9054 105.112C56.6094 105.441 56.2303 105.697 55.768 105.88C55.3057 106.06 54.7769 106.15 54.1816 106.15ZM62.6431 98.3376V99.7344H58.2382V98.3376H62.6431ZM59.3257 96.5018H61.1316V103.695C61.1316 103.938 61.1682 104.124 61.2413 104.254C61.3178 104.38 61.4176 104.467 61.5406 104.513C61.6637 104.56 61.8 104.583 61.9497 104.583C62.0628 104.583 62.1659 104.575 62.259 104.558C62.3554 104.542 62.4286 104.527 62.4785 104.513L62.7828 105.925C62.6864 105.958 62.5483 105.995 62.3687 106.035C62.1925 106.075 61.9763 106.098 61.7202 106.105C61.2679 106.118 60.8605 106.05 60.498 105.9C60.1355 105.747 59.8479 105.511 59.635 105.192C59.4255 104.873 59.3224 104.473 59.3257 103.995V96.5018ZM66.0587 106.155C65.5731 106.155 65.1358 106.068 64.7467 105.895C64.3609 105.719 64.0549 105.46 63.8288 105.117C63.606 104.774 63.4945 104.352 63.4945 103.85C63.4945 103.418 63.5744 103.06 63.734 102.777C63.8936 102.495 64.1115 102.269 64.3875 102.099C64.6635 101.929 64.9745 101.801 65.3204 101.715C65.6696 101.625 66.0304 101.56 66.4029 101.52C66.8519 101.474 67.216 101.432 67.4954 101.396C67.7747 101.356 67.9776 101.296 68.104 101.216C68.2337 101.133 68.2985 101.005 68.2985 100.832V100.802C68.2985 100.426 68.1871 100.135 67.9643 99.9289C67.7415 99.7227 67.4206 99.6196 67.0015 99.6196C66.5592 99.6196 66.2083 99.7161 65.9489 99.909C65.6928 100.102 65.5199 100.33 65.4301 100.592L63.744 100.353C63.877 99.8873 64.0965 99.4982 64.4025 99.1856C64.7084 98.8697 65.0826 98.6335 65.5249 98.4772C65.9672 98.3176 66.4561 98.2378 66.9915 98.2378C67.3607 98.2378 67.7282 98.281 68.094 98.3675C68.4598 98.454 68.7941 98.597 69.0967 98.7965C69.3994 98.9927 69.6421 99.2604 69.825 99.5997C70.0113 99.9389 70.1044 100.363 70.1044 100.872V106H68.3684V104.947H68.3085C68.1988 105.16 68.0441 105.36 67.8446 105.546C67.6484 105.729 67.4006 105.877 67.1013 105.99C66.8053 106.1 66.4578 106.155 66.0587 106.155ZM66.5276 104.828C66.8901 104.828 67.2044 104.756 67.4704 104.613C67.7365 104.467 67.941 104.274 68.084 104.035C68.2304 103.795 68.3035 103.534 68.3035 103.251V102.348C68.247 102.395 68.1505 102.438 68.0142 102.478C67.8812 102.518 67.7315 102.553 67.5652 102.583C67.3989 102.613 67.2343 102.639 67.0714 102.663C66.9084 102.686 66.767 102.706 66.6473 102.723C66.3779 102.759 66.1368 102.819 65.924 102.902C65.7111 102.985 65.5432 103.102 65.4201 103.251C65.2971 103.398 65.2356 103.587 65.2356 103.82C65.2356 104.153 65.3569 104.404 65.5997 104.573C65.8425 104.743 66.1518 104.828 66.5276 104.828ZM73.2668 103.596L73.2618 101.416H73.5511L76.3048 98.3376H78.415L75.0278 102.109H74.6536L73.2668 103.596ZM71.6206 106V95.7834H73.4264V106H71.6206ZM76.4295 106L73.9353 102.513L75.1525 101.241L78.5896 106H76.4295ZM79.3188 106V98.3376H81.1247V106H79.3188ZM80.2267 97.25C79.9407 97.25 79.6946 97.1553 79.4884 96.9657C79.2822 96.7728 79.1791 96.5417 79.1791 96.2723C79.1791 95.9996 79.2822 95.7684 79.4884 95.5789C79.6946 95.386 79.9407 95.2895 80.2267 95.2895C80.5161 95.2895 80.7622 95.386 80.965 95.5789C81.1712 95.7684 81.2743 95.9996 81.2743 96.2723C81.2743 96.5417 81.1712 96.7728 80.965 96.9657C80.7622 97.1553 80.5161 97.25 80.2267 97.25ZM84.4878 101.51V106H82.682V98.3376H84.408V99.6396H84.4978C84.6741 99.2106 84.9551 98.8697 85.3409 98.6169C85.73 98.3642 86.2106 98.2378 86.7826 98.2378C87.3114 98.2378 87.772 98.3509 88.1644 98.577C88.5602 98.8032 88.8661 99.1307 89.0823 99.5598C89.3018 99.9888 89.4099 100.509 89.4066 101.121V106H87.6007V101.401C87.6007 100.888 87.4677 100.488 87.2016 100.198C86.9389 99.909 86.5747 99.7643 86.1091 99.7643C85.7932 99.7643 85.5122 99.8341 85.2661 99.9738C85.0233 100.11 84.8321 100.308 84.6924 100.567C84.556 100.827 84.4878 101.141 84.4878 101.51ZM94.275 109.033C93.6265 109.033 93.0695 108.945 92.6039 108.769C92.1383 108.596 91.7641 108.363 91.4814 108.07C91.1988 107.778 91.0025 107.453 90.8928 107.097L92.5191 106.703C92.5922 106.853 92.6987 107.001 92.8383 107.147C92.978 107.297 93.1659 107.42 93.402 107.517C93.6415 107.616 93.9425 107.666 94.305 107.666C94.8171 107.666 95.2412 107.541 95.5771 107.292C95.913 107.046 96.0809 106.64 96.0809 106.075V104.623H95.9911C95.898 104.809 95.7616 105.001 95.5821 105.197C95.4058 105.393 95.1713 105.558 94.8787 105.691C94.5893 105.824 94.2252 105.89 93.7862 105.89C93.1975 105.89 92.6637 105.752 92.1848 105.476C91.7093 105.197 91.3301 104.781 91.0474 104.229C90.7681 103.674 90.6284 102.979 90.6284 102.144C90.6284 101.302 90.7681 100.592 91.0474 100.014C91.3301 99.4317 91.7109 98.9911 92.1898 98.6917C92.6687 98.3891 93.2025 98.2378 93.7912 98.2378C94.2401 98.2378 94.6093 98.3143 94.8986 98.4673C95.1913 98.6169 95.4241 98.7982 95.597 99.011C95.77 99.2205 95.9013 99.4184 95.9911 99.6046H96.0909V98.3376H97.8718V106.125C97.8718 106.78 97.7155 107.322 97.4029 107.751C97.0903 108.18 96.6629 108.501 96.1208 108.714C95.5787 108.927 94.9635 109.033 94.275 109.033ZM94.29 104.473C94.6725 104.473 94.9984 104.38 95.2678 104.194C95.5372 104.008 95.7417 103.74 95.8814 103.391C96.021 103.042 96.0909 102.623 96.0909 102.134C96.0909 101.652 96.021 101.229 95.8814 100.867C95.745 100.504 95.5421 100.223 95.2728 100.024C95.0067 99.8208 94.6791 99.7194 94.29 99.7194C93.8876 99.7194 93.5517 99.8241 93.2823 100.034C93.0129 100.243 92.8101 100.531 92.6737 100.897C92.5374 101.259 92.4692 101.672 92.4692 102.134C92.4692 102.603 92.5374 103.014 92.6737 103.366C92.8134 103.715 93.0179 103.988 93.2873 104.184C93.56 104.377 93.8943 104.473 94.29 104.473Z" fill="#004FA3"/>
<path d="M80.8889 53.5555H66.3529L57.8344 43.3333H45.1111C43.756 43.3346 42.4567 43.8735 41.4985 44.8318C40.5403 45.79 40.0014 47.0892 40 48.4444V58.6666C40.0009 59.57 40.3602 60.4362 40.999 61.075C41.6378 61.7138 42.504 62.0731 43.4074 62.074V73.9999C43.4083 74.9033 43.7676 75.7695 44.4064 76.4083C45.0452 77.0471 45.9114 77.4064 46.8148 77.4073H53.6296C54.5331 77.4064 55.3992 77.0471 56.038 76.4083C56.6769 75.7695 57.0361 74.9033 57.037 73.9999V62.074H53.6296V73.9999H46.8148V58.6666H43.4074V48.4444C43.4074 47.9925 43.5869 47.5592 43.9064 47.2397C44.2259 46.9202 44.6593 46.7407 45.1111 46.7407H56.2397L64.7582 56.9629H80.8889C81.3407 56.9629 81.7741 57.1424 82.0936 57.4619C82.4131 57.7814 82.5926 58.2147 82.5926 58.6666V63.7777H79.1852V73.9999H74.0741V63.7777H70.6667V73.9999C70.6676 74.9033 71.0269 75.7695 71.6657 76.4083C72.3045 77.0471 73.1707 77.4064 74.0741 77.4073H79.1852C80.0886 77.4064 80.9548 77.0471 81.5936 76.4083C82.2324 75.7695 82.5917 74.9033 82.5926 73.9999V67.1851C83.496 67.1842 84.3622 66.8249 85.001 66.1861C85.6398 65.5473 85.9991 64.6811 86 63.7777V58.6666C85.9986 57.3114 85.4597 56.0122 84.5015 55.054C83.5433 54.0958 82.244 53.5568 80.8889 53.5555Z" fill="#004FA3"/>
<path d="M76.6296 51.8519C75.4502 51.8519 74.2973 51.5021 73.3167 50.8469C72.3361 50.1917 71.5718 49.2604 71.1205 48.1708C70.6692 47.0812 70.5511 45.8823 70.7812 44.7256C71.0113 43.5689 71.5792 42.5064 72.4131 41.6724C73.2471 40.8385 74.3096 40.2706 75.4663 40.0405C76.623 39.8104 77.8219 39.9285 78.9115 40.3798C80.0011 40.8312 80.9324 41.5954 81.5876 42.576C82.2428 43.5567 82.5925 44.7095 82.5925 45.8889C82.5907 47.4698 81.9619 48.9855 80.844 50.1034C79.7262 51.2212 78.2105 51.8501 76.6296 51.8519ZM76.6296 43.3333C76.1241 43.3333 75.63 43.4832 75.2098 43.764C74.7895 44.0448 74.462 44.444 74.2685 44.9109C74.0751 45.3779 74.0245 45.8917 74.1231 46.3875C74.2217 46.8832 74.4651 47.3385 74.8225 47.6959C75.1799 48.0533 75.6353 48.2967 76.131 48.3953C76.6267 48.4939 77.1406 48.4433 77.6075 48.2499C78.0745 48.0565 78.4736 47.7289 78.7544 47.3087C79.0352 46.8884 79.1851 46.3943 79.1851 45.8889C79.1842 45.2114 78.9147 44.5619 78.4356 44.0828C77.9566 43.6038 77.3071 43.3342 76.6296 43.3333ZM50.2222 41.6296C48.8743 41.6296 47.5567 41.2299 46.4361 40.4811C45.3154 39.7323 44.4419 38.668 43.9261 37.4227C43.4103 36.1775 43.2753 34.8073 43.5383 33.4853C43.8012 32.1634 44.4503 30.9491 45.4034 29.996C46.3564 29.0429 47.5707 28.3939 48.8927 28.1309C50.2146 27.868 51.5848 28.003 52.8301 28.5187C54.0753 29.0345 55.1397 29.908 55.8885 31.0287C56.6373 32.1494 57.037 33.467 57.037 34.8148C57.0352 36.6217 56.3166 38.354 55.039 39.6316C53.7613 40.9093 52.029 41.6278 50.2222 41.6296V41.6296ZM50.2222 31.4074C49.5482 31.4074 48.8895 31.6073 48.3291 31.9817C47.7688 32.3561 47.332 32.8882 47.0741 33.5109C46.8162 34.1335 46.7488 34.8186 46.8802 35.4796C47.0117 36.1405 47.3362 36.7477 47.8128 37.2242C48.2893 37.7008 48.8964 38.0253 49.5574 38.1568C50.2184 38.2882 50.9035 38.2208 51.5261 37.9629C52.1487 37.705 52.6809 37.2682 53.0553 36.7079C53.4297 36.1475 53.6296 35.4887 53.6296 34.8148C53.6287 33.9114 53.2694 33.0452 52.6306 32.4064C51.9918 31.7676 51.1256 31.4083 50.2222 31.4074V31.4074Z" fill="#004FA3"/>
</svg>
