<svg width="46" height="50" viewBox="0 0 46 50" fill="none" xmlns="http://www.w3.org/2000/svg">
<path d="M40.8889 25.5556H26.3529L17.8344 15.3334H5.11111C3.75598 15.3347 2.45673 15.8737 1.4985 16.8319C0.540278 17.7901 0.00135311 19.0893 0 20.4445V30.6667C0.000902071 31.5701 0.360185 32.4363 0.999003 33.0751C1.63782 33.7139 2.50398 34.0732 3.40741 34.0741V46C3.40831 46.9035 3.76759 47.7696 4.40641 48.4084C5.04523 49.0473 5.91139 49.4065 6.81482 49.4074H13.6296C14.5331 49.4065 15.3992 49.0473 16.038 48.4084C16.6769 47.7696 17.0361 46.9035 17.037 46V34.0741H13.6296V46H6.81482V30.6667H3.40741V20.4445C3.40741 19.9926 3.5869 19.5593 3.90641 19.2398C4.22592 18.9203 4.65926 18.7408 5.11111 18.7408H16.2397L24.7582 28.963H40.8889C41.3407 28.963 41.7741 29.1425 42.0936 29.462C42.4131 29.7815 42.5926 30.2149 42.5926 30.6667V35.7778H39.1852V46H34.0741V35.7778H30.6667V46C30.6676 46.9035 31.0269 47.7696 31.6657 48.4084C32.3045 49.0473 33.1707 49.4065 34.0741 49.4074H39.1852C40.0886 49.4065 40.9548 49.0473 41.5936 48.4084C42.2324 47.7696 42.5917 46.9035 42.5926 46V39.1852C43.496 39.1843 44.3622 38.825 45.001 38.1862C45.6398 37.5474 45.9991 36.6812 46 35.7778V30.6667C45.9986 29.3116 45.4597 28.0123 44.5015 27.0541C43.5433 26.0959 42.244 25.5569 40.8889 25.5556Z" fill="#004FA3"/>
<path d="M36.6297 23.8519C35.4503 23.8519 34.2975 23.5021 33.3168 22.8469C32.3362 22.1917 31.572 21.2604 31.1206 20.1708C30.6693 19.0812 30.5512 17.8823 30.7813 16.7256C31.0114 15.5689 31.5793 14.5064 32.4132 13.6724C33.2472 12.8385 34.3097 12.2706 35.4664 12.0405C36.6231 11.8104 37.822 11.9285 38.9116 12.3798C40.0012 12.8312 40.9325 13.5954 41.5877 14.576C42.2429 15.5567 42.5927 16.7095 42.5927 17.8889C42.5909 19.4698 41.962 20.9855 40.8442 22.1034C39.7263 23.2212 38.2106 23.8501 36.6297 23.8519ZM36.6297 15.3333C36.1243 15.3333 35.6302 15.4832 35.2099 15.764C34.7896 16.0448 34.4621 16.444 34.2687 16.9109C34.0752 17.3779 34.0246 17.8917 34.1232 18.3875C34.2219 18.8832 34.4652 19.3385 34.8226 19.6959C35.18 20.0533 35.6354 20.2967 36.1311 20.3953C36.6269 20.4939 37.1407 20.4433 37.6077 20.2499C38.0746 20.0565 38.4738 19.7289 38.7546 19.3087C39.0354 18.8884 39.1853 18.3943 39.1853 17.8889C39.1843 17.2114 38.9148 16.5619 38.4357 16.0828C37.9567 15.6038 37.3072 15.3342 36.6297 15.3333ZM10.2223 13.6296C8.87445 13.6296 7.55687 13.2299 6.43618 12.4811C5.31549 11.7323 4.44202 10.668 3.92622 9.42273C3.41042 8.17749 3.27547 6.80726 3.53842 5.48531C3.80137 4.16337 4.45042 2.94909 5.40349 1.99602C6.35656 1.04295 7.57084 0.393899 8.89278 0.130948C10.2147 -0.132003 11.585 0.00295273 12.8302 0.51875C14.0755 1.03455 15.1398 1.90802 15.8886 3.02871C16.6374 4.1494 17.0371 5.46697 17.0371 6.81482C17.0353 8.62167 16.3167 10.354 15.0391 11.6316C13.7615 12.9093 12.0291 13.6278 10.2223 13.6296V13.6296ZM10.2223 3.40741C9.54837 3.40741 8.88958 3.60725 8.32923 3.98166C7.76889 4.35607 7.33215 4.88824 7.07425 5.51086C6.81636 6.13348 6.74888 6.8186 6.88035 7.47957C7.01183 8.14054 7.33635 8.74768 7.81289 9.22422C8.28942 9.70075 8.89656 10.0253 9.55754 10.1568C10.2185 10.2882 10.9036 10.2208 11.5262 9.96285C12.1489 9.70495 12.681 9.26822 13.0554 8.70787C13.4299 8.14753 13.6297 7.48874 13.6297 6.81482C13.6288 5.91139 13.2695 5.04523 12.6307 4.40641C11.9919 3.7676 11.1257 3.40831 10.2223 3.40741V3.40741Z" fill="#004FA3"/>
</svg>
