<svg width="126" height="126" viewBox="0 0 126 126" fill="none" xmlns="http://www.w3.org/2000/svg">
<rect width="126" height="126" rx="10" fill="#FFDE5C"/>
<path d="M43.7527 99.2305H41.8869C41.8337 98.9245 41.7356 98.6535 41.5926 98.4174C41.4496 98.1779 41.2717 97.975 41.0588 97.8088C40.846 97.6425 40.6032 97.5178 40.3305 97.4346C40.0611 97.3482 39.7701 97.3049 39.4575 97.3049C38.9021 97.3049 38.4099 97.4446 37.9809 97.724C37.5519 98 37.216 98.4057 36.9732 98.9412C36.7304 99.4733 36.609 100.123 36.609 100.892C36.609 101.673 36.7304 102.332 36.9732 102.867C37.2193 103.399 37.5552 103.802 37.9809 104.074C38.4099 104.344 38.9004 104.478 39.4525 104.478C39.7585 104.478 40.0445 104.439 40.3105 104.359C40.5799 104.276 40.821 104.154 41.0339 103.995C41.2501 103.835 41.4313 103.639 41.5776 103.406C41.7273 103.173 41.8304 102.907 41.8869 102.608L43.7527 102.618C43.6828 103.103 43.5315 103.559 43.2987 103.985C43.0692 104.41 42.7683 104.786 42.3958 105.112C42.0233 105.435 41.5876 105.687 41.0888 105.87C40.5899 106.05 40.0362 106.14 39.4276 106.14C38.5296 106.14 37.7281 105.932 37.0231 105.516C36.318 105.1 35.7626 104.5 35.3569 103.715C34.9512 102.93 34.7483 101.989 34.7483 100.892C34.7483 99.7909 34.9528 98.8497 35.3619 98.0682C35.7709 97.2833 36.328 96.683 37.0331 96.2673C37.7381 95.8516 38.5363 95.6437 39.4276 95.6437C39.9963 95.6437 40.5251 95.7235 41.0139 95.8832C41.5028 96.0428 41.9385 96.2773 42.3209 96.5866C42.7034 96.8925 43.0177 97.2683 43.2638 97.714C43.5132 98.1563 43.6762 98.6618 43.7527 99.2305ZM46.8739 95.7834V106H45.068V95.7834H46.8739ZM51.8234 106.15C51.0552 106.15 50.3917 105.99 49.833 105.671C49.2776 105.348 48.8502 104.893 48.5509 104.304C48.2516 103.712 48.102 103.015 48.102 102.214C48.102 101.425 48.2516 100.734 48.5509 100.138C48.8536 99.5398 49.2759 99.0742 49.818 98.7416C50.3601 98.4057 50.997 98.2378 51.7286 98.2378C52.2009 98.2378 52.6465 98.3143 53.0656 98.4673C53.488 98.6169 53.8604 98.8497 54.183 99.1657C54.5089 99.4816 54.765 99.884 54.9513 100.373C55.1375 100.858 55.2306 101.437 55.2306 102.109V102.663H48.95V101.445H53.4996C53.4963 101.1 53.4214 100.792 53.2751 100.523C53.1288 100.25 52.9242 100.035 52.6615 99.879C52.4021 99.7227 52.0995 99.6446 51.7536 99.6446C51.3844 99.6446 51.0602 99.7344 50.7808 99.9139C50.5015 100.09 50.2836 100.323 50.1273 100.612C49.9743 100.898 49.8962 101.213 49.8929 101.555V102.618C49.8929 103.063 49.9743 103.446 50.1373 103.765C50.3003 104.081 50.5281 104.324 50.8207 104.493C51.1134 104.66 51.4559 104.743 51.8484 104.743C52.1111 104.743 52.3489 104.706 52.5617 104.633C52.7746 104.557 52.9592 104.445 53.1155 104.299C53.2718 104.153 53.3898 103.971 53.4697 103.755L55.1558 103.945C55.0494 104.39 54.8465 104.779 54.5472 105.112C54.2512 105.441 53.8721 105.697 53.4098 105.88C52.9475 106.06 52.4187 106.15 51.8234 106.15ZM58.6636 106.155C58.1781 106.155 57.7408 106.068 57.3516 105.895C56.9659 105.719 56.6599 105.46 56.4337 105.117C56.2109 104.774 56.0995 104.352 56.0995 103.85C56.0995 103.418 56.1793 103.06 56.339 102.777C56.4986 102.495 56.7164 102.269 56.9925 102.099C57.2685 101.929 57.5795 101.801 57.9253 101.715C58.2745 101.625 58.6354 101.56 59.0079 101.52C59.4568 101.474 59.821 101.432 60.1003 101.396C60.3797 101.356 60.5826 101.296 60.709 101.216C60.8387 101.133 60.9035 101.005 60.9035 100.832V100.802C60.9035 100.426 60.7921 100.135 60.5693 99.9289C60.3465 99.7227 60.0255 99.6196 59.6065 99.6196C59.1642 99.6196 58.8133 99.7161 58.5539 99.909C58.2978 100.102 58.1249 100.33 58.0351 100.592L56.3489 100.353C56.482 99.8873 56.7015 99.4982 57.0074 99.1856C57.3134 98.8697 57.6875 98.6335 58.1299 98.4772C58.5722 98.3176 59.0611 98.2378 59.5965 98.2378C59.9657 98.2378 60.3331 98.281 60.699 98.3675C61.0648 98.454 61.399 98.597 61.7017 98.7965C62.0043 98.9927 62.2471 99.2604 62.43 99.5997C62.6163 99.9389 62.7094 100.363 62.7094 100.872V106H60.9733V104.947H60.9135C60.8037 105.16 60.6491 105.36 60.4495 105.546C60.2533 105.729 60.0056 105.877 59.7063 105.99C59.4103 106.1 59.0627 106.155 58.6636 106.155ZM59.1326 104.828C59.4951 104.828 59.8093 104.756 60.0754 104.613C60.3415 104.467 60.546 104.274 60.689 104.035C60.8353 103.795 60.9085 103.534 60.9085 103.251V102.348C60.852 102.395 60.7555 102.438 60.6192 102.478C60.4861 102.518 60.3365 102.553 60.1702 102.583C60.0039 102.613 59.8393 102.639 59.6763 102.663C59.5134 102.686 59.372 102.706 59.2523 102.723C58.9829 102.759 58.7418 102.819 58.5289 102.902C58.3161 102.985 58.1482 103.102 58.0251 103.251C57.9021 103.398 57.8405 103.587 57.8405 103.82C57.8405 104.153 57.9619 104.404 58.2047 104.573C58.4475 104.743 58.7568 104.828 59.1326 104.828ZM66.0314 101.51V106H64.2255V98.3376H65.9516V99.6396H66.0414C66.2176 99.2106 66.4987 98.8697 66.8844 98.6169C67.2735 98.3642 67.7541 98.2378 68.3261 98.2378C68.8549 98.2378 69.3155 98.3509 69.708 98.577C70.1037 98.8032 70.4097 99.1307 70.6259 99.5598C70.8454 99.9888 70.9534 100.509 70.9501 101.121V106H69.1443V101.401C69.1443 100.888 69.0112 100.488 68.7452 100.198C68.4824 99.909 68.1183 99.7643 67.6527 99.7643C67.3367 99.7643 67.0557 99.8341 66.8096 99.9738C66.5668 100.11 66.3756 100.308 66.2359 100.567C66.0996 100.827 66.0314 101.141 66.0314 101.51ZM72.4862 106V98.3376H74.2921V106H72.4862ZM73.3942 97.25C73.1081 97.25 72.862 97.1553 72.6558 96.9657C72.4496 96.7728 72.3466 96.5417 72.3466 96.2723C72.3466 95.9996 72.4496 95.7684 72.6558 95.5789C72.862 95.386 73.1081 95.2895 73.3942 95.2895C73.6835 95.2895 73.9296 95.386 74.1325 95.5789C74.3387 95.7684 74.4418 95.9996 74.4418 96.2723C74.4418 96.5417 74.3387 96.7728 74.1325 96.9657C73.9296 97.1553 73.6835 97.25 73.3942 97.25ZM77.6553 101.51V106H75.8494V98.3376H77.5755V99.6396H77.6652C77.8415 99.2106 78.1225 98.8697 78.5083 98.6169C78.8974 98.3642 79.378 98.2378 79.95 98.2378C80.4788 98.2378 80.9394 98.3509 81.3318 98.577C81.7276 98.8032 82.0336 99.1307 82.2497 99.5598C82.4692 99.9888 82.5773 100.509 82.574 101.121V106H80.7681V101.401C80.7681 100.888 80.6351 100.488 80.3691 100.198C80.1063 99.909 79.7422 99.7643 79.2766 99.7643C78.9606 99.7643 78.6796 99.8341 78.4335 99.9738C78.1907 100.11 77.9995 100.308 77.8598 100.567C77.7234 100.827 77.6553 101.141 77.6553 101.51ZM87.4425 109.033C86.794 109.033 86.2369 108.945 85.7713 108.769C85.3057 108.596 84.9316 108.363 84.6489 108.07C84.3662 107.778 84.17 107.453 84.0602 107.097L85.6865 106.703C85.7597 106.853 85.8661 107.001 86.0058 107.147C86.1454 107.297 86.3334 107.42 86.5695 107.517C86.8089 107.616 87.1099 107.666 87.4724 107.666C87.9846 107.666 88.4086 107.541 88.7445 107.292C89.0804 107.046 89.2483 106.64 89.2483 106.075V104.623H89.1585C89.0654 104.809 88.9291 105.001 88.7495 105.197C88.5732 105.393 88.3388 105.558 88.0461 105.691C87.7568 105.824 87.3926 105.89 86.9536 105.89C86.3649 105.89 85.8312 105.752 85.3523 105.476C84.8767 105.197 84.4976 104.781 84.2149 104.229C83.9355 103.674 83.7958 102.979 83.7958 102.144C83.7958 101.302 83.9355 100.592 84.2149 100.014C84.4976 99.4317 84.8784 98.9911 85.3573 98.6917C85.8362 98.3891 86.3699 98.2378 86.9586 98.2378C87.4076 98.2378 87.7767 98.3143 88.066 98.4673C88.3587 98.6169 88.5915 98.7982 88.7644 99.011C88.9374 99.2205 89.0688 99.4184 89.1585 99.6046H89.2583V98.3376H91.0392V106.125C91.0392 106.78 90.8829 107.322 90.5703 107.751C90.2577 108.18 89.8303 108.501 89.2883 108.714C88.7462 108.927 88.1309 109.033 87.4425 109.033ZM87.4574 104.473C87.8399 104.473 88.1658 104.38 88.4352 104.194C88.7046 104.008 88.9091 103.74 89.0488 103.391C89.1885 103.042 89.2583 102.623 89.2583 102.134C89.2583 101.652 89.1885 101.229 89.0488 100.867C88.9124 100.504 88.7096 100.223 88.4402 100.024C88.1741 99.8208 87.8466 99.7194 87.4574 99.7194C87.055 99.7194 86.7191 99.8241 86.4498 100.034C86.1804 100.243 85.9775 100.531 85.8411 100.897C85.7048 101.259 85.6366 101.672 85.6366 102.134C85.6366 102.603 85.7048 103.014 85.8411 103.366C85.9808 103.715 86.1854 103.988 86.4547 104.184C86.7274 104.377 87.0617 104.473 87.4574 104.473Z" fill="#004FA3"/>
<path fill-rule="evenodd" clip-rule="evenodd" d="M60.4885 52.2178L44.9283 22.9503C44.8389 22.7822 44.7835 22.5981 44.7652 22.4085C44.747 22.219 44.7662 22.0277 44.8219 21.8456C44.9343 21.4779 45.1883 21.1698 45.5278 20.9893C45.8673 20.8088 46.2647 20.7705 46.6325 20.8829C46.8145 20.9386 46.9839 21.0296 47.1308 21.1507C47.2777 21.2718 47.3994 21.4207 47.4888 21.5888L63.0505 50.8563L65.2572 49.6819C65.9298 49.3243 66.6662 49.1028 67.4244 49.0298C68.1826 48.9569 68.9478 49.0341 69.6762 49.2569C70.4046 49.4797 71.0819 49.8439 71.6696 50.3285C72.2573 50.8132 72.7437 51.4088 73.1011 52.0815L74.0406 53.8474L83.9999 68.4261L63.3404 79.4105L56.8232 63.0006L55.8851 61.2346C55.5275 60.5621 55.3058 59.8258 55.2328 59.0676C55.1598 58.3095 55.2368 57.5444 55.4595 56.816C55.6822 56.0876 56.0462 55.4102 56.5307 54.8225C57.0152 54.2348 57.6107 53.7483 58.2832 53.3907L60.4899 52.2178H60.4885ZM59.6432 55.9512L66.6172 52.2439C66.9534 52.0651 67.3216 51.9542 67.7007 51.9177C68.0798 51.8812 68.4623 51.9197 68.8265 52.0311C69.1907 52.1424 69.5294 52.3244 69.8233 52.5667C70.1171 52.8089 70.3604 53.1067 70.5391 53.4429L71.4787 55.2074L59.3822 61.6392L58.4441 59.8732C58.2653 59.5369 58.1545 59.1688 58.118 58.7897C58.0815 58.4106 58.12 58.0281 58.2313 57.6639C58.3427 57.2997 58.5247 56.961 58.7669 56.6671C59.0092 56.3733 59.3069 56.13 59.6432 55.9512V55.9512ZM60.8466 65.2769L64.8382 75.329L67.4973 73.9154L64.3583 67.8041L66.9391 66.4789L70.0592 72.5539L79.7764 67.3865L73.6752 58.4552L60.8466 65.2769V65.2769Z" fill="#004FA3"/>
<path d="M52.2213 66.1788C52.3676 66.0569 52.5365 65.9651 52.7183 65.9085C52.9002 65.8519 53.0913 65.8317 53.281 65.849C53.4706 65.8663 53.655 65.9208 53.8236 66.0093C53.9921 66.0979 54.1416 66.2188 54.2635 66.3651C54.3853 66.5114 54.4772 66.6803 54.5338 66.8622C54.5903 67.044 54.6106 67.2352 54.5933 67.4248C54.576 67.6144 54.5215 67.7988 54.4329 67.9674C54.3444 68.1359 54.2235 68.2854 54.0772 68.4073L54.0757 68.4087L54.0728 68.4116L54.0685 68.4145L54.054 68.4261L54.0105 68.4624L53.8611 68.5769C53.735 68.6712 53.5567 68.8002 53.329 68.9539C52.8723 69.2584 52.2126 69.6556 51.3804 70.0529C49.2169 71.0909 46.8495 71.6342 44.4499 71.6434C44.0654 71.6434 43.6966 71.4907 43.4247 71.2188C43.1528 70.9469 43 70.5781 43 70.1936C43 69.809 43.1528 69.4402 43.4247 69.1683C43.6966 68.8964 44.0654 68.7437 44.4499 68.7437C46.4181 68.7343 48.3595 68.287 50.1335 67.4344C50.6827 67.1742 51.2128 66.8753 51.7196 66.5398C51.8865 66.4296 52.0495 66.3135 52.2083 66.1919L52.2228 66.1774V66.1788H52.2213ZM56.8537 75.7495C57.1736 75.5361 57.3957 75.2043 57.471 74.8272C57.5463 74.4501 57.4687 74.0585 57.2553 73.7385C57.0419 73.4186 56.7101 73.1965 56.333 73.1212C55.9559 73.0459 55.5643 73.1235 55.2443 73.3369L55.2414 73.3398L55.2124 73.3572L55.0877 73.437C54.3329 73.8974 53.5493 74.3091 52.7418 74.6694C51.1904 75.3566 49.2331 75.9931 47.3497 75.9931C46.9651 75.9931 46.5964 76.1459 46.3244 76.4178C46.0525 76.6897 45.8998 77.0585 45.8998 77.443C45.8998 77.8275 46.0525 78.1963 46.3244 78.4682C46.5964 78.7401 46.9651 78.8929 47.3497 78.8929C49.8174 78.8929 52.2068 78.0795 53.9191 77.3183C54.8492 76.9041 55.7515 76.4299 56.6203 75.8989C56.6756 75.8645 56.7307 75.8297 56.7856 75.7945L56.832 75.764L56.8465 75.7553L56.8537 75.7495V75.7495Z" fill="#004FA3"/>
</svg>
