<svg width="41" height="59" viewBox="0 0 41 59" fill="none" xmlns="http://www.w3.org/2000/svg">
<path fill-rule="evenodd" clip-rule="evenodd" d="M17.4885 31.3982L1.92827 2.1307C1.83887 1.96258 1.78347 1.77849 1.76522 1.58895C1.74697 1.39942 1.76623 1.20814 1.8219 1.02605C1.93434 0.658293 2.18825 0.350265 2.5278 0.169726C2.86734 -0.0108133 3.2647 -0.0490745 3.63245 0.0633591C3.81455 0.119031 3.98389 0.210023 4.13082 0.331141C4.27775 0.452259 4.39938 0.601131 4.48877 0.769256L20.0505 30.0367L22.2572 28.8623C22.9298 28.5048 23.6662 28.2832 24.4244 28.2103C25.1826 28.1373 25.9478 28.2145 26.6762 28.4373C27.4046 28.6602 28.0819 29.0243 28.6696 29.5089C29.2573 29.9936 29.7437 30.5892 30.1011 31.2619L31.0406 33.0279L40.9999 47.6065L20.3404 58.5909L13.8232 42.181L12.8851 40.4151C12.5275 39.7426 12.3058 39.0062 12.2328 38.2481C12.1598 37.4899 12.2368 36.7248 12.4595 35.9964C12.6822 35.268 13.0462 34.5906 13.5307 34.0029C14.0152 33.4152 14.6107 32.9287 15.2832 32.5711L17.4899 31.3982H17.4885ZM16.6432 35.1317L23.6172 31.4243C23.9534 31.2455 24.3216 31.1346 24.7007 31.0981C25.0798 31.0616 25.4623 31.1001 25.8265 31.2115C26.1907 31.3228 26.5294 31.5048 26.8233 31.7471C27.1171 31.9893 27.3604 32.2871 27.5391 32.6233L28.4787 34.3879L16.3822 40.8196L15.4441 39.0536C15.2653 38.7174 15.1545 38.3492 15.118 37.9701C15.0815 37.591 15.12 37.2085 15.2313 36.8443C15.3427 36.4801 15.5247 36.1414 15.7669 35.8475C16.0092 35.5537 16.3069 35.3104 16.6432 35.1317V35.1317ZM17.8466 44.4574L21.8382 54.5094L24.4973 53.0958L21.3583 46.9845L23.9391 45.6593L27.0592 51.7344L36.7764 46.5669L30.6752 37.6356L17.8466 44.4574V44.4574Z" fill="#004FA3"/>
<path d="M9.2213 45.3592C9.36763 45.2374 9.53652 45.1455 9.71834 45.0889C9.90016 45.0324 10.0913 45.0121 10.281 45.0294C10.4706 45.0467 10.655 45.1012 10.8236 45.1898C10.9921 45.2783 11.1416 45.3992 11.2635 45.5455C11.3853 45.6919 11.4772 45.8608 11.5338 46.0426C11.5903 46.2244 11.6106 46.4156 11.5933 46.6052C11.576 46.7948 11.5215 46.9792 11.4329 47.1478C11.3444 47.3164 11.2235 47.4659 11.0772 47.5877L11.0757 47.5892L11.0728 47.5921L11.0685 47.595L11.054 47.6066L11.0105 47.6428L10.8611 47.7573C10.735 47.8516 10.5567 47.9806 10.329 48.1343C9.8723 48.4388 9.2126 48.8361 8.38037 49.2333C6.2169 50.2713 3.84947 50.8147 1.44989 50.8239C1.06536 50.8239 0.696571 50.6711 0.424663 50.3992C0.152756 50.1273 0 49.7585 0 49.374C0 48.9894 0.152756 48.6207 0.424663 48.3487C0.696571 48.0768 1.06536 47.9241 1.44989 47.9241C3.41808 47.9147 5.35951 47.4675 7.13346 46.6148C7.68274 46.3546 8.2128 46.0557 8.71964 45.7202C8.88651 45.61 9.04948 45.4939 9.20825 45.3723L9.22275 45.3578V45.3592H9.2213ZM13.8537 54.93C14.1736 54.7165 14.3957 54.3848 14.471 54.0076C14.5463 53.6305 14.4687 53.2389 14.2553 52.919C14.0419 52.599 13.7101 52.377 13.333 52.3017C12.9559 52.2263 12.5643 52.3039 12.2443 52.5173L12.2414 52.5202L12.2124 52.5376L12.0877 52.6174C11.3329 53.0779 10.5493 53.4895 9.74181 53.8498C8.19043 54.537 6.23308 55.1735 4.34967 55.1735C3.96514 55.1735 3.59635 55.3263 3.32444 55.5982C3.05254 55.8701 2.89978 56.2389 2.89978 56.6234C2.89978 57.008 3.05254 57.3767 3.32444 57.6487C3.59635 57.9206 3.96514 58.0733 4.34967 58.0733C6.81738 58.0733 9.2068 57.2599 10.9191 56.4987C11.8492 56.0845 12.7515 55.6103 13.6203 55.0793C13.6756 55.0449 13.7307 55.0101 13.7856 54.9749L13.832 54.9445L13.8465 54.9358L13.8537 54.93V54.93Z" fill="#004FA3"/>
</svg>
