<svg width="55" height="55" viewBox="0 0 55 55" fill="none" xmlns="http://www.w3.org/2000/svg">
<path fill-rule="evenodd" clip-rule="evenodd" d="M41.5844 11.0153L41.4469 10.9083C41.1826 8.90083 40.2217 6.80931 38.7214 5.04625C36.2846 2.18167 32.3124 0 26.9957 0C21.7554 0 18.0628 2.38944 15.8842 5.35181C14.8679 6.72221 14.1417 8.28537 13.7499 9.94583C13.6785 10.2568 13.6214 10.5708 13.5787 10.8869L13.4137 11.0137C11.6965 12.3444 10.4361 13.9578 10.7355 15.8079C11.0228 17.5954 12.6392 18.6832 14.1425 19.3478C14.5244 19.5174 14.9369 19.6762 15.3754 19.8244C15.1545 21.5467 15.3031 23.2962 15.8113 24.9565C16.3195 26.6168 17.1756 28.1498 18.3226 29.4533C19.4697 30.7568 20.8813 31.801 22.4634 32.5163C24.0456 33.2316 25.762 33.6015 27.4983 33.6015C29.2347 33.6015 30.9511 33.2316 32.5332 32.5163C34.1154 31.801 35.527 30.7568 36.674 29.4533C37.821 28.1498 38.6772 26.6168 39.1853 24.9565C39.6935 23.2962 39.8421 21.5467 39.6212 19.8244C40.0597 19.6762 40.4722 19.5189 40.8542 19.3478C42.3575 18.6832 43.9724 17.5954 44.2611 15.8079C44.5605 13.9578 43.3001 12.3444 41.5829 11.0137L41.5844 11.0153ZM16.7214 13.2489C16.5228 12.6775 16.4708 11.7593 16.729 10.6242C16.9826 9.51653 17.5082 8.30194 18.3332 7.1775V11.4583C18.3332 11.8635 18.4941 12.2521 18.7807 12.5386C19.0672 12.8251 19.4558 12.9861 19.861 12.9861C20.2662 12.9861 20.6548 12.8251 20.9413 12.5386C21.2278 12.2521 21.3887 11.8635 21.3887 11.4583V4.44583C22.6461 3.73083 24.1662 3.23125 25.9721 3.09375V8.40278C25.9721 8.80797 26.133 9.19657 26.4195 9.48308C26.7061 9.76959 27.0947 9.93056 27.4999 9.93056C27.905 9.93056 28.2936 9.76959 28.5802 9.48308C28.8667 9.19657 29.0276 8.80797 29.0276 8.40278V3.18847C30.6409 3.39182 32.1983 3.91096 33.611 4.71625V11.4583C33.611 11.8635 33.7719 12.2521 34.0584 12.5386C34.345 12.8251 34.7335 12.9861 35.1387 12.9861C35.5439 12.9861 35.9325 12.8251 36.219 12.5386C36.5056 12.2521 36.6665 11.8635 36.6665 11.4583V7.36083C38.3547 9.52417 38.7504 11.8586 38.2753 13.2596C38.1576 13.6063 38.1683 13.9838 38.3056 14.3233C38.4428 14.6628 38.6974 14.9417 39.023 15.1092C39.3486 15.2767 39.7236 15.3217 40.0796 15.236C40.4356 15.1503 40.7489 14.9396 40.9626 14.6422C41.2636 15.0624 41.2529 15.2854 41.2468 15.3206C41.2269 15.4428 40.9932 15.9469 39.6197 16.555C39.0239 16.8178 38.315 17.0546 37.519 17.2639L37.4824 17.2731C36.6192 17.4961 35.6582 17.6856 34.63 17.8414C32.7231 18.1164 30.8011 18.2745 28.8749 18.315C27.5507 18.3481 26.2258 18.3338 24.9026 18.2722C23.3807 18.2041 21.8633 18.0593 20.356 17.8383C19.4005 17.6996 18.453 17.5109 17.5174 17.2731L17.4807 17.2639C16.7629 17.0834 16.0604 16.8463 15.38 16.555C14.0065 15.9469 13.7728 15.4428 13.7529 15.3206C13.7468 15.2854 13.7361 15.0624 14.0371 14.6422C14.2511 14.9409 14.5657 15.1525 14.923 15.2381C15.2804 15.3237 15.6566 15.2776 15.9828 15.1083C16.3089 14.939 16.5632 14.6579 16.6988 14.3163C16.8345 13.9748 16.8425 13.5958 16.7214 13.2489V13.2489ZM18.3668 20.596C18.874 20.6953 19.3996 20.7854 19.9374 20.8664C21.569 21.1108 23.326 21.2667 25.1135 21.34C26.7068 21.4055 28.3021 21.4055 29.8954 21.34C31.6737 21.2667 33.4246 21.1108 35.0486 20.8664C35.5788 20.7892 36.1071 20.699 36.6329 20.596C36.7416 21.8612 36.5861 23.1352 36.1765 24.3372C35.7669 25.5392 35.1119 26.643 34.2533 27.5786C33.3946 28.5141 32.3509 29.2611 31.1883 29.7721C30.0258 30.2831 28.7697 30.5469 27.4999 30.5469C26.23 30.5469 24.9739 30.2831 23.8114 29.7721C22.6488 29.2611 21.6051 28.5141 20.7465 27.5786C19.8878 26.643 19.2329 25.5392 18.8232 24.3372C18.4136 23.1352 18.2581 21.8612 18.3668 20.596V20.596Z" fill="#004FA3"/>
<path fill-rule="evenodd" clip-rule="evenodd" d="M35.1389 34.3597C36.1442 34.5354 37.1678 34.7402 38.1944 34.9739C46.5101 36.8729 55 40.6695 55 45.8334V55H0V45.8334C0 40.6695 8.48986 36.8729 16.8056 34.9739C17.8186 34.7431 18.8375 34.5383 19.8611 34.3597V41.25H35.1389V34.3597V34.3597ZM13.75 38.9431C14.7492 38.6375 15.7743 38.361 16.8056 38.112V44.3056H38.1944V38.1135C39.7421 38.4838 41.2715 38.9263 42.7778 39.4396V51.9445H45.8333V40.6343C46.2764 40.8314 46.7042 41.0346 47.1136 41.2439C48.8507 42.127 50.1386 43.0375 50.9544 43.9084C51.7565 44.7639 51.9444 45.3949 51.9444 45.8334V51.9445H3.05556V45.8334C3.05556 45.3949 3.24347 44.7639 4.04556 43.9084C4.86139 43.0375 6.14931 42.127 7.88639 41.2439C8.75569 40.8009 9.69833 40.3853 10.6944 39.9988V51.9445H13.75V38.9446V38.9431Z" fill="#004FA3"/>
</svg>
