<svg width="126" height="126" viewBox="0 0 126 126" fill="none" xmlns="http://www.w3.org/2000/svg">
<rect width="126" height="126" rx="10" fill="#FFDE5C"/>
<path d="M29.7527 99.2305H27.8869C27.8337 98.9245 27.7356 98.6535 27.5926 98.4174C27.4496 98.1779 27.2717 97.975 27.0588 97.8088C26.846 97.6425 26.6032 97.5178 26.3305 97.4346C26.0611 97.3482 25.7701 97.3049 25.4575 97.3049C24.9021 97.3049 24.4099 97.4446 23.9809 97.724C23.5519 98 23.216 98.4057 22.9732 98.9412C22.7304 99.4733 22.609 100.123 22.609 100.892C22.609 101.673 22.7304 102.332 22.9732 102.867C23.2193 103.399 23.5552 103.802 23.9809 104.074C24.4099 104.344 24.9004 104.478 25.4525 104.478C25.7585 104.478 26.0445 104.439 26.3105 104.359C26.5799 104.276 26.821 104.154 27.0339 103.995C27.2501 103.835 27.4313 103.639 27.5776 103.406C27.7273 103.173 27.8304 102.907 27.8869 102.608L29.7527 102.618C29.6828 103.103 29.5315 103.559 29.2987 103.985C29.0692 104.41 28.7683 104.786 28.3958 105.112C28.0233 105.435 27.5876 105.687 27.0888 105.87C26.5899 106.05 26.0362 106.14 25.4276 106.14C24.5296 106.14 23.7281 105.932 23.0231 105.516C22.318 105.1 21.7626 104.5 21.3569 103.715C20.9512 102.93 20.7483 101.989 20.7483 100.892C20.7483 99.7909 20.9528 98.8497 21.3619 98.0682C21.7709 97.2833 22.328 96.683 23.0331 96.2673C23.7381 95.8516 24.5363 95.6437 25.4276 95.6437C25.9963 95.6437 26.5251 95.7235 27.0139 95.8832C27.5028 96.0428 27.9385 96.2773 28.3209 96.5866C28.7034 96.8925 29.0177 97.2683 29.2638 97.714C29.5132 98.1563 29.6762 98.6618 29.7527 99.2305ZM34.4104 106.15C33.6621 106.15 33.0136 105.985 32.4648 105.656C31.9161 105.327 31.4904 104.866 31.1878 104.274C30.8884 103.682 30.7388 102.99 30.7388 102.199C30.7388 101.407 30.8884 100.714 31.1878 100.118C31.4904 99.5232 31.9161 99.0609 32.4648 98.7316C33.0136 98.4024 33.6621 98.2378 34.4104 98.2378C35.1587 98.2378 35.8072 98.4024 36.3559 98.7316C36.9047 99.0609 37.3287 99.5232 37.628 100.118C37.9306 100.714 38.082 101.407 38.082 102.199C38.082 102.99 37.9306 103.682 37.628 104.274C37.3287 104.866 36.9047 105.327 36.3559 105.656C35.8072 105.985 35.1587 106.15 34.4104 106.15ZM34.4203 104.703C34.8261 104.703 35.1653 104.592 35.438 104.369C35.7107 104.143 35.9136 103.84 36.0466 103.461C36.183 103.082 36.2512 102.659 36.2512 102.194C36.2512 101.725 36.183 101.301 36.0466 100.922C35.9136 100.539 35.7107 100.235 35.438 100.009C35.1653 99.7826 34.8261 99.6695 34.4203 99.6695C34.0046 99.6695 33.6588 99.7826 33.3827 100.009C33.11 100.235 32.9055 100.539 32.7691 100.922C32.6361 101.301 32.5696 101.725 32.5696 102.194C32.5696 102.659 32.6361 103.082 32.7691 103.461C32.9055 103.84 33.11 104.143 33.3827 104.369C33.6588 104.592 34.0046 104.703 34.4203 104.703ZM41.1209 101.51V106H39.315V98.3376H41.0411V99.6396H41.1309C41.3071 99.2106 41.5881 98.8697 41.9739 98.6169C42.363 98.3642 42.8436 98.2378 43.4156 98.2378C43.9444 98.2378 44.405 98.3509 44.7975 98.577C45.1932 98.8032 45.4992 99.1307 45.7154 99.5598C45.9349 99.9888 46.0429 100.509 46.0396 101.121V106H44.2337V101.401C44.2337 100.888 44.1007 100.488 43.8347 100.198C43.5719 99.909 43.2078 99.7643 42.7422 99.7643C42.4262 99.7643 42.1452 99.8341 41.8991 99.9738C41.6563 100.11 41.4651 100.308 41.3254 100.567C41.1891 100.827 41.1209 101.141 41.1209 101.51ZM53.6318 100.363L51.9856 100.542C51.9391 100.376 51.8576 100.22 51.7412 100.074C51.6281 99.9272 51.4751 99.8092 51.2822 99.7194C51.0893 99.6296 50.8532 99.5847 50.5739 99.5847C50.198 99.5847 49.8821 99.6662 49.626 99.8291C49.3733 99.9921 49.2486 100.203 49.2519 100.463C49.2486 100.686 49.33 100.867 49.4963 101.006C49.6659 101.146 49.9453 101.261 50.3344 101.351L51.6414 101.63C52.3664 101.786 52.9052 102.034 53.2577 102.373C53.6136 102.713 53.7931 103.157 53.7965 103.705C53.7931 104.187 53.6518 104.613 53.3724 104.982C53.0964 105.348 52.7123 105.634 52.2201 105.84C51.7279 106.047 51.1625 106.15 50.524 106.15C49.5861 106.15 48.8312 105.953 48.2592 105.561C47.6871 105.165 47.3462 104.615 47.2365 103.91L48.9975 103.74C49.0773 104.086 49.2469 104.347 49.5063 104.523C49.7657 104.7 50.1033 104.788 50.519 104.788C50.948 104.788 51.2922 104.7 51.5516 104.523C51.8143 104.347 51.9457 104.129 51.9457 103.87C51.9457 103.65 51.8609 103.469 51.6913 103.326C51.525 103.183 51.2656 103.073 50.9131 102.997L49.6061 102.723C48.8711 102.57 48.3273 102.312 47.9748 101.949C47.6223 101.583 47.4477 101.121 47.451 100.562C47.4477 100.09 47.5757 99.6811 47.8351 99.3353C48.0979 98.9861 48.462 98.7167 48.9276 98.5271C49.3965 98.3342 49.937 98.2378 50.5489 98.2378C51.4469 98.2378 52.1536 98.429 52.6691 98.8115C53.1879 99.1939 53.5088 99.7111 53.6318 100.363ZM58.8121 98.3376V99.7344H54.4072V98.3376H58.8121ZM55.4947 96.5018H57.3006V103.695C57.3006 103.938 57.3372 104.124 57.4103 104.254C57.4868 104.38 57.5866 104.467 57.7096 104.513C57.8327 104.56 57.969 104.583 58.1187 104.583C58.2318 104.583 58.3349 104.575 58.428 104.558C58.5244 104.542 58.5976 104.527 58.6475 104.513L58.9518 105.925C58.8553 105.958 58.7173 105.995 58.5377 106.035C58.3615 106.075 58.1453 106.098 57.8892 106.105C57.4369 106.118 57.0295 106.05 56.667 105.9C56.3045 105.747 56.0168 105.511 55.804 105.192C55.5945 104.873 55.4914 104.473 55.4947 103.995V96.5018ZM60.0227 106V98.3376H61.7737V99.6146H61.8535C61.9932 99.1723 62.2327 98.8314 62.5719 98.592C62.9144 98.3492 63.3052 98.2278 63.7442 98.2278C63.844 98.2278 63.9554 98.2328 64.0784 98.2428C64.2048 98.2494 64.3096 98.2611 64.3927 98.2777V99.9389C64.3162 99.9123 64.1948 99.889 64.0285 99.869C63.8656 99.8458 63.7076 99.8341 63.5546 99.8341C63.2254 99.8341 62.9294 99.9056 62.6667 100.049C62.4073 100.188 62.2027 100.383 62.0531 100.632C61.9034 100.882 61.8286 101.169 61.8286 101.495V106H60.0227ZM70.1766 102.777V98.3376H71.9824V106H70.2315V104.638H70.1516C69.9787 105.067 69.6944 105.418 69.2986 105.691C68.9062 105.963 68.4223 106.1 67.8469 106.1C67.3447 106.1 66.9007 105.988 66.515 105.766C66.1325 105.539 65.8332 105.212 65.617 104.783C65.4009 104.35 65.2928 103.828 65.2928 103.216V98.3376H67.0986V102.937C67.0986 103.423 67.2317 103.808 67.4977 104.094C67.7638 104.38 68.113 104.523 68.5453 104.523C68.8114 104.523 69.0691 104.459 69.3185 104.329C69.568 104.199 69.7725 104.006 69.9321 103.75C70.0951 103.491 70.1766 103.166 70.1766 102.777ZM76.8821 106.15C76.1172 106.15 75.4604 105.982 74.9116 105.646C74.3662 105.31 73.9455 104.846 73.6495 104.254C73.3568 103.659 73.2105 102.974 73.2105 102.199C73.2105 101.42 73.3602 100.734 73.6595 100.138C73.9588 99.5398 74.3812 99.0742 74.9266 98.7416C75.4753 98.4057 76.1238 98.2378 76.8721 98.2378C77.494 98.2378 78.0444 98.3525 78.5233 98.582C79.0056 98.8081 79.3897 99.1291 79.6757 99.5448C79.9617 99.9572 80.1247 100.439 80.1646 100.991H78.4385C78.3687 100.622 78.2024 100.315 77.9397 100.069C77.6803 99.8192 77.3327 99.6944 76.8971 99.6944C76.5279 99.6944 76.2037 99.7942 75.9243 99.9938C75.6449 100.19 75.4271 100.473 75.2708 100.842C75.1178 101.211 75.0413 101.653 75.0413 102.169C75.0413 102.691 75.1178 103.14 75.2708 103.516C75.4238 103.888 75.6383 104.176 75.9143 104.379C76.1937 104.578 76.5213 104.678 76.8971 104.678C77.1631 104.678 77.4009 104.628 77.6104 104.528C77.8233 104.425 78.0012 104.277 78.1442 104.084C78.2872 103.891 78.3853 103.657 78.4385 103.381H80.1646C80.1213 103.923 79.9617 104.404 79.6857 104.823C79.4096 105.238 79.0338 105.564 78.5583 105.8C78.0827 106.033 77.524 106.15 76.8821 106.15ZM85.174 98.3376V99.7344H80.7691V98.3376H85.174ZM81.8566 96.5018H83.6624V103.695C83.6624 103.938 83.699 104.124 83.7722 104.254C83.8487 104.38 83.9485 104.467 84.0715 104.513C84.1946 104.56 84.3309 104.583 84.4806 104.583C84.5936 104.583 84.6967 104.575 84.7899 104.558C84.8863 104.542 84.9595 104.527 85.0094 104.513L85.3137 105.925C85.2172 105.958 85.0792 105.995 84.8996 106.035C84.7233 106.075 84.5072 106.098 84.2511 106.105C83.7988 106.118 83.3914 106.05 83.0289 105.9C82.6664 105.747 82.3787 105.511 82.1659 105.192C81.9564 104.873 81.8533 104.473 81.8566 103.995V96.5018ZM86.3846 106V98.3376H88.1904V106H86.3846ZM87.2925 97.25C87.0065 97.25 86.7604 97.1553 86.5542 96.9657C86.348 96.7728 86.2449 96.5417 86.2449 96.2723C86.2449 95.9996 86.348 95.7684 86.5542 95.5789C86.7604 95.386 87.0065 95.2895 87.2925 95.2895C87.5818 95.2895 87.8279 95.386 88.0308 95.5789C88.237 95.7684 88.3401 95.9996 88.3401 96.2723C88.3401 96.5417 88.237 96.7728 88.0308 96.9657C87.8279 97.1553 87.5818 97.25 87.2925 97.25ZM93.0901 106.15C92.3418 106.15 91.6933 105.985 91.1446 105.656C90.5958 105.327 90.1701 104.866 89.8675 104.274C89.5682 103.682 89.4185 102.99 89.4185 102.199C89.4185 101.407 89.5682 100.714 89.8675 100.118C90.1701 99.5232 90.5958 99.0609 91.1446 98.7316C91.6933 98.4024 92.3418 98.2378 93.0901 98.2378C93.8384 98.2378 94.4869 98.4024 95.0356 98.7316C95.5844 99.0609 96.0084 99.5232 96.3077 100.118C96.6104 100.714 96.7617 101.407 96.7617 102.199C96.7617 102.99 96.6104 103.682 96.3077 104.274C96.0084 104.866 95.5844 105.327 95.0356 105.656C94.4869 105.985 93.8384 106.15 93.0901 106.15ZM93.1001 104.703C93.5058 104.703 93.845 104.592 94.1178 104.369C94.3905 104.143 94.5933 103.84 94.7264 103.461C94.8627 103.082 94.9309 102.659 94.9309 102.194C94.9309 101.725 94.8627 101.301 94.7264 100.922C94.5933 100.539 94.3905 100.235 94.1178 100.009C93.845 99.7826 93.5058 99.6695 93.1001 99.6695C92.6844 99.6695 92.3385 99.7826 92.0625 100.009C91.7897 100.235 91.5852 100.539 91.4489 100.922C91.3158 101.301 91.2493 101.725 91.2493 102.194C91.2493 102.659 91.3158 103.082 91.4489 103.461C91.5852 103.84 91.7897 104.143 92.0625 104.369C92.3385 104.592 92.6844 104.703 93.1001 104.703ZM99.8006 101.51V106H97.9947V98.3376H99.7208V99.6396H99.8106C99.9869 99.2106 100.268 98.8697 100.654 98.6169C101.043 98.3642 101.523 98.2378 102.095 98.2378C102.624 98.2378 103.085 98.3509 103.477 98.577C103.873 98.8032 104.179 99.1307 104.395 99.5598C104.615 99.9888 104.723 100.509 104.719 101.121V106H102.913V101.401C102.913 100.888 102.78 100.488 102.514 100.198C102.252 99.909 101.887 99.7643 101.422 99.7643C101.106 99.7643 100.825 99.8341 100.579 99.9738C100.336 100.11 100.145 100.308 100.005 100.567C99.8688 100.827 99.8006 101.141 99.8006 101.51Z" fill="#004FA3"/>
<path fill-rule="evenodd" clip-rule="evenodd" d="M76.5844 34.0153L76.4469 33.9083C76.1826 31.9008 75.2217 29.8093 73.7214 28.0463C71.2846 25.1817 67.3124 23 61.9957 23C56.7554 23 53.0628 25.3894 50.8842 28.3518C49.8679 29.7222 49.1417 31.2854 48.7499 32.9458C48.6785 33.2568 48.6214 33.5708 48.5787 33.8869L48.4137 34.0137C46.6965 35.3444 45.4361 36.9578 45.7355 38.8079C46.0228 40.5954 47.6392 41.6832 49.1425 42.3478C49.5244 42.5174 49.9369 42.6762 50.3754 42.8244C50.1545 44.5467 50.3031 46.2962 50.8113 47.9565C51.3195 49.6168 52.1756 51.1498 53.3226 52.4533C54.4697 53.7568 55.8813 54.801 57.4634 55.5163C59.0456 56.2316 60.762 56.6015 62.4983 56.6015C64.2347 56.6015 65.9511 56.2316 67.5332 55.5163C69.1154 54.801 70.527 53.7568 71.674 52.4533C72.821 51.1498 73.6772 49.6168 74.1853 47.9565C74.6935 46.2962 74.8421 44.5467 74.6212 42.8244C75.0597 42.6762 75.4722 42.5189 75.8542 42.3478C77.3575 41.6832 78.9724 40.5954 79.2611 38.8079C79.5605 36.9578 78.3001 35.3444 76.5829 34.0137L76.5844 34.0153ZM51.7214 36.2489C51.5228 35.6775 51.4708 34.7593 51.729 33.6242C51.9826 32.5165 52.5082 31.3019 53.3332 30.1775V34.4583C53.3332 34.8635 53.4941 35.2521 53.7807 35.5386C54.0672 35.8251 54.4558 35.9861 54.861 35.9861C55.2662 35.9861 55.6548 35.8251 55.9413 35.5386C56.2278 35.2521 56.3887 34.8635 56.3887 34.4583V27.4458C57.6461 26.7308 59.1662 26.2312 60.9721 26.0937V31.4028C60.9721 31.808 61.133 32.1966 61.4195 32.4831C61.7061 32.7696 62.0947 32.9306 62.4999 32.9306C62.905 32.9306 63.2936 32.7696 63.5802 32.4831C63.8667 32.1966 64.0276 31.808 64.0276 31.4028V26.1885C65.6409 26.3918 67.1983 26.911 68.611 27.7162V34.4583C68.611 34.8635 68.7719 35.2521 69.0584 35.5386C69.345 35.8251 69.7335 35.9861 70.1387 35.9861C70.5439 35.9861 70.9325 35.8251 71.219 35.5386C71.5056 35.2521 71.6665 34.8635 71.6665 34.4583V30.3608C73.3547 32.5242 73.7504 34.8586 73.2753 36.2596C73.1576 36.6063 73.1683 36.9838 73.3056 37.3233C73.4428 37.6628 73.6974 37.9417 74.023 38.1092C74.3486 38.2767 74.7236 38.3217 75.0796 38.236C75.4356 38.1503 75.7489 37.9396 75.9626 37.6422C76.2636 38.0624 76.2529 38.2854 76.2468 38.3206C76.2269 38.4428 75.9932 38.9469 74.6197 39.555C74.0239 39.8178 73.315 40.0546 72.519 40.2639L72.4824 40.2731C71.6192 40.4961 70.6582 40.6856 69.63 40.8414C67.7231 41.1164 65.8011 41.2745 63.8749 41.315C62.5507 41.3481 61.2258 41.3338 59.9026 41.2722C58.3807 41.2041 56.8633 41.0593 55.356 40.8383C54.4005 40.6996 53.453 40.5109 52.5174 40.2731L52.4807 40.2639C51.7629 40.0834 51.0604 39.8463 50.38 39.555C49.0065 38.9469 48.7728 38.4428 48.7529 38.3206C48.7468 38.2854 48.7361 38.0624 49.0371 37.6422C49.2511 37.9409 49.5657 38.1525 49.923 38.2381C50.2804 38.3237 50.6566 38.2776 50.9828 38.1083C51.3089 37.939 51.5632 37.6579 51.6988 37.3163C51.8345 36.9748 51.8425 36.5958 51.7214 36.2489V36.2489ZM53.3668 43.596C53.874 43.6953 54.3996 43.7854 54.9374 43.8664C56.569 44.1108 58.326 44.2667 60.1135 44.34C61.7068 44.4055 63.3021 44.4055 64.8954 44.34C66.6737 44.2667 68.4246 44.1108 70.0486 43.8664C70.5788 43.7892 71.1071 43.699 71.6329 43.596C71.7416 44.8612 71.5861 46.1352 71.1765 47.3372C70.7669 48.5392 70.1119 49.643 69.2533 50.5786C68.3946 51.5141 67.3509 52.2611 66.1883 52.7721C65.0258 53.2831 63.7697 53.5469 62.4999 53.5469C61.23 53.5469 59.9739 53.2831 58.8114 52.7721C57.6488 52.2611 56.6051 51.5141 55.7465 50.5786C54.8878 49.643 54.2329 48.5392 53.8232 47.3372C53.4136 46.1352 53.2581 44.8612 53.3668 43.596V43.596Z" fill="#004FA3"/>
<path fill-rule="evenodd" clip-rule="evenodd" d="M70.1389 57.3596C71.1442 57.5353 72.1678 57.74 73.1944 57.9738C81.5101 59.8728 90 63.6693 90 68.8332V77.9999H35V68.8332C35 63.6693 43.4899 59.8728 51.8056 57.9738C52.8186 57.7429 53.8375 57.5381 54.8611 57.3596V64.2499H70.1389V57.3596V57.3596ZM48.75 61.943C49.7492 61.6374 50.7743 61.3609 51.8056 61.1118V67.3055H73.1944V61.1134C74.7421 61.4837 76.2715 61.9262 77.7778 62.4395V74.9443H80.8333V63.6342C81.2764 63.8313 81.7042 64.0345 82.1136 64.2438C83.8507 65.1268 85.1386 66.0374 85.9544 66.9082C86.7565 67.7638 86.9444 68.3948 86.9444 68.8332V74.9443H38.0556V68.8332C38.0556 68.3948 38.2435 67.7638 39.0456 66.9082C39.8614 66.0374 41.1493 65.1268 42.8864 64.2438C43.7557 63.8007 44.6983 63.3852 45.6944 62.9986V74.9443H48.75V61.9445V61.943Z" fill="#004FA3"/>
</svg>
