<svg width="126" height="126" viewBox="0 0 126 126" fill="none" xmlns="http://www.w3.org/2000/svg">
<rect width="126" height="126" rx="10" fill="#FFDE5C"/>
<path d="M31.0077 106V95.7834H37.6525V97.3348H32.8585V100.108H37.3083V101.66H32.8585V104.449H37.6924V106H31.0077ZM42.0046 106.135C41.4027 106.135 40.8639 105.98 40.3883 105.671C39.9128 105.361 39.5369 104.912 39.2609 104.324C38.9849 103.735 38.8469 103.02 38.8469 102.179C38.8469 101.327 38.9865 100.609 39.2659 100.024C39.5486 99.435 39.9294 98.9911 40.4083 98.6917C40.8872 98.3891 41.421 98.2378 42.0096 98.2378C42.4586 98.2378 42.8277 98.3143 43.1171 98.4673C43.4064 98.6169 43.6359 98.7982 43.8055 99.011C43.9751 99.2205 44.1065 99.4184 44.1996 99.6046H44.2744V95.7834H46.0853V106H44.3094V104.793H44.1996C44.1065 104.979 43.9718 105.177 43.7955 105.386C43.6193 105.593 43.3865 105.769 43.0971 105.915C42.8078 106.062 42.4436 106.135 42.0046 106.135ZM42.5085 104.653C42.8909 104.653 43.2169 104.55 43.4862 104.344C43.7556 104.134 43.9602 103.843 44.0998 103.471C44.2395 103.098 44.3094 102.664 44.3094 102.169C44.3094 101.673 44.2395 101.243 44.0998 100.877C43.9635 100.511 43.7606 100.227 43.4912 100.024C43.2252 99.8208 42.8976 99.7194 42.5085 99.7194C42.1061 99.7194 41.7702 99.8241 41.5008 100.034C41.2314 100.243 41.0285 100.533 40.8922 100.902C40.7558 101.271 40.6876 101.693 40.6876 102.169C40.6876 102.648 40.7558 103.075 40.8922 103.451C41.0319 103.823 41.2364 104.118 41.5058 104.334C41.7785 104.547 42.1127 104.653 42.5085 104.653ZM52.5938 102.777V98.3376H54.3996V106H52.6486V104.638H52.5688C52.3959 105.067 52.1115 105.418 51.7158 105.691C51.3233 105.963 50.8394 106.1 50.2641 106.1C49.7619 106.1 49.3179 105.988 48.9321 105.766C48.5497 105.539 48.2504 105.212 48.0342 104.783C47.818 104.35 47.7099 103.828 47.7099 103.216V98.3376H49.5158V102.937C49.5158 103.423 49.6488 103.808 49.9149 104.094C50.1809 104.38 50.5301 104.523 50.9625 104.523C51.2285 104.523 51.4863 104.459 51.7357 104.329C51.9851 104.199 52.1897 104.006 52.3493 103.75C52.5123 103.491 52.5938 103.166 52.5938 102.777ZM59.2993 106.15C58.5344 106.15 57.8775 105.982 57.3288 105.646C56.7834 105.31 56.3627 104.846 56.0667 104.254C55.774 103.659 55.6277 102.974 55.6277 102.199C55.6277 101.42 55.7773 100.734 56.0767 100.138C56.376 99.5398 56.7983 99.0742 57.3437 98.7416C57.8925 98.4057 58.541 98.2378 59.2893 98.2378C59.9112 98.2378 60.4616 98.3525 60.9405 98.582C61.4227 98.8081 61.8069 99.1291 62.0929 99.5448C62.3789 99.9572 62.5418 100.439 62.5818 100.991H60.8557C60.7859 100.622 60.6196 100.315 60.3568 100.069C60.0974 99.8192 59.7499 99.6944 59.3142 99.6944C58.9451 99.6944 58.6208 99.7942 58.3415 99.9938C58.0621 100.19 57.8443 100.473 57.688 100.842C57.535 101.211 57.4585 101.653 57.4585 102.169C57.4585 102.691 57.535 103.14 57.688 103.516C57.8409 103.888 58.0555 104.176 58.3315 104.379C58.6108 104.578 58.9384 104.678 59.3142 104.678C59.5803 104.678 59.8181 104.628 60.0276 104.528C60.2404 104.425 60.4184 104.277 60.5614 104.084C60.7044 103.891 60.8025 103.657 60.8557 103.381H62.5818C62.5385 103.923 62.3789 104.404 62.1028 104.823C61.8268 105.238 61.451 105.564 60.9754 105.8C60.4999 106.033 59.9411 106.15 59.2993 106.15ZM65.9699 106.155C65.4843 106.155 65.047 106.068 64.6579 105.895C64.2721 105.719 63.9661 105.46 63.74 105.117C63.5172 104.774 63.4057 104.352 63.4057 103.85C63.4057 103.418 63.4856 103.06 63.6452 102.777C63.8048 102.495 64.0227 102.269 64.2987 102.099C64.5747 101.929 64.8857 101.801 65.2316 101.715C65.5808 101.625 65.9416 101.56 66.3141 101.52C66.7631 101.474 67.1272 101.432 67.4066 101.396C67.6859 101.356 67.8888 101.296 68.0152 101.216C68.1449 101.133 68.2097 101.005 68.2097 100.832V100.802C68.2097 100.426 68.0983 100.135 67.8755 99.9289C67.6527 99.7227 67.3317 99.6196 66.9127 99.6196C66.4704 99.6196 66.1195 99.7161 65.8601 99.909C65.604 100.102 65.4311 100.33 65.3413 100.592L63.6552 100.353C63.7882 99.8873 64.0077 99.4982 64.3137 99.1856C64.6196 98.8697 64.9938 98.6335 65.4361 98.4772C65.8784 98.3176 66.3673 98.2378 66.9027 98.2378C67.2719 98.2378 67.6394 98.281 68.0052 98.3675C68.371 98.454 68.7053 98.597 69.0079 98.7965C69.3106 98.9927 69.5533 99.2604 69.7362 99.5997C69.9225 99.9389 70.0156 100.363 70.0156 100.872V106H68.2796V104.947H68.2197C68.11 105.16 67.9553 105.36 67.7558 105.546C67.5596 105.729 67.3118 105.877 67.0125 105.99C66.7165 106.1 66.369 106.155 65.9699 106.155ZM66.4388 104.828C66.8013 104.828 67.1156 104.756 67.3816 104.613C67.6477 104.467 67.8522 104.274 67.9952 104.035C68.1416 103.795 68.2147 103.534 68.2147 103.251V102.348C68.1582 102.395 68.0617 102.438 67.9254 102.478C67.7924 102.518 67.6427 102.553 67.4764 102.583C67.3101 102.613 67.1455 102.639 66.9825 102.663C66.8196 102.686 66.6782 102.706 66.5585 102.723C66.2891 102.759 66.048 102.819 65.8352 102.902C65.6223 102.985 65.4544 103.102 65.3313 103.251C65.2083 103.398 65.1468 103.587 65.1468 103.82C65.1468 104.153 65.2681 104.404 65.5109 104.573C65.7537 104.743 66.063 104.828 66.4388 104.828ZM75.358 98.3376V99.7344H70.9531V98.3376H75.358ZM72.0406 96.5018H73.8465V103.695C73.8465 103.938 73.883 104.124 73.9562 104.254C74.0327 104.38 74.1325 104.467 74.2555 104.513C74.3786 104.56 74.5149 104.583 74.6646 104.583C74.7777 104.583 74.8808 104.575 74.9739 104.558C75.0703 104.542 75.1435 104.527 75.1934 104.513L75.4977 105.925C75.4012 105.958 75.2632 105.995 75.0836 106.035C74.9074 106.075 74.6912 106.098 74.4351 106.105C73.9828 106.118 73.5754 106.05 73.2129 105.9C72.8504 105.747 72.5627 105.511 72.3499 105.192C72.1404 104.873 72.0373 104.473 72.0406 103.995V96.5018ZM76.5686 106V98.3376H78.3745V106H76.5686ZM77.4765 97.25C77.1905 97.25 76.9444 97.1553 76.7382 96.9657C76.532 96.7728 76.4289 96.5417 76.4289 96.2723C76.4289 95.9996 76.532 95.7684 76.7382 95.5789C76.9444 95.386 77.1905 95.2895 77.4765 95.2895C77.7659 95.2895 78.012 95.386 78.2148 95.5789C78.421 95.7684 78.5241 95.9996 78.5241 96.2723C78.5241 96.5417 78.421 96.7728 78.2148 96.9657C78.012 97.1553 77.7659 97.25 77.4765 97.25ZM83.2741 106.15C82.5258 106.15 81.8773 105.985 81.3286 105.656C80.7798 105.327 80.3541 104.866 80.0515 104.274C79.7522 103.682 79.6025 102.99 79.6025 102.199C79.6025 101.407 79.7522 100.714 80.0515 100.118C80.3541 99.5232 80.7798 99.0609 81.3286 98.7316C81.8773 98.4024 82.5258 98.2378 83.2741 98.2378C84.0224 98.2378 84.6709 98.4024 85.2197 98.7316C85.7684 99.0609 86.1924 99.5232 86.4917 100.118C86.7944 100.714 86.9457 101.407 86.9457 102.199C86.9457 102.99 86.7944 103.682 86.4917 104.274C86.1924 104.866 85.7684 105.327 85.2197 105.656C84.6709 105.985 84.0224 106.15 83.2741 106.15ZM83.2841 104.703C83.6898 104.703 84.0291 104.592 84.3018 104.369C84.5745 104.143 84.7773 103.84 84.9104 103.461C85.0467 103.082 85.1149 102.659 85.1149 102.194C85.1149 101.725 85.0467 101.301 84.9104 100.922C84.7773 100.539 84.5745 100.235 84.3018 100.009C84.0291 99.7826 83.6898 99.6695 83.2841 99.6695C82.8684 99.6695 82.5225 99.7826 82.2465 100.009C81.9738 100.235 81.7692 100.539 81.6329 100.922C81.4998 101.301 81.4333 101.725 81.4333 102.194C81.4333 102.659 81.4998 103.082 81.6329 103.461C81.7692 103.84 81.9738 104.143 82.2465 104.369C82.5225 104.592 82.8684 104.703 83.2841 104.703ZM89.9846 101.51V106H88.1788V98.3376H89.9048V99.6396H89.9946C90.1709 99.2106 90.4519 98.8697 90.8377 98.6169C91.2268 98.3642 91.7073 98.2378 92.2794 98.2378C92.8082 98.2378 93.2688 98.3509 93.6612 98.577C94.057 98.8032 94.3629 99.1307 94.5791 99.5598C94.7986 99.9888 94.9067 100.509 94.9034 101.121V106H93.0975V101.401C93.0975 100.888 92.9645 100.488 92.6984 100.198C92.4357 99.909 92.0715 99.7643 91.6059 99.7643C91.29 99.7643 91.0089 99.8341 90.7628 99.9738C90.5201 100.11 90.3288 100.308 90.1892 100.567C90.0528 100.827 89.9846 101.141 89.9846 101.51Z" fill="#004FA3"/>
<path d="M77.75 68.7632L63.5 76.7789L49.25 68.7632V60.2944L45.1786 58.0325V71.1443L63.5 81.4501L81.8214 71.1443V58.0325L77.75 60.2944V68.7632V68.7632Z" fill="#004FA3"/>
<path d="M63.5 30L35 44.7778V48.3064L63.5 64.1393L87.9286 50.5683V61.811H92V44.7778L63.5 30ZM83.8571 48.1727L79.7857 50.4345L63.5 59.4826L47.2143 50.4345L43.1429 48.1727L40.321 46.6049L63.5 34.5862L86.679 46.6049L83.8571 48.1727Z" fill="#004FA3"/>
</svg>
