<svg width="126" height="126" viewBox="0 0 126 126" fill="none" xmlns="http://www.w3.org/2000/svg">
<rect width="126" height="126" rx="10" fill="#FFDE5C"/>
<path d="M14.0077 106V95.7834H20.5527V97.3348H15.8585V100.108H20.1037V101.66H15.8585V106H14.0077ZM24.6392 106.15C23.8909 106.15 23.2424 105.985 22.6937 105.656C22.1449 105.327 21.7192 104.866 21.4166 104.274C21.1173 103.682 20.9676 102.99 20.9676 102.199C20.9676 101.407 21.1173 100.714 21.4166 100.118C21.7192 99.5232 22.1449 99.0609 22.6937 98.7316C23.2424 98.4024 23.8909 98.2378 24.6392 98.2378C25.3875 98.2378 26.036 98.4024 26.5848 98.7316C27.1335 99.0609 27.5575 99.5232 27.8568 100.118C28.1595 100.714 28.3108 101.407 28.3108 102.199C28.3108 102.99 28.1595 103.682 27.8568 104.274C27.5575 104.866 27.1335 105.327 26.5848 105.656C26.036 105.985 25.3875 106.15 24.6392 106.15ZM24.6492 104.703C25.0549 104.703 25.3942 104.592 25.6669 104.369C25.9396 104.143 26.1424 103.84 26.2755 103.461C26.4118 103.082 26.48 102.659 26.48 102.194C26.48 101.725 26.4118 101.301 26.2755 100.922C26.1424 100.539 25.9396 100.235 25.6669 100.009C25.3942 99.7826 25.0549 99.6695 24.6492 99.6695C24.2335 99.6695 23.8876 99.7826 23.6116 100.009C23.3389 100.235 23.1343 100.539 22.998 100.922C22.8649 101.301 22.7984 101.725 22.7984 102.194C22.7984 102.659 22.8649 103.082 22.998 103.461C23.1343 103.84 23.3389 104.143 23.6116 104.369C23.8876 104.592 24.2335 104.703 24.6492 104.703ZM32.8862 106.15C32.1379 106.15 31.4894 105.985 30.9407 105.656C30.3919 105.327 29.9662 104.866 29.6636 104.274C29.3643 103.682 29.2146 102.99 29.2146 102.199C29.2146 101.407 29.3643 100.714 29.6636 100.118C29.9662 99.5232 30.3919 99.0609 30.9407 98.7316C31.4894 98.4024 32.1379 98.2378 32.8862 98.2378C33.6345 98.2378 34.283 98.4024 34.8317 98.7316C35.3805 99.0609 35.8045 99.5232 36.1038 100.118C36.4065 100.714 36.5578 101.407 36.5578 102.199C36.5578 102.99 36.4065 103.682 36.1038 104.274C35.8045 104.866 35.3805 105.327 34.8317 105.656C34.283 105.985 33.6345 106.15 32.8862 106.15ZM32.8962 104.703C33.3019 104.703 33.6411 104.592 33.9139 104.369C34.1866 104.143 34.3894 103.84 34.5225 103.461C34.6588 103.082 34.727 102.659 34.727 102.194C34.727 101.725 34.6588 101.301 34.5225 100.922C34.3894 100.539 34.1866 100.235 33.9139 100.009C33.6411 99.7826 33.3019 99.6695 32.8962 99.6695C32.4805 99.6695 32.1346 99.7826 31.8586 100.009C31.5858 100.235 31.3813 100.539 31.245 100.922C31.1119 101.301 31.0454 101.725 31.0454 102.194C31.0454 102.659 31.1119 103.082 31.245 103.461C31.3813 103.84 31.5858 104.143 31.8586 104.369C32.1346 104.592 32.4805 104.703 32.8962 104.703ZM40.6343 106.135C40.0324 106.135 39.4936 105.98 39.018 105.671C38.5425 105.361 38.1667 104.912 37.8906 104.324C37.6146 103.735 37.4766 103.02 37.4766 102.179C37.4766 101.327 37.6162 100.609 37.8956 100.024C38.1783 99.435 38.5591 98.9911 39.038 98.6917C39.5169 98.3891 40.0507 98.2378 40.6393 98.2378C41.0883 98.2378 41.4574 98.3143 41.7468 98.4673C42.0361 98.6169 42.2656 98.7982 42.4352 99.011C42.6048 99.2205 42.7362 99.4184 42.8293 99.6046H42.9041V95.7834H44.715V106H42.9391V104.793H42.8293C42.7362 104.979 42.6015 105.177 42.4252 105.386C42.249 105.593 42.0162 105.769 41.7268 105.915C41.4375 106.062 41.0733 106.135 40.6343 106.135ZM41.1382 104.653C41.5206 104.653 41.8466 104.55 42.1159 104.344C42.3853 104.134 42.5899 103.843 42.7295 103.471C42.8692 103.098 42.9391 102.664 42.9391 102.169C42.9391 101.673 42.8692 101.243 42.7295 100.877C42.5932 100.511 42.3903 100.227 42.1209 100.024C41.8549 99.8208 41.5273 99.7194 41.1382 99.7194C40.7358 99.7194 40.3999 99.8241 40.1305 100.034C39.8611 100.243 39.6582 100.533 39.5219 100.902C39.3855 101.271 39.3174 101.693 39.3174 102.169C39.3174 102.648 39.3855 103.075 39.5219 103.451C39.6616 103.823 39.8661 104.118 40.1355 104.334C40.4082 104.547 40.7424 104.653 41.1382 104.653ZM50.5101 95.3045L47.2176 107.536H45.6363L48.9287 95.3045H50.5101ZM51.4426 106V95.7834H55.3536C56.0919 95.7834 56.7055 95.8998 57.1944 96.1326C57.6866 96.3621 58.0541 96.6764 58.2969 97.0754C58.543 97.4745 58.666 97.9268 58.666 98.4323C58.666 98.848 58.5862 99.2039 58.4266 99.4999C58.267 99.7926 58.0524 100.03 57.7831 100.213C57.5137 100.396 57.2127 100.528 56.8801 100.607V100.707C57.2426 100.727 57.5902 100.838 57.9227 101.041C58.2586 101.241 58.533 101.524 58.7459 101.889C58.9587 102.255 59.0651 102.698 59.0651 103.216C59.0651 103.745 58.9371 104.221 58.681 104.643C58.4249 105.062 58.0391 105.393 57.5237 105.636C57.0082 105.879 56.3597 106 55.5781 106H51.4426ZM53.2933 104.454H55.2838C55.9556 104.454 56.4395 104.326 56.7355 104.069C57.0348 103.81 57.1844 103.477 57.1844 103.072C57.1844 102.769 57.1096 102.496 56.9599 102.254C56.8103 102.007 56.5974 101.815 56.3214 101.675C56.0454 101.532 55.7161 101.46 55.3337 101.46H53.2933V104.454ZM53.2933 100.128H55.1242C55.4434 100.128 55.7311 100.07 55.9872 99.9538C56.2433 99.8341 56.4445 99.6662 56.5908 99.45C56.7404 99.2305 56.8153 98.9711 56.8153 98.6718C56.8153 98.276 56.6756 97.9501 56.3962 97.694C56.1202 97.4379 55.7095 97.3099 55.1641 97.3099H53.2933V100.128ZM63.6879 106.15C62.9197 106.15 62.2562 105.99 61.6975 105.671C61.1421 105.348 60.7147 104.893 60.4154 104.304C60.1161 103.712 59.9664 103.015 59.9664 102.214C59.9664 101.425 60.1161 100.734 60.4154 100.138C60.718 99.5398 61.1404 99.0742 61.6825 98.7416C62.2246 98.4057 62.8615 98.2378 63.5931 98.2378C64.0654 98.2378 64.511 98.3143 64.9301 98.4673C65.3524 98.6169 65.7249 98.8497 66.0475 99.1657C66.3734 99.4816 66.6295 99.884 66.8157 100.373C67.002 100.858 67.0951 101.437 67.0951 102.109V102.663H60.8145V101.445H65.3641C65.3607 101.1 65.2859 100.792 65.1396 100.523C64.9933 100.25 64.7887 100.035 64.526 99.879C64.2666 99.7227 63.9639 99.6446 63.6181 99.6446C63.2489 99.6446 62.9247 99.7344 62.6453 99.9139C62.3659 100.09 62.1481 100.323 61.9918 100.612C61.8388 100.898 61.7607 101.213 61.7573 101.555V102.618C61.7573 103.063 61.8388 103.446 62.0018 103.765C62.1647 104.081 62.3925 104.324 62.6852 104.493C62.9779 104.66 63.3204 104.743 63.7129 104.743C63.9756 104.743 64.2134 104.706 64.4262 104.633C64.6391 104.557 64.8236 104.445 64.98 104.299C65.1363 104.153 65.2543 103.971 65.3341 103.755L67.0203 103.945C66.9139 104.39 66.711 104.779 66.4117 105.112C66.1157 105.441 65.7366 105.697 65.2743 105.88C64.812 106.06 64.2832 106.15 63.6879 106.15ZM74.948 98.3376L72.2192 106H70.2238L67.4951 98.3376H69.4207L71.1816 104.03H71.2614L73.0274 98.3376H74.948ZM79.0295 106.15C78.2613 106.15 77.5978 105.99 77.0391 105.671C76.4837 105.348 76.0563 104.893 75.757 104.304C75.4577 103.712 75.308 103.015 75.308 102.214C75.308 101.425 75.4577 100.734 75.757 100.138C76.0597 99.5398 76.482 99.0742 77.0241 98.7416C77.5662 98.4057 78.2031 98.2378 78.9347 98.2378C79.407 98.2378 79.8526 98.3143 80.2717 98.4673C80.694 98.6169 81.0665 98.8497 81.3891 99.1657C81.715 99.4816 81.9711 99.884 82.1574 100.373C82.3436 100.858 82.4367 101.437 82.4367 102.109V102.663H76.1561V101.445H80.7057C80.7024 101.1 80.6275 100.792 80.4812 100.523C80.3349 100.25 80.1303 100.035 79.8676 99.879C79.6082 99.7227 79.3056 99.6446 78.9597 99.6446C78.5905 99.6446 78.2663 99.7344 77.9869 99.9139C77.7076 100.09 77.4897 100.323 77.3334 100.612C77.1804 100.898 77.1023 101.213 77.0989 101.555V102.618C77.0989 103.063 77.1804 103.446 77.3434 103.765C77.5063 104.081 77.7342 104.324 78.0268 104.493C78.3195 104.66 78.662 104.743 79.0545 104.743C79.3172 104.743 79.555 104.706 79.7678 104.633C79.9807 104.557 80.1653 104.445 80.3216 104.299C80.4779 104.153 80.5959 103.971 80.6758 103.755L82.3619 103.945C82.2555 104.39 82.0526 104.779 81.7533 105.112C81.4573 105.441 81.0782 105.697 80.6159 105.88C80.1536 106.06 79.6248 106.15 79.0295 106.15ZM83.6648 106V98.3376H85.4158V99.6146H85.4956C85.6353 99.1723 85.8747 98.8314 86.2139 98.592C86.5565 98.3492 86.9473 98.2278 87.3863 98.2278C87.486 98.2278 87.5974 98.2328 87.7205 98.2428C87.8469 98.2494 87.9516 98.2611 88.0348 98.2777V99.9389C87.9583 99.9123 87.8369 99.889 87.6706 99.869C87.5076 99.8458 87.3497 99.8341 87.1967 99.8341C86.8674 99.8341 86.5715 99.9056 86.3087 100.049C86.0493 100.188 85.8448 100.383 85.6951 100.632C85.5455 100.882 85.4706 101.169 85.4706 101.495V106H83.6648ZM91.0026 106.155C90.5171 106.155 90.0797 106.068 89.6906 105.895C89.3048 105.719 88.9989 105.46 88.7727 105.117C88.5499 104.774 88.4385 104.352 88.4385 103.85C88.4385 103.418 88.5183 103.06 88.6779 102.777C88.8376 102.495 89.0554 102.269 89.3314 102.099C89.6075 101.929 89.9184 101.801 90.2643 101.715C90.6135 101.625 90.9743 101.56 91.3468 101.52C91.7958 101.474 92.16 101.432 92.4393 101.396C92.7187 101.356 92.9215 101.296 93.0479 101.216C93.1776 101.133 93.2425 101.005 93.2425 100.832V100.802C93.2425 100.426 93.1311 100.135 92.9082 99.9289C92.6854 99.7227 92.3645 99.6196 91.9454 99.6196C91.5031 99.6196 91.1523 99.7161 90.8929 99.909C90.6368 100.102 90.4638 100.33 90.374 100.592L88.6879 100.353C88.8209 99.8873 89.0404 99.4982 89.3464 99.1856C89.6524 98.8697 90.0265 98.6335 90.4688 98.4772C90.9111 98.3176 91.4 98.2378 91.9355 98.2378C92.3046 98.2378 92.6721 98.281 93.0379 98.3675C93.4038 98.454 93.738 98.597 94.0406 98.7965C94.3433 98.9927 94.5861 99.2604 94.769 99.5997C94.9552 99.9389 95.0483 100.363 95.0483 100.872V106H93.3123V104.947H93.2525C93.1427 105.16 92.9881 105.36 92.7885 105.546C92.5923 105.729 92.3445 105.877 92.0452 105.99C91.7492 106.1 91.4017 106.155 91.0026 106.155ZM91.4715 104.828C91.834 104.828 92.1483 104.756 92.4144 104.613C92.6804 104.467 92.885 104.274 93.028 104.035C93.1743 103.795 93.2475 103.534 93.2475 103.251V102.348C93.1909 102.395 93.0945 102.438 92.9581 102.478C92.8251 102.518 92.6754 102.553 92.5092 102.583C92.3429 102.613 92.1782 102.639 92.0153 102.663C91.8523 102.686 91.711 102.706 91.5913 102.723C91.3219 102.759 91.0808 102.819 90.8679 102.902C90.6551 102.985 90.4871 103.102 90.3641 103.251C90.241 103.398 90.1795 103.587 90.1795 103.82C90.1795 104.153 90.3009 104.404 90.5437 104.573C90.7864 104.743 91.0957 104.828 91.4715 104.828ZM99.8969 109.033C99.2483 109.033 98.6913 108.945 98.2257 108.769C97.7601 108.596 97.3859 108.363 97.1033 108.07C96.8206 107.778 96.6244 107.453 96.5146 107.097L98.1409 106.703C98.214 106.853 98.3205 107.001 98.4602 107.147C98.5998 107.297 98.7877 107.42 99.0239 107.517C99.2633 107.616 99.5643 107.666 99.9268 107.666C100.439 107.666 100.863 107.541 101.199 107.292C101.535 107.046 101.703 106.64 101.703 106.075V104.623H101.613C101.52 104.809 101.383 105.001 101.204 105.197C101.028 105.393 100.793 105.558 100.5 105.691C100.211 105.824 99.847 105.89 99.408 105.89C98.8193 105.89 98.2856 105.752 97.8066 105.476C97.3311 105.197 96.9519 104.781 96.6693 104.229C96.3899 103.674 96.2502 102.979 96.2502 102.144C96.2502 101.302 96.3899 100.592 96.6693 100.014C96.9519 99.4317 97.3327 98.9911 97.8116 98.6917C98.2905 98.3891 98.8243 98.2378 99.413 98.2378C99.8619 98.2378 100.231 98.3143 100.52 98.4673C100.813 98.6169 101.046 98.7982 101.219 99.011C101.392 99.2205 101.523 99.4184 101.613 99.6046H101.713V98.3376H103.494V106.125C103.494 106.78 103.337 107.322 103.025 107.751C102.712 108.18 102.285 108.501 101.743 108.714C101.201 108.927 100.585 109.033 99.8969 109.033ZM99.9118 104.473C100.294 104.473 100.62 104.38 100.89 104.194C101.159 104.008 101.364 103.74 101.503 103.391C101.643 103.042 101.713 102.623 101.713 102.134C101.713 101.652 101.643 101.229 101.503 100.867C101.367 100.504 101.164 100.223 100.895 100.024C100.629 99.8208 100.301 99.7194 99.9118 99.7194C99.5094 99.7194 99.1735 99.8241 98.9041 100.034C98.6348 100.243 98.4319 100.531 98.2955 100.897C98.1592 101.259 98.091 101.672 98.091 102.134C98.091 102.603 98.1592 103.014 98.2955 103.366C98.4352 103.715 98.6397 103.988 98.9091 104.184C99.1818 104.377 99.5161 104.473 99.9118 104.473ZM108.437 106.15C107.669 106.15 107.005 105.99 106.446 105.671C105.891 105.348 105.464 104.893 105.164 104.304C104.865 103.712 104.715 103.015 104.715 102.214C104.715 101.425 104.865 100.734 105.164 100.138C105.467 99.5398 105.889 99.0742 106.432 98.7416C106.974 98.4057 107.61 98.2378 108.342 98.2378C108.814 98.2378 109.26 98.3143 109.679 98.4673C110.101 98.6169 110.474 98.8497 110.797 99.1657C111.122 99.4816 111.379 99.884 111.565 100.373C111.751 100.858 111.844 101.437 111.844 102.109V102.663H105.564V101.445H110.113C110.11 101.1 110.035 100.792 109.889 100.523C109.742 100.25 109.538 100.035 109.275 99.879C109.016 99.7227 108.713 99.6446 108.367 99.6446C107.998 99.6446 107.674 99.7344 107.394 99.9139C107.115 100.09 106.897 100.323 106.741 100.612C106.588 100.898 106.51 101.213 106.506 101.555V102.618C106.506 103.063 106.588 103.446 106.751 103.765C106.914 104.081 107.142 104.324 107.434 104.493C107.727 104.66 108.069 104.743 108.462 104.743C108.725 104.743 108.962 104.706 109.175 104.633C109.388 104.557 109.573 104.445 109.729 104.299C109.885 104.153 110.003 103.971 110.083 103.755L111.769 103.945C111.663 104.39 111.46 104.779 111.161 105.112C110.865 105.441 110.486 105.697 110.023 105.88C109.561 106.06 109.032 106.15 108.437 106.15Z" fill="#004FA3"/>
<path d="M49.6667 30C50.1087 30 50.5326 30.1768 50.8452 30.4916C51.1577 30.8064 51.3333 31.2334 51.3333 31.6786V41.75C51.3328 42.7918 51.6531 43.8081 52.2501 44.6589C52.8471 45.5097 53.6914 46.1531 54.6667 46.5004V31.6786C54.6667 31.2334 54.8423 30.8064 55.1548 30.4916C55.4674 30.1768 55.8913 30 56.3333 30C56.7754 30 57.1993 30.1768 57.5118 30.4916C57.8244 30.8064 58 31.2334 58 31.6786V46.5004C58.9753 46.1531 59.8196 45.5097 60.4166 44.6589C61.0136 43.8081 61.3339 42.7918 61.3333 41.75V31.6786C61.3333 31.2334 61.5089 30.8064 61.8215 30.4916C62.134 30.1768 62.558 30 63 30C63.442 30 63.8659 30.1768 64.1785 30.4916C64.4911 30.8064 64.6667 31.2334 64.6667 31.6786V41.75C64.6671 43.6848 64.0037 45.5603 62.7888 47.0592C61.574 48.558 59.8823 49.588 58 49.975V75.3214C58 75.7666 57.8244 76.1936 57.5118 76.5084C57.1993 76.8232 56.7754 77 56.3333 77C55.8913 77 55.4674 76.8232 55.1548 76.5084C54.8423 76.1936 54.6667 75.7666 54.6667 75.3214V49.975C52.7844 49.588 51.0927 48.558 49.8778 47.0592C48.663 45.5603 47.9996 43.6848 48 41.75V31.6786C48 31.2334 48.1756 30.8064 48.4882 30.4916C48.8007 30.1768 49.2246 30 49.6667 30ZM72.93 34.9652C73.46 34.4281 74.0567 34.0151 74.6667 33.7432V50.1429H71.3333V38.3929C71.3333 37.2615 71.9133 35.9858 72.93 34.9652ZM74.6667 53.5V75.3214C74.6667 75.7666 74.8423 76.1936 75.1548 76.5084C75.4674 76.8232 75.8913 77 76.3333 77C76.7754 77 77.1993 76.8232 77.5118 76.5084C77.8244 76.1936 78 75.7666 78 75.3214V31.6786C78 31.2334 77.8244 30.8064 77.5118 30.4916C77.1993 30.1768 76.7754 30 76.3333 30C74.1233 30 72.0567 31.0944 70.57 32.5884C69.0867 34.0856 68 36.1671 68 38.3929V51.8214C68 52.2666 68.1756 52.6936 68.4882 53.0084C68.8007 53.3232 69.2246 53.5 69.6667 53.5H74.6667Z" fill="#004FA3"/>
</svg>
