<svg width="126" height="126" viewBox="0 0 126 126" fill="none" xmlns="http://www.w3.org/2000/svg">
<rect width="126" height="126" rx="10" fill="#FFDE5C"/>
<path d="M36.852 99.0459C36.7689 98.7765 36.6541 98.5354 36.5078 98.3226C36.3648 98.1064 36.1919 97.9218 35.989 97.7689C35.7894 97.6159 35.56 97.5011 35.3006 97.4246C35.0412 97.3448 34.7585 97.3049 34.4525 97.3049C33.9038 97.3049 33.4149 97.4429 32.9859 97.719C32.5569 97.995 32.2193 98.4007 31.9732 98.9362C31.7304 99.4683 31.609 100.117 31.609 100.882C31.609 101.653 31.7304 102.307 31.9732 102.842C32.216 103.378 32.5535 103.785 32.9859 104.064C33.4182 104.34 33.9204 104.478 34.4924 104.478C35.0112 104.478 35.4602 104.379 35.8393 104.179C36.2218 103.98 36.5161 103.697 36.7223 103.331C36.9285 102.962 37.0316 102.53 37.0316 102.034L37.4506 102.099H34.677V100.652H38.8225V101.879C38.8225 102.754 38.6363 103.511 38.2638 104.149C37.8913 104.788 37.3791 105.28 36.7273 105.626C36.0755 105.968 35.3272 106.14 34.4824 106.14C33.5413 106.14 32.7148 105.928 32.0031 105.506C31.2947 105.08 30.741 104.477 30.3419 103.695C29.9462 102.91 29.7483 101.979 29.7483 100.902C29.7483 100.077 29.8647 99.3403 30.0975 98.6917C30.3336 98.0432 30.6629 97.4928 31.0852 97.0405C31.5076 96.5849 32.0031 96.239 32.5718 96.0029C33.1405 95.7634 33.7591 95.6437 34.4276 95.6437C34.9929 95.6437 35.5201 95.7269 36.0089 95.8931C36.4978 96.0561 36.9318 96.2889 37.311 96.5915C37.6934 96.8942 38.0077 97.2534 38.2538 97.6691C38.4999 98.0848 38.6612 98.5437 38.7377 99.0459H36.852ZM42.4376 106.155C41.952 106.155 41.5147 106.068 41.1256 105.895C40.7398 105.719 40.4339 105.46 40.2077 105.117C39.9849 104.774 39.8735 104.352 39.8735 103.85C39.8735 103.418 39.9533 103.06 40.1129 102.777C40.2726 102.495 40.4904 102.269 40.7664 102.099C41.0425 101.929 41.3534 101.801 41.6993 101.715C42.0485 101.625 42.4093 101.56 42.7818 101.52C43.2308 101.474 43.5949 101.432 43.8743 101.396C44.1537 101.356 44.3565 101.296 44.4829 101.216C44.6126 101.133 44.6775 101.005 44.6775 100.832V100.802C44.6775 100.426 44.5661 100.135 44.3432 99.9289C44.1204 99.7227 43.7995 99.6196 43.3804 99.6196C42.9381 99.6196 42.5873 99.7161 42.3279 99.909C42.0718 100.102 41.8988 100.33 41.809 100.592L40.1229 100.353C40.2559 99.8873 40.4754 99.4982 40.7814 99.1856C41.0874 98.8697 41.4615 98.6335 41.9038 98.4772C42.3461 98.3176 42.835 98.2378 43.3705 98.2378C43.7396 98.2378 44.1071 98.281 44.4729 98.3675C44.8388 98.454 45.173 98.597 45.4756 98.7965C45.7783 98.9927 46.0211 99.2604 46.204 99.5997C46.3902 99.9389 46.4833 100.363 46.4833 100.872V106H44.7473V104.947H44.6874C44.5777 105.16 44.4231 105.36 44.2235 105.546C44.0273 105.729 43.7795 105.877 43.4802 105.99C43.1842 106.1 42.8367 106.155 42.4376 106.155ZM42.9065 104.828C43.269 104.828 43.5833 104.756 43.8494 104.613C44.1154 104.467 44.32 104.274 44.463 104.035C44.6093 103.795 44.6825 103.534 44.6825 103.251V102.348C44.6259 102.395 44.5295 102.438 44.3931 102.478C44.2601 102.518 44.1104 102.553 43.9441 102.583C43.7779 102.613 43.6132 102.639 43.4503 102.663C43.2873 102.686 43.146 102.706 43.0263 102.723C42.7569 102.759 42.5158 102.819 42.3029 102.902C42.0901 102.985 41.9221 103.102 41.7991 103.251C41.676 103.398 41.6145 103.587 41.6145 103.82C41.6145 104.153 41.7359 104.404 41.9787 104.573C42.2214 104.743 42.5307 104.828 42.9065 104.828ZM47.9995 106V98.3376H49.7505V99.6146H49.8303C49.97 99.1723 50.2094 98.8314 50.5486 98.592C50.8912 98.3492 51.282 98.2278 51.721 98.2278C51.8207 98.2278 51.9321 98.2328 52.0552 98.2428C52.1816 98.2494 52.2863 98.2611 52.3695 98.2777V99.9389C52.293 99.9123 52.1716 99.889 52.0053 99.869C51.8424 99.8458 51.6844 99.8341 51.5314 99.8341C51.2022 99.8341 50.9062 99.9056 50.6434 100.049C50.384 100.188 50.1795 100.383 50.0298 100.632C49.8802 100.882 49.8053 101.169 49.8053 101.495V106H47.9995ZM55.7975 106.135C55.1955 106.135 54.6568 105.98 54.1812 105.671C53.7056 105.361 53.3298 104.912 53.0538 104.324C52.7778 103.735 52.6397 103.02 52.6397 102.179C52.6397 101.327 52.7794 100.609 53.0588 100.024C53.3415 99.435 53.7223 98.9911 54.2012 98.6917C54.6801 98.3891 55.2138 98.2378 55.8025 98.2378C56.2515 98.2378 56.6206 98.3143 56.91 98.4673C57.1993 98.6169 57.4288 98.7982 57.5984 99.011C57.768 99.2205 57.8994 99.4184 57.9925 99.6046H58.0673V95.7834H59.8782V106H58.1022V104.793H57.9925C57.8994 104.979 57.7647 105.177 57.5884 105.386C57.4121 105.593 57.1793 105.769 56.89 105.915C56.6007 106.062 56.2365 106.135 55.7975 106.135ZM56.3013 104.653C56.6838 104.653 57.0097 104.55 57.2791 104.344C57.5485 104.134 57.753 103.843 57.8927 103.471C58.0324 103.098 58.1022 102.664 58.1022 102.169C58.1022 101.673 58.0324 101.243 57.8927 100.877C57.7563 100.511 57.5535 100.227 57.2841 100.024C57.018 99.8208 56.6905 99.7194 56.3013 99.7194C55.8989 99.7194 55.563 99.8241 55.2937 100.034C55.0243 100.243 54.8214 100.533 54.685 100.902C54.5487 101.271 54.4805 101.693 54.4805 102.169C54.4805 102.648 54.5487 103.075 54.685 103.451C54.8247 103.823 55.0293 104.118 55.2986 104.334C55.5714 104.547 55.9056 104.653 56.3013 104.653ZM64.895 106.15C64.1268 106.15 63.4633 105.99 62.9046 105.671C62.3492 105.348 61.9219 104.893 61.6225 104.304C61.3232 103.712 61.1736 103.015 61.1736 102.214C61.1736 101.425 61.3232 100.734 61.6225 100.138C61.9252 99.5398 62.3475 99.0742 62.8896 98.7416C63.4317 98.4057 64.0686 98.2378 64.8003 98.2378C65.2725 98.2378 65.7182 98.3143 66.1372 98.4673C66.5596 98.6169 66.932 98.8497 67.2546 99.1657C67.5806 99.4816 67.8366 99.884 68.0229 100.373C68.2091 100.858 68.3022 101.437 68.3022 102.109V102.663H62.0216V101.445H66.5712C66.5679 101.1 66.493 100.792 66.3467 100.523C66.2004 100.25 65.9959 100.035 65.7331 99.879C65.4737 99.7227 65.1711 99.6446 64.8252 99.6446C64.456 99.6446 64.1318 99.7344 63.8524 99.9139C63.5731 100.09 63.3552 100.323 63.1989 100.612C63.0459 100.898 62.9678 101.213 62.9645 101.555V102.618C62.9645 103.063 63.0459 103.446 63.2089 103.765C63.3719 104.081 63.5997 104.324 63.8923 104.493C64.185 104.66 64.5275 104.743 64.92 104.743C65.1827 104.743 65.4205 104.706 65.6334 104.633C65.8462 104.557 66.0308 104.445 66.1871 104.299C66.3434 104.153 66.4615 103.971 66.5413 103.755L68.2274 103.945C68.121 104.39 67.9181 104.779 67.6188 105.112C67.3228 105.441 66.9437 105.697 66.4814 105.88C66.0191 106.06 65.4903 106.15 64.895 106.15ZM71.3362 101.51V106H69.5303V98.3376H71.2563V99.6396H71.3461C71.5224 99.2106 71.8034 98.8697 72.1892 98.6169C72.5783 98.3642 73.0589 98.2378 73.6309 98.2378C74.1597 98.2378 74.6203 98.3509 75.0127 98.577C75.4085 98.8032 75.7145 99.1307 75.9306 99.5598C76.1501 99.9888 76.2582 100.509 76.2549 101.121V106H74.449V101.401C74.449 100.888 74.316 100.488 74.0499 100.198C73.7872 99.909 73.423 99.7643 72.9574 99.7643C72.6415 99.7643 72.3605 99.8341 72.1144 99.9738C71.8716 100.11 71.6804 100.308 71.5407 100.567C71.4043 100.827 71.3362 101.141 71.3362 101.51ZM77.791 106V98.3376H79.5969V106H77.791ZM78.6989 97.25C78.4129 97.25 78.1668 97.1553 77.9606 96.9657C77.7544 96.7728 77.6513 96.5417 77.6513 96.2723C77.6513 95.9996 77.7544 95.7684 77.9606 95.5789C78.1668 95.386 78.4129 95.2895 78.6989 95.2895C78.9883 95.2895 79.2344 95.386 79.4372 95.5789C79.6434 95.7684 79.7465 95.9996 79.7465 96.2723C79.7465 96.5417 79.6434 96.7728 79.4372 96.9657C79.2344 97.1553 78.9883 97.25 78.6989 97.25ZM82.96 101.51V106H81.1542V98.3376H82.8802V99.6396H82.97C83.1463 99.2106 83.4273 98.8697 83.8131 98.6169C84.2022 98.3642 84.6828 98.2378 85.2548 98.2378C85.7836 98.2378 86.2442 98.3509 86.6366 98.577C87.0324 98.8032 87.3383 99.1307 87.5545 99.5598C87.774 99.9888 87.8821 100.509 87.8788 101.121V106H86.0729V101.401C86.0729 100.888 85.9399 100.488 85.6738 100.198C85.4111 99.909 85.0469 99.7643 84.5813 99.7643C84.2654 99.7643 83.9844 99.8341 83.7383 99.9738C83.4955 100.11 83.3043 100.308 83.1646 100.567C83.0282 100.827 82.96 101.141 82.96 101.51ZM92.7473 109.033C92.0987 109.033 91.5417 108.945 91.0761 108.769C90.6105 108.596 90.2363 108.363 89.9537 108.07C89.671 107.778 89.4747 107.453 89.365 107.097L90.9913 106.703C91.0644 106.853 91.1709 107.001 91.3105 107.147C91.4502 107.297 91.6381 107.42 91.8743 107.517C92.1137 107.616 92.4147 107.666 92.7772 107.666C93.2893 107.666 93.7134 107.541 94.0493 107.292C94.3852 107.046 94.5531 106.64 94.5531 106.075V104.623H94.4633C94.3702 104.809 94.2338 105.001 94.0543 105.197C93.878 105.393 93.6435 105.558 93.3509 105.691C93.0615 105.824 92.6974 105.89 92.2584 105.89C91.6697 105.89 91.1359 105.752 90.657 105.476C90.1815 105.197 89.8023 104.781 89.5196 104.229C89.2403 103.674 89.1006 102.979 89.1006 102.144C89.1006 101.302 89.2403 100.592 89.5196 100.014C89.8023 99.4317 90.1831 98.9911 90.662 98.6917C91.1409 98.3891 91.6747 98.2378 92.2634 98.2378C92.7123 98.2378 93.0815 98.3143 93.3708 98.4673C93.6635 98.6169 93.8963 98.7982 94.0692 99.011C94.2422 99.2205 94.3735 99.4184 94.4633 99.6046H94.5631V98.3376H96.344V106.125C96.344 106.78 96.1877 107.322 95.8751 107.751C95.5625 108.18 95.1351 108.501 94.593 108.714C94.0509 108.927 93.4357 109.033 92.7473 109.033ZM92.7622 104.473C93.1447 104.473 93.4706 104.38 93.74 104.194C94.0094 104.008 94.2139 103.74 94.3536 103.391C94.4933 103.042 94.5631 102.623 94.5631 102.134C94.5631 101.652 94.4933 101.229 94.3536 100.867C94.2172 100.504 94.0144 100.223 93.745 100.024C93.4789 99.8208 93.1513 99.7194 92.7622 99.7194C92.3598 99.7194 92.0239 99.8241 91.7545 100.034C91.4851 100.243 91.2823 100.531 91.1459 100.897C91.0096 101.259 90.9414 101.672 90.9414 102.134C90.9414 102.603 91.0096 103.014 91.1459 103.366C91.2856 103.715 91.4901 103.988 91.7595 104.184C92.0322 104.377 92.3665 104.473 92.7622 104.473Z" fill="#004FA3"/>
<path d="M62.919 42.1826C62.919 42.1826 56.0002 42.8711 52.3777 39.8539C48.7552 36.8344 49.581 31.0676 49.581 31.0676C49.581 31.0676 56.4997 30.3791 60.1245 33.3964C63.747 36.4159 62.919 42.1826 62.919 42.1826V42.1826Z" stroke="#004FA3" stroke-width="4.5" stroke-linecap="round" stroke-linejoin="round"/>
<path d="M63.081 42.1826C63.081 42.1826 69.9998 42.8711 73.6223 39.8539C77.2448 36.8344 76.419 31.0676 76.419 31.0676C76.419 31.0676 69.5003 30.3791 65.8778 33.3964C62.2553 36.4159 63.081 42.1826 63.081 42.1826V42.1826ZM45 51.2501C45 50.6534 45.2371 50.0811 45.659 49.6591C46.081 49.2372 46.6533 49.0001 47.25 49.0001H78.75C79.3467 49.0001 79.919 49.2372 80.341 49.6591C80.7629 50.0811 81 50.6534 81 51.2501V55.7501C81 56.3468 80.7629 56.9191 80.341 57.3411C79.919 57.7631 79.3467 58.0001 78.75 58.0001H47.25C46.6533 58.0001 46.081 57.7631 45.659 57.3411C45.2371 56.9191 45 56.3468 45 55.7501V51.2501ZM47.25 58.0001H78.75L74.25 76.0001H51.75L47.25 58.0001Z" stroke="#004FA3" stroke-width="4.5" stroke-linecap="round" stroke-linejoin="round"/>
</svg>
