<svg width="8" height="10" viewBox="0 0 8 10" fill="none" xmlns="http://www.w3.org/2000/svg">
<path d="M4.1509 0.643799C3.21203 0.644906 2.31194 1.01836 1.64806 1.68224C0.984183 2.34611 0.610731 3.24621 0.609623 4.18507C0.608498 4.95231 0.859115 5.69874 1.32303 6.30984C1.32303 6.30984 1.41961 6.437 1.43538 6.45535L4.1509 9.65795L6.8677 6.45374C6.88186 6.43668 6.97876 6.30984 6.97876 6.30984L6.97909 6.30887C7.44277 5.69804 7.69327 4.95196 7.69217 4.18507C7.69106 3.24621 7.31761 2.34611 6.65373 1.68224C5.98985 1.01836 5.08976 0.644906 4.1509 0.643799V0.643799ZM4.1509 5.47281C3.89621 5.47281 3.64724 5.39728 3.43547 5.25579C3.2237 5.11429 3.05865 4.91317 2.96118 4.67787C2.86372 4.44256 2.83822 4.18364 2.8879 3.93385C2.93759 3.68405 3.06024 3.4546 3.24033 3.27451C3.42042 3.09441 3.64987 2.97177 3.89967 2.92208C4.14947 2.87239 4.40839 2.89789 4.64369 2.99536C4.87899 3.09283 5.08011 3.25788 5.22161 3.46964C5.36311 3.68141 5.43863 3.93038 5.43863 4.18507C5.43821 4.52647 5.3024 4.85376 5.06099 5.09517C4.81959 5.33657 4.49229 5.47238 4.1509 5.47281V5.47281Z" fill="#4B4B4B"/>
</svg>
