<svg width="16" height="15" viewBox="0 0 16 15" fill="none" xmlns="http://www.w3.org/2000/svg">
<g clip-path="url(#clip0_103_2424)">
<path d="M13.7318 3.00006C13.6772 2.99445 13.6223 2.99445 13.5678 3.00006H2.36776C2.29598 3.00117 2.22467 3.01193 2.15576 3.03206L7.93576 8.78806L13.7318 3.00006Z" fill="white"/>
<path d="M14.324 3.55615L8.50002 9.35615C8.35013 9.50515 8.14737 9.58879 7.93602 9.58879C7.72467 9.58879 7.52191 9.50515 7.37202 9.35615L1.60002 3.60015C1.58228 3.66537 1.57287 3.73257 1.57202 3.80015V11.8002C1.57202 12.0123 1.65631 12.2158 1.80634 12.3658C1.95637 12.5159 2.15985 12.6002 2.37202 12.6002H13.572C13.7842 12.6002 13.9877 12.5159 14.1377 12.3658C14.2877 12.2158 14.372 12.0123 14.372 11.8002V3.80015C14.3688 3.71681 14.3526 3.63449 14.324 3.55615ZM2.92002 11.8002H2.36402V11.2282L5.27202 8.34415L5.83602 8.90815L2.92002 11.8002ZM13.564 11.8002H13.004L10.088 8.90815L10.652 8.34415L13.56 11.2282L13.564 11.8002Z" fill="white"/>
</g>
<defs>
<clipPath id="clip0_103_2424">
<rect width="14.4" height="14.4" fill="white" transform="translate(0.800049 0.600098)"/>
</clipPath>
</defs>
</svg>
