<svg width="20" height="26" viewBox="0 0 20 26" fill="none" xmlns="http://www.w3.org/2000/svg">
<path d="M0.25 3.25V25.1875C0.249897 25.3286 0.286537 25.4673 0.356315 25.5899C0.426093 25.7125 0.526602 25.8149 0.647949 25.8869C0.769296 25.9589 0.907298 25.998 1.04837 26.0005C1.18944 26.0029 1.32872 25.9686 1.4525 25.9009L10 21.2371L18.5475 25.9009C18.6713 25.9686 18.8106 26.0029 18.9516 26.0005C19.0927 25.998 19.2307 25.9589 19.3521 25.8869C19.4734 25.8149 19.5739 25.7125 19.6437 25.5899C19.7135 25.4673 19.7501 25.3286 19.75 25.1875V3.25C19.75 2.38805 19.4076 1.5614 18.7981 0.951903C18.1886 0.34241 17.362 0 16.5 0L3.5 0C2.63805 0 1.8114 0.34241 1.2019 0.951903C0.59241 1.5614 0.25 2.38805 0.25 3.25V3.25Z" fill="#4B4B4B"/>
</svg>
