<svg width="13" height="16" viewBox="0 0 13 16" fill="none" xmlns="http://www.w3.org/2000/svg">
<path d="M1.45024e-07 1.99995V15.4996C-6.86766e-05 15.5865 0.0243582 15.6718 0.0708766 15.7473C0.117395 15.8227 0.184401 15.8857 0.265299 15.93C0.346198 15.9743 0.438199 15.9984 0.532247 15.9999C0.626295 16.0014 0.719149 15.9803 0.801667 15.9386L6.5 13.0687L12.1983 15.9386C12.2809 15.9803 12.3737 16.0014 12.4678 15.9999C12.5618 15.9984 12.6538 15.9743 12.7347 15.93C12.8156 15.8857 12.8826 15.8227 12.9291 15.7473C12.9756 15.6718 13.0001 15.5865 13 15.4996V1.99995C13 1.46953 12.7717 0.960837 12.3654 0.585773C11.9591 0.210709 11.408 0 10.8333 0L2.16667 0C1.59203 0 1.04093 0.210709 0.634602 0.585773C0.228273 0.960837 1.45024e-07 1.46953 1.45024e-07 1.99995V1.99995Z" fill="#E26060"/>
</svg>
