<svg width="20" height="26" viewBox="0 0 20 26" fill="none" xmlns="http://www.w3.org/2000/svg">
<path d="M0 3.25005C0 2.38808 0.34241 1.56142 0.951903 0.951918C1.5614 0.342415 2.38805 0 3.25 0L16.25 0C17.112 0 17.9386 0.342415 18.5481 0.951918C19.1576 1.56142 19.5 2.38808 19.5 3.25005V25.1879C19.4999 25.3349 19.46 25.4791 19.3844 25.6051C19.3089 25.7312 19.2006 25.8344 19.071 25.9038C18.9414 25.9732 18.7955 26.0061 18.6487 25.9991C18.5019 25.992 18.3597 25.9453 18.2374 25.8639L9.75 21.2895L1.26262 25.8639C1.14027 25.9453 0.998124 25.992 0.851324 25.9991C0.704523 26.0061 0.558566 25.9732 0.428999 25.9038C0.299432 25.8344 0.191107 25.7312 0.11556 25.6051C0.0400141 25.4791 7.59207e-05 25.3349 0 25.1879V3.25005ZM3.25 1.62503C2.81902 1.62503 2.4057 1.79623 2.10095 2.10099C1.7962 2.40574 1.625 2.81907 1.625 3.25005V23.6701L9.29988 19.6368C9.43322 19.5481 9.58983 19.5007 9.75 19.5007C9.91017 19.5007 10.0668 19.5481 10.2001 19.6368L17.875 23.6701V3.25005C17.875 2.81907 17.7038 2.40574 17.399 2.10099C17.0943 1.79623 16.681 1.62503 16.25 1.62503H3.25Z" fill="#6D6D6D"/>
</svg>
