<svg width="126" height="126" viewBox="0 0 126 126" fill="none" xmlns="http://www.w3.org/2000/svg">
<rect width="126" height="126" rx="10" fill="#FFDE5C"/>
<path d="M25.5587 97.3348V95.7834H33.7101V97.3348H30.5523V106H28.7165V97.3348H25.5587ZM37.183 106.15C36.4147 106.15 35.7513 105.99 35.1925 105.671C34.6371 105.348 34.2098 104.893 33.9105 104.304C33.6112 103.712 33.4615 103.015 33.4615 102.214C33.4615 101.425 33.6112 100.734 33.9105 100.138C34.2131 99.5398 34.6355 99.0742 35.1776 98.7416C35.7197 98.4057 36.3565 98.2378 37.0882 98.2378C37.5604 98.2378 38.0061 98.3143 38.4251 98.4673C38.8475 98.6169 39.22 98.8497 39.5426 99.1657C39.8685 99.4816 40.1246 99.884 40.3108 100.373C40.497 100.858 40.5902 101.437 40.5902 102.109V102.663H34.3096V101.445H38.8591C38.8558 101.1 38.781 100.792 38.6346 100.523C38.4883 100.25 38.2838 100.035 38.0211 99.879C37.7616 99.7227 37.459 99.6446 37.1131 99.6446C36.744 99.6446 36.4197 99.7344 36.1404 99.9139C35.861 100.09 35.6432 100.323 35.4869 100.612C35.3339 100.898 35.2557 101.213 35.2524 101.555V102.618C35.2524 103.063 35.3339 103.446 35.4968 103.765C35.6598 104.081 35.8876 104.324 36.1803 104.493C36.4729 104.66 36.8155 104.743 37.2079 104.743C37.4706 104.743 37.7084 104.706 37.9213 104.633C38.1341 104.557 38.3187 104.445 38.475 104.299C38.6313 104.153 38.7494 103.971 38.8292 103.755L40.5153 103.945C40.4089 104.39 40.206 104.779 39.9067 105.112C39.6107 105.441 39.2316 105.697 38.7693 105.88C38.3071 106.06 37.7783 106.15 37.183 106.15ZM45.1606 106.15C44.3957 106.15 43.7388 105.982 43.1901 105.646C42.6447 105.31 42.224 104.846 41.928 104.254C41.6353 103.659 41.489 102.974 41.489 102.199C41.489 101.42 41.6386 100.734 41.938 100.138C42.2373 99.5398 42.6596 99.0742 43.2051 98.7416C43.7538 98.4057 44.4023 98.2378 45.1506 98.2378C45.7725 98.2378 46.3229 98.3525 46.8018 98.582C47.284 98.8081 47.6682 99.1291 47.9542 99.5448C48.2402 99.9572 48.4031 100.439 48.4431 100.991H46.717C46.6472 100.622 46.4809 100.315 46.2182 100.069C45.9587 99.8192 45.6112 99.6944 45.1755 99.6944C44.8064 99.6944 44.4821 99.7942 44.2028 99.9938C43.9234 100.19 43.7056 100.473 43.5493 100.842C43.3963 101.211 43.3198 101.653 43.3198 102.169C43.3198 102.691 43.3963 103.14 43.5493 103.516C43.7022 103.888 43.9168 104.176 44.1928 104.379C44.4722 104.578 44.7997 104.678 45.1755 104.678C45.4416 104.678 45.6794 104.628 45.8889 104.528C46.1018 104.425 46.2797 104.277 46.4227 104.084C46.5657 103.891 46.6638 103.657 46.717 103.381H48.4431C48.3998 103.923 48.2402 104.404 47.9642 104.823C47.6881 105.238 47.3123 105.564 46.8367 105.8C46.3612 106.033 45.8024 106.15 45.1606 106.15ZM51.4321 101.51V106H49.6262V95.7834H51.3922V99.6396H51.482C51.6616 99.2072 51.9393 98.8663 52.3151 98.6169C52.6942 98.3642 53.1764 98.2378 53.7618 98.2378C54.2939 98.2378 54.7578 98.3492 55.1536 98.572C55.5493 98.7948 55.8553 99.1208 56.0715 99.5498C56.291 99.9788 56.4007 100.503 56.4007 101.121V106H54.5948V101.401C54.5948 100.885 54.4618 100.484 54.1958 100.198C53.933 99.909 53.5639 99.7643 53.0883 99.7643C52.769 99.7643 52.483 99.8341 52.2303 99.9738C51.9808 100.11 51.7846 100.308 51.6416 100.567C51.5019 100.827 51.4321 101.141 51.4321 101.51ZM59.7477 101.51V106H57.9418V98.3376H59.6679V99.6396H59.7576C59.9339 99.2106 60.2149 98.8697 60.6007 98.6169C60.9898 98.3642 61.4704 98.2378 62.0424 98.2378C62.5712 98.2378 63.0318 98.3509 63.4242 98.577C63.82 98.8032 64.126 99.1307 64.3421 99.5598C64.5616 99.9888 64.6697 100.509 64.6664 101.121V106H62.8605V101.401C62.8605 100.888 62.7275 100.488 62.4615 100.198C62.1987 99.909 61.8346 99.7643 61.369 99.7643C61.053 99.7643 60.772 99.8341 60.5259 99.9738C60.2831 100.11 60.0919 100.308 59.9522 100.567C59.8158 100.827 59.7477 101.141 59.7477 101.51ZM69.5449 106.15C68.7966 106.15 68.1481 105.985 67.5993 105.656C67.0506 105.327 66.6249 104.866 66.3222 104.274C66.0229 103.682 65.8733 102.99 65.8733 102.199C65.8733 101.407 66.0229 100.714 66.3222 100.118C66.6249 99.5232 67.0506 99.0609 67.5993 98.7316C68.1481 98.4024 68.7966 98.2378 69.5449 98.2378C70.2931 98.2378 70.9417 98.4024 71.4904 98.7316C72.0391 99.0609 72.4632 99.5232 72.7625 100.118C73.0651 100.714 73.2164 101.407 73.2164 102.199C73.2164 102.99 73.0651 103.682 72.7625 104.274C72.4632 104.866 72.0391 105.327 71.4904 105.656C70.9417 105.985 70.2931 106.15 69.5449 106.15ZM69.5548 104.703C69.9606 104.703 70.2998 104.592 70.5725 104.369C70.8452 104.143 71.0481 103.84 71.1811 103.461C71.3175 103.082 71.3856 102.659 71.3856 102.194C71.3856 101.725 71.3175 101.301 71.1811 100.922C71.0481 100.539 70.8452 100.235 70.5725 100.009C70.2998 99.7826 69.9606 99.6695 69.5548 99.6695C69.1391 99.6695 68.7932 99.7826 68.5172 100.009C68.2445 100.235 68.04 100.539 67.9036 100.922C67.7706 101.301 67.7041 101.725 67.7041 102.194C67.7041 102.659 67.7706 103.082 67.9036 103.461C68.04 103.84 68.2445 104.143 68.5172 104.369C68.7932 104.592 69.1391 104.703 69.5548 104.703ZM76.2554 95.7834V106H74.4495V95.7834H76.2554ZM81.155 106.15C80.4067 106.15 79.7582 105.985 79.2095 105.656C78.6607 105.327 78.235 104.866 77.9324 104.274C77.6331 103.682 77.4834 102.99 77.4834 102.199C77.4834 101.407 77.6331 100.714 77.9324 100.118C78.235 99.5232 78.6607 99.0609 79.2095 98.7316C79.7582 98.4024 80.4067 98.2378 81.155 98.2378C81.9033 98.2378 82.5518 98.4024 83.1006 98.7316C83.6493 99.0609 84.0733 99.5232 84.3726 100.118C84.6753 100.714 84.8266 101.407 84.8266 102.199C84.8266 102.99 84.6753 103.682 84.3726 104.274C84.0733 104.866 83.6493 105.327 83.1006 105.656C82.5518 105.985 81.9033 106.15 81.155 106.15ZM81.165 104.703C81.5707 104.703 81.91 104.592 82.1827 104.369C82.4554 104.143 82.6582 103.84 82.7913 103.461C82.9276 103.082 82.9958 102.659 82.9958 102.194C82.9958 101.725 82.9276 101.301 82.7913 100.922C82.6582 100.539 82.4554 100.235 82.1827 100.009C81.91 99.7826 81.5707 99.6695 81.165 99.6695C80.7493 99.6695 80.4034 99.7826 80.1274 100.009C79.8547 100.235 79.6501 100.539 79.5138 100.922C79.3807 101.301 79.3142 101.725 79.3142 102.194C79.3142 102.659 79.3807 103.082 79.5138 103.461C79.6501 103.84 79.8547 104.143 80.1274 104.369C80.4034 104.592 80.7493 104.703 81.165 104.703ZM89.392 109.033C88.7435 109.033 88.1865 108.945 87.7209 108.769C87.2553 108.596 86.8811 108.363 86.5984 108.07C86.3157 107.778 86.1195 107.453 86.0098 107.097L87.636 106.703C87.7092 106.853 87.8156 107.001 87.9553 107.147C88.095 107.297 88.2829 107.42 88.519 107.517C88.7585 107.616 89.0595 107.666 89.422 107.666C89.9341 107.666 90.3581 107.541 90.694 107.292C91.0299 107.046 91.1979 106.64 91.1979 106.075V104.623H91.1081C91.015 104.809 90.8786 105.001 90.699 105.197C90.5228 105.393 90.2883 105.558 89.9956 105.691C89.7063 105.824 89.3421 105.89 88.9031 105.89C88.3145 105.89 87.7807 105.752 87.3018 105.476C86.8262 105.197 86.4471 104.781 86.1644 104.229C85.8851 103.674 85.7454 102.979 85.7454 102.144C85.7454 101.302 85.8851 100.592 86.1644 100.014C86.4471 99.4317 86.8279 98.9911 87.3068 98.6917C87.7857 98.3891 88.3195 98.2378 88.9081 98.2378C89.3571 98.2378 89.7263 98.3143 90.0156 98.4673C90.3083 98.6169 90.5411 98.7982 90.714 99.011C90.8869 99.2205 91.0183 99.4184 91.1081 99.6046H91.2079V98.3376H92.9888V106.125C92.9888 106.78 92.8325 107.322 92.5199 107.751C92.2072 108.18 91.7799 108.501 91.2378 108.714C90.6957 108.927 90.0804 109.033 89.392 109.033ZM89.407 104.473C89.7894 104.473 90.1154 104.38 90.3848 104.194C90.6541 104.008 90.8587 103.74 90.9983 103.391C91.138 103.042 91.2079 102.623 91.2079 102.134C91.2079 101.652 91.138 101.229 90.9983 100.867C90.862 100.504 90.6591 100.223 90.3897 100.024C90.1237 99.8208 89.7961 99.7194 89.407 99.7194C89.0046 99.7194 88.6687 99.8241 88.3993 100.034C88.1299 100.243 87.927 100.531 87.7907 100.897C87.6543 101.259 87.5862 101.672 87.5862 102.134C87.5862 102.603 87.6543 103.014 87.7907 103.366C87.9304 103.715 88.1349 103.988 88.4043 104.184C88.677 104.377 89.0112 104.473 89.407 104.473ZM95.6623 108.873C95.4162 108.873 95.1884 108.853 94.9789 108.814C94.7727 108.777 94.608 108.734 94.485 108.684L94.904 107.277C95.1668 107.354 95.4012 107.39 95.6074 107.387C95.8136 107.383 95.9949 107.319 96.1512 107.192C96.3108 107.069 96.4455 106.863 96.5552 106.574L96.7099 106.16L93.9313 98.3376H95.8469L97.6128 104.124H97.6926L99.4636 98.3376H101.384L98.3162 106.928C98.1732 107.334 97.9836 107.681 97.7475 107.97C97.5114 108.263 97.222 108.486 96.8795 108.639C96.5403 108.795 96.1345 108.873 95.6623 108.873Z" fill="#004FA3"/>
<path d="M74.0192 32H42.6786L42.2899 32.0126C40.8544 32.1112 39.5098 32.7516 38.5278 33.8044C37.5459 34.8572 36.9998 36.2439 37 37.6842V64.2156L37.0126 64.6046C37.1111 66.0416 37.7509 67.3875 38.8026 68.3704C39.8544 69.3534 41.2397 69.9 42.6786 69.8998H53.4022V76.2105H48.9881L48.7307 76.2282C48.2556 76.2936 47.823 76.5372 47.5203 76.9096C47.2177 77.282 47.0675 77.7555 47.1002 78.2344C47.1329 78.7134 47.346 79.162 47.6964 79.4898C48.0469 79.8175 48.5085 79.9999 48.9881 80H75.4881L75.7455 79.9848C76.2247 79.924 76.6625 79.6821 76.9693 79.3086C77.2761 78.9352 77.4287 78.4585 77.3958 77.9761C77.3629 77.4937 77.147 77.0422 76.7924 76.7139C76.4377 76.3857 75.9711 76.2056 75.4881 76.2105H71.0689V69.8998H81.7951L82.1838 69.8872C83.6193 69.7886 84.9639 69.1482 85.9458 68.0954C86.9278 67.0426 87.4738 65.6559 87.4737 64.2156V48.4211H83.688V64.2156L83.6703 64.4733C83.6081 64.9269 83.3839 65.3426 83.0392 65.6435C82.6944 65.9445 82.2525 66.1103 81.7951 66.1103H42.6786L42.4211 66.0926C41.968 66.0304 41.5527 65.8059 41.252 65.4609C40.9514 65.1158 40.7857 64.6734 40.7857 64.2156V37.6842L40.8034 37.4265C40.8656 36.9729 41.0898 36.5572 41.4345 36.2563C41.7792 35.9553 42.2212 35.7895 42.6786 35.7895H73.5952V33.8947C73.5952 33.2177 73.7467 32.5735 74.0192 32ZM57.1854 69.8998H67.2807L67.2832 76.2105H57.188L57.1854 69.8998ZM76.119 33.8947C76.119 33.3922 76.3185 32.9103 76.6734 32.555C77.0284 32.1996 77.5099 32 78.0119 32H88.1071C88.6092 32 89.0906 32.1996 89.4456 32.555C89.8006 32.9103 90 33.3922 90 33.8947V44C90 44.5025 89.8006 44.9844 89.4456 45.3398C89.0906 45.6951 88.6092 45.8947 88.1071 45.8947H78.0119C77.5099 45.8947 77.0284 45.6951 76.6734 45.3398C76.3185 44.9844 76.119 44.5025 76.119 44V42.1053H75.3039C75.0203 42.1054 74.744 42.1948 74.5139 42.3607C74.2839 42.5266 74.1117 42.7607 74.0218 43.0299L71.715 49.9571C71.3738 50.9813 70.7193 51.8721 69.8441 52.5033C68.969 53.1345 67.9176 53.474 66.839 53.4737H64.7619V57.8947C64.7619 58.3973 64.5625 58.8792 64.2075 59.2345C63.8525 59.5898 63.3711 59.7895 62.869 59.7895H52.7738C52.2718 59.7895 51.7903 59.5898 51.4354 59.2345C51.0804 58.8792 50.881 58.3973 50.881 57.8947V47.7895C50.881 47.287 51.0804 46.805 51.4354 46.4497C51.7903 46.0944 52.2718 45.8947 52.7738 45.8947H62.869C63.3711 45.8947 63.8525 46.0944 64.2075 46.4497C64.5625 46.805 64.7619 47.287 64.7619 47.7895V49.6842H66.839C67.4195 49.6842 67.9394 49.3103 68.1211 48.7596L70.4279 41.8324C70.769 40.8082 71.4236 39.9173 72.2987 39.2862C73.1738 38.655 74.2252 38.3155 75.3039 38.3158H76.119V33.8947ZM79.9048 40.256V42.1053H86.2143V35.7895H79.9048V40.1651C79.9053 40.1954 79.9053 40.2257 79.9048 40.256ZM54.6667 49.6842V56H60.9762V49.6842H54.6667Z" fill="#004FA3"/>
</svg>
