<svg width="126" height="126" viewBox="0 0 126 126" fill="none" xmlns="http://www.w3.org/2000/svg">
<rect width="126" height="126" rx="10" fill="#FFDE5C"/>
<path d="M14.5587 97.3348V95.7834H22.7101V97.3348H19.5523V106H17.7165V97.3348H14.5587ZM23.1063 106V98.3376H24.8573V99.6146H24.9371C25.0768 99.1723 25.3162 98.8314 25.6554 98.592C25.998 98.3492 26.3888 98.2278 26.8277 98.2278C26.9275 98.2278 27.0389 98.2328 27.162 98.2428C27.2884 98.2494 27.3931 98.2611 27.4763 98.2777V99.9389C27.3998 99.9123 27.2784 99.889 27.1121 99.869C26.9491 99.8458 26.7912 99.8341 26.6382 99.8341C26.3089 99.8341 26.0129 99.9056 25.7502 100.049C25.4908 100.188 25.2863 100.383 25.1366 100.632C24.987 100.882 24.9121 101.169 24.9121 101.495V106H23.1063ZM30.4441 106.155C29.9585 106.155 29.5212 106.068 29.1321 105.895C28.7463 105.719 28.4403 105.46 28.2142 105.117C27.9914 104.774 27.88 104.352 27.88 103.85C27.88 103.418 27.9598 103.06 28.1194 102.777C28.279 102.495 28.4969 102.269 28.7729 102.099C29.049 101.929 29.3599 101.801 29.7058 101.715C30.055 101.625 30.4158 101.56 30.7883 101.52C31.2373 101.474 31.6014 101.432 31.8808 101.396C32.1602 101.356 32.363 101.296 32.4894 101.216C32.6191 101.133 32.684 101.005 32.684 100.832V100.802C32.684 100.426 32.5725 100.135 32.3497 99.9289C32.1269 99.7227 31.806 99.6196 31.3869 99.6196C30.9446 99.6196 30.5937 99.7161 30.3343 99.909C30.0783 100.102 29.9053 100.33 29.8155 100.592L28.1294 100.353C28.2624 99.8873 28.4819 99.4982 28.7879 99.1856C29.0938 98.8697 29.468 98.6335 29.9103 98.4772C30.3526 98.3176 30.8415 98.2378 31.377 98.2378C31.7461 98.2378 32.1136 98.281 32.4794 98.3675C32.8453 98.454 33.1795 98.597 33.4821 98.7965C33.7848 98.9927 34.0275 99.2604 34.2105 99.5997C34.3967 99.9389 34.4898 100.363 34.4898 100.872V106H32.7538V104.947H32.6939C32.5842 105.16 32.4295 105.36 32.23 105.546C32.0338 105.729 31.786 105.877 31.4867 105.99C31.1907 106.1 30.8432 106.155 30.4441 106.155ZM30.913 104.828C31.2755 104.828 31.5898 104.756 31.8559 104.613C32.1219 104.467 32.3264 104.274 32.4694 104.035C32.6158 103.795 32.6889 103.534 32.6889 103.251V102.348C32.6324 102.395 32.536 102.438 32.3996 102.478C32.2666 102.518 32.1169 102.553 31.9506 102.583C31.7844 102.613 31.6197 102.639 31.4568 102.663C31.2938 102.686 31.1525 102.706 31.0327 102.723C30.7634 102.759 30.5222 102.819 30.3094 102.902C30.0966 102.985 29.9286 103.102 29.8056 103.251C29.6825 103.398 29.621 103.587 29.621 103.82C29.621 104.153 29.7424 104.404 29.9851 104.573C30.2279 104.743 30.5372 104.828 30.913 104.828ZM37.8118 101.51V106H36.006V98.3376H37.732V99.6396H37.8218C37.9981 99.2106 38.2791 98.8697 38.6649 98.6169C39.054 98.3642 39.5346 98.2378 40.1066 98.2378C40.6354 98.2378 41.096 98.3509 41.4884 98.577C41.8842 98.8032 42.1901 99.1307 42.4063 99.5598C42.6258 99.9888 42.7339 100.509 42.7306 101.121V106H40.9247V101.401C40.9247 100.888 40.7917 100.488 40.5256 100.198C40.2629 99.909 39.8987 99.7643 39.4331 99.7643C39.1172 99.7643 38.8362 99.8341 38.5901 99.9738C38.3473 100.11 38.1561 100.308 38.0164 100.567C37.88 100.827 37.8118 101.141 37.8118 101.51ZM50.3228 100.363L48.6766 100.542C48.63 100.376 48.5485 100.22 48.4321 100.074C48.3191 99.9272 48.1661 99.8092 47.9732 99.7194C47.7803 99.6296 47.5442 99.5847 47.2648 99.5847C46.889 99.5847 46.5731 99.6662 46.317 99.8291C46.0642 99.9921 45.9395 100.203 45.9428 100.463C45.9395 100.686 46.021 100.867 46.1873 101.006C46.3569 101.146 46.6363 101.261 47.0254 101.351L48.3324 101.63C49.0574 101.786 49.5961 102.034 49.9487 102.373C50.3045 102.713 50.4841 103.157 50.4874 103.705C50.4841 104.187 50.3428 104.613 50.0634 104.982C49.7874 105.348 49.4032 105.634 48.911 105.84C48.4188 106.047 47.8535 106.15 47.2149 106.15C46.2771 106.15 45.5221 105.953 44.9501 105.561C44.3781 105.165 44.0372 104.615 43.9275 103.91L45.6884 103.74C45.7682 104.086 45.9379 104.347 46.1973 104.523C46.4567 104.7 46.7942 104.788 47.2099 104.788C47.639 104.788 47.9832 104.7 48.2426 104.523C48.5053 104.347 48.6367 104.129 48.6367 103.87C48.6367 103.65 48.5519 103.469 48.3823 103.326C48.216 103.183 47.9566 103.073 47.604 102.997L46.297 102.723C45.562 102.57 45.0183 102.312 44.6658 101.949C44.3132 101.583 44.1386 101.121 44.142 100.562C44.1386 100.09 44.2667 99.6811 44.5261 99.3353C44.7888 98.9861 45.153 98.7167 45.6186 98.5271C46.0875 98.3342 46.6279 98.2378 47.2399 98.2378C48.1378 98.2378 48.8445 98.429 49.36 98.8115C49.8788 99.1939 50.1998 99.7111 50.3228 100.363ZM51.6768 108.873V98.3376H53.4528V99.6046H53.5575C53.6506 99.4184 53.782 99.2205 53.9516 99.011C54.1212 98.7982 54.3507 98.6169 54.64 98.4673C54.9294 98.3143 55.2985 98.2378 55.7475 98.2378C56.3395 98.2378 56.8733 98.3891 57.3488 98.6917C57.8277 98.9911 58.2069 99.435 58.4862 100.024C58.7689 100.609 58.9103 101.327 58.9103 102.179C58.9103 103.02 58.7722 103.735 58.4962 104.324C58.2202 104.912 57.8444 105.361 57.3688 105.671C56.8932 105.98 56.3545 106.135 55.7525 106.135C55.3135 106.135 54.9493 106.062 54.66 105.915C54.3707 105.769 54.1379 105.593 53.9616 105.386C53.7887 105.177 53.654 104.979 53.5575 104.793H53.4827V108.873H51.6768ZM53.4478 102.169C53.4478 102.664 53.5176 103.098 53.6573 103.471C53.8003 103.843 54.0048 104.134 54.2709 104.344C54.5403 104.55 54.8662 104.653 55.2487 104.653C55.6477 104.653 55.982 104.547 56.2514 104.334C56.5207 104.118 56.7236 103.823 56.86 103.451C56.9996 103.075 57.0695 102.648 57.0695 102.169C57.0695 101.693 57.0013 101.271 56.865 100.902C56.7286 100.533 56.5257 100.243 56.2563 100.034C55.987 99.8241 55.6511 99.7194 55.2487 99.7194C54.8629 99.7194 54.5353 99.8208 54.2659 100.024C53.9965 100.227 53.792 100.511 53.6523 100.877C53.516 101.243 53.4478 101.673 53.4478 102.169ZM63.4994 106.15C62.7511 106.15 62.1026 105.985 61.5538 105.656C61.0051 105.327 60.5794 104.866 60.2768 104.274C59.9775 103.682 59.8278 102.99 59.8278 102.199C59.8278 101.407 59.9775 100.714 60.2768 100.118C60.5794 99.5232 61.0051 99.0609 61.5538 98.7316C62.1026 98.4024 62.7511 98.2378 63.4994 98.2378C64.2477 98.2378 64.8962 98.4024 65.4449 98.7316C65.9937 99.0609 66.4177 99.5232 66.717 100.118C67.0197 100.714 67.171 101.407 67.171 102.199C67.171 102.99 67.0197 103.682 66.717 104.274C66.4177 104.866 65.9937 105.327 65.4449 105.656C64.8962 105.985 64.2477 106.15 63.4994 106.15ZM63.5094 104.703C63.9151 104.703 64.2543 104.592 64.527 104.369C64.7997 104.143 65.0026 103.84 65.1356 103.461C65.272 103.082 65.3402 102.659 65.3402 102.194C65.3402 101.725 65.272 101.301 65.1356 100.922C65.0026 100.539 64.7997 100.235 64.527 100.009C64.2543 99.7826 63.9151 99.6695 63.5094 99.6695C63.0936 99.6695 62.7478 99.7826 62.4717 100.009C62.199 100.235 61.9945 100.539 61.8581 100.922C61.7251 101.301 61.6586 101.725 61.6586 102.194C61.6586 102.659 61.7251 103.082 61.8581 103.461C61.9945 103.84 62.199 104.143 62.4717 104.369C62.7478 104.592 63.0936 104.703 63.5094 104.703ZM68.404 106V98.3376H70.155V99.6146H70.2348C70.3745 99.1723 70.614 98.8314 70.9532 98.592C71.2957 98.3492 71.6865 98.2278 72.1255 98.2278C72.2253 98.2278 72.3367 98.2328 72.4597 98.2428C72.5861 98.2494 72.6909 98.2611 72.774 98.2777V99.9389C72.6975 99.9123 72.5761 99.889 72.4099 99.869C72.2469 99.8458 72.0889 99.8341 71.9359 99.8341C71.6067 99.8341 71.3107 99.9056 71.048 100.049C70.7886 100.188 70.584 100.383 70.4344 100.632C70.2847 100.882 70.2099 101.169 70.2099 101.495V106H68.404ZM77.9119 98.3376V99.7344H73.507V98.3376H77.9119ZM74.5945 96.5018H76.4003V103.695C76.4003 103.938 76.4369 104.124 76.5101 104.254C76.5866 104.38 76.6863 104.467 76.8094 104.513C76.9325 104.56 77.0688 104.583 77.2185 104.583C77.3315 104.583 77.4346 104.575 77.5278 104.558C77.6242 104.542 77.6974 104.527 77.7473 104.513L78.0516 105.925C77.9551 105.958 77.8171 105.995 77.6375 106.035C77.4612 106.075 77.2451 106.098 76.989 106.105C76.5367 106.118 76.1293 106.05 75.7668 105.9C75.4043 105.747 75.1166 105.511 74.9038 105.192C74.6942 104.873 74.5911 104.473 74.5945 103.995V96.5018ZM81.3274 106.155C80.8419 106.155 80.4045 106.068 80.0154 105.895C79.6296 105.719 79.3237 105.46 79.0975 105.117C78.8747 104.774 78.7633 104.352 78.7633 103.85C78.7633 103.418 78.8431 103.06 79.0028 102.777C79.1624 102.495 79.3802 102.269 79.6563 102.099C79.9323 101.929 80.2432 101.801 80.5891 101.715C80.9383 101.625 81.2992 101.56 81.6716 101.52C82.1206 101.474 82.4848 101.432 82.7641 101.396C83.0435 101.356 83.2464 101.296 83.3727 101.216C83.5024 101.133 83.5673 101.005 83.5673 100.832V100.802C83.5673 100.426 83.4559 100.135 83.2331 99.9289C83.0102 99.7227 82.6893 99.6196 82.2703 99.6196C81.8279 99.6196 81.4771 99.7161 81.2177 99.909C80.9616 100.102 80.7887 100.33 80.6989 100.592L79.0127 100.353C79.1458 99.8873 79.3653 99.4982 79.6712 99.1856C79.9772 98.8697 80.3513 98.6335 80.7936 98.4772C81.236 98.3176 81.7249 98.2378 82.2603 98.2378C82.6294 98.2378 82.9969 98.281 83.3628 98.3675C83.7286 98.454 84.0628 98.597 84.3655 98.7965C84.6681 98.9927 84.9109 99.2604 85.0938 99.5997C85.28 99.9389 85.3732 100.363 85.3732 100.872V106H83.6371V104.947H83.5773C83.4675 105.16 83.3129 105.36 83.1133 105.546C82.9171 105.729 82.6694 105.877 82.37 105.99C82.0741 106.1 81.7265 106.155 81.3274 106.155ZM81.7964 104.828C82.1589 104.828 82.4731 104.756 82.7392 104.613C83.0053 104.467 83.2098 104.274 83.3528 104.035C83.4991 103.795 83.5723 103.534 83.5723 103.251V102.348C83.5157 102.395 83.4193 102.438 83.2829 102.478C83.1499 102.518 83.0003 102.553 82.834 102.583C82.6677 102.613 82.5031 102.639 82.3401 102.663C82.1771 102.686 82.0358 102.706 81.9161 102.723C81.6467 102.759 81.4056 102.819 81.1927 102.902C80.9799 102.985 80.8119 103.102 80.6889 103.251C80.5658 103.398 80.5043 103.587 80.5043 103.82C80.5043 104.153 80.6257 104.404 80.8685 104.573C81.1113 104.743 81.4205 104.828 81.7964 104.828ZM90.7156 98.3376V99.7344H86.3106V98.3376H90.7156ZM87.3982 96.5018H89.204V103.695C89.204 103.938 89.2406 104.124 89.3138 104.254C89.3903 104.38 89.49 104.467 89.6131 104.513C89.7361 104.56 89.8725 104.583 90.0221 104.583C90.1352 104.583 90.2383 104.575 90.3314 104.558C90.4279 104.542 90.501 104.527 90.5509 104.513L90.8552 105.925C90.7588 105.958 90.6208 105.995 90.4412 106.035C90.2649 106.075 90.0487 106.098 89.7927 106.105C89.3404 106.118 88.933 106.05 88.5705 105.9C88.208 105.747 87.9203 105.511 87.7074 105.192C87.4979 104.873 87.3948 104.473 87.3982 103.995V96.5018ZM91.9262 106V98.3376H93.732V106H91.9262ZM92.8341 97.25C92.5481 97.25 92.302 97.1553 92.0958 96.9657C91.8896 96.7728 91.7865 96.5417 91.7865 96.2723C91.7865 95.9996 91.8896 95.7684 92.0958 95.5789C92.302 95.386 92.5481 95.2895 92.8341 95.2895C93.1234 95.2895 93.3695 95.386 93.5724 95.5789C93.7786 95.7684 93.8817 95.9996 93.8817 96.2723C93.8817 96.5417 93.7786 96.7728 93.5724 96.9657C93.3695 97.1553 93.1234 97.25 92.8341 97.25ZM98.6317 106.15C97.8834 106.15 97.2349 105.985 96.6861 105.656C96.1374 105.327 95.7117 104.866 95.4091 104.274C95.1097 103.682 94.9601 102.99 94.9601 102.199C94.9601 101.407 95.1097 100.714 95.4091 100.118C95.7117 99.5232 96.1374 99.0609 96.6861 98.7316C97.2349 98.4024 97.8834 98.2378 98.6317 98.2378C99.38 98.2378 100.028 98.4024 100.577 98.7316C101.126 99.0609 101.55 99.5232 101.849 100.118C102.152 100.714 102.303 101.407 102.303 102.199C102.303 102.99 102.152 103.682 101.849 104.274C101.55 104.866 101.126 105.327 100.577 105.656C100.028 105.985 99.38 106.15 98.6317 106.15ZM98.6416 104.703C99.0474 104.703 99.3866 104.592 99.6593 104.369C99.932 104.143 100.135 103.84 100.268 103.461C100.404 103.082 100.472 102.659 100.472 102.194C100.472 101.725 100.404 101.301 100.268 100.922C100.135 100.539 99.932 100.235 99.6593 100.009C99.3866 99.7826 99.0474 99.6695 98.6416 99.6695C98.2259 99.6695 97.8801 99.7826 97.604 100.009C97.3313 100.235 97.1268 100.539 96.9904 100.922C96.8574 101.301 96.7909 101.725 96.7909 102.194C96.7909 102.659 96.8574 103.082 96.9904 103.461C97.1268 103.84 97.3313 104.143 97.604 104.369C97.8801 104.592 98.2259 104.703 98.6416 104.703ZM105.342 101.51V106H103.536V98.3376H105.262V99.6396H105.352C105.528 99.2106 105.809 98.8697 106.195 98.6169C106.584 98.3642 107.065 98.2378 107.637 98.2378C108.166 98.2378 108.626 98.3509 109.019 98.577C109.415 98.8032 109.72 99.1307 109.937 99.5598C110.156 99.9888 110.264 100.509 110.261 101.121V106H108.455V101.401C108.455 100.888 108.322 100.488 108.056 100.198C107.793 99.909 107.429 99.7643 106.963 99.7643C106.648 99.7643 106.366 99.8341 106.12 99.9738C105.878 100.11 105.686 100.308 105.547 100.567C105.41 100.827 105.342 101.141 105.342 101.51Z" fill="#004FA3"/>
<path d="M82.7584 47.022L79.6424 37.6717C79.1904 36.3107 78.321 35.1268 77.1577 34.2881C75.9943 33.4494 74.5963 32.9987 73.1622 33H52.3934C50.9593 32.9987 49.5612 33.4494 48.3979 34.2881C47.2346 35.1268 46.3651 36.3107 45.9131 37.6717L42.7971 47.022C41.9694 47.3693 41.2625 47.9531 40.765 48.7002C40.2674 49.4473 40.0013 50.3246 40 51.2222V62.6111C40 64.3263 40.9635 65.8046 42.3666 66.5813C42.337 66.7316 42.2778 66.8683 42.2778 67.0254V71.7222C42.2778 72.3263 42.5178 72.9057 42.9449 73.3329C43.3721 73.76 43.9515 74 44.5556 74H46.8333C47.4374 74 48.0168 73.76 48.444 73.3329C48.8711 72.9057 49.1111 72.3263 49.1111 71.7222V67.1667H76.4444V71.7222C76.4444 72.3263 76.6844 72.9057 77.1116 73.3329C77.5388 73.76 78.1181 74 78.7222 74H81C81.6041 74 82.1835 73.76 82.6106 73.3329C83.0378 72.9057 83.2778 72.3263 83.2778 71.7222V67.0254C83.2778 66.8683 83.2186 66.7293 83.1889 66.5813C83.9028 66.1921 84.499 65.6183 84.9153 64.9199C85.3317 64.2215 85.5528 63.4242 85.5556 62.6111V51.2222C85.5556 49.3339 84.3984 47.7122 82.7584 47.022ZM44.5556 62.6111V51.2222H81L81.0046 62.6111H44.5556ZM52.3934 37.5556H73.1599C74.1416 37.5556 75.0117 38.1797 75.3215 39.1136L77.8407 46.6667H47.7148L50.2318 39.1136C50.3829 38.6598 50.673 38.2651 51.061 37.9855C51.449 37.7059 51.9151 37.5554 52.3934 37.5556V37.5556Z" fill="#004FA3"/>
<path d="M50.25 60.3333C52.137 60.3333 53.6667 58.8036 53.6667 56.9167C53.6667 55.0297 52.137 53.5 50.25 53.5C48.3631 53.5 46.8334 55.0297 46.8334 56.9167C46.8334 58.8036 48.3631 60.3333 50.25 60.3333Z" fill="#004FA3"/>
<path d="M75.3056 60.3333C77.1926 60.3333 78.7222 58.8036 78.7222 56.9167C78.7222 55.0297 77.1926 53.5 75.3056 53.5C73.4186 53.5 71.8889 55.0297 71.8889 56.9167C71.8889 58.8036 73.4186 60.3333 75.3056 60.3333Z" fill="#004FA3"/>
</svg>
