<svg width="72" height="83" viewBox="0 0 72 83" fill="none" xmlns="http://www.w3.org/2000/svg">
<path d="M9.75266 71.2305H7.88694C7.83372 70.9245 7.73562 70.6535 7.59261 70.4174C7.4496 70.1779 7.27168 69.975 7.05883 69.8088C6.84599 69.6425 6.60321 69.5178 6.3305 69.4346C6.06112 69.3482 5.77012 69.3049 5.4575 69.3049C4.90211 69.3049 4.4099 69.4446 3.98088 69.724C3.55186 70 3.21597 70.4057 2.97319 70.9412C2.73041 71.4733 2.60902 72.1235 2.60902 72.8917C2.60902 73.6732 2.73041 74.3317 2.97319 74.8672C3.21929 75.3993 3.55519 75.8017 3.98088 76.0744C4.4099 76.3438 4.90044 76.4785 5.45251 76.4785C5.75848 76.4785 6.04449 76.4386 6.31055 76.3588C6.57993 76.2756 6.82104 76.1542 7.03389 75.9946C7.25006 75.835 7.43131 75.6387 7.57764 75.4059C7.7273 75.1731 7.8304 74.9071 7.88694 74.6078L9.75266 74.6177C9.68282 75.1033 9.5315 75.5589 9.2987 75.9846C9.06923 76.4103 8.76825 76.7861 8.39577 77.112C8.02329 77.4346 7.58762 77.6874 7.08876 77.8703C6.58991 78.0499 6.03617 78.1397 5.42757 78.1397C4.52963 78.1397 3.72813 77.9318 3.02308 77.5161C2.31802 77.1004 1.76263 76.5001 1.35689 75.7152C0.951155 74.9304 0.748286 73.9892 0.748286 72.8917C0.748286 71.7909 0.952818 70.8497 1.36188 70.0682C1.77094 69.2833 2.328 68.683 3.03305 68.2673C3.7381 67.8516 4.53628 67.6437 5.42757 67.6437C5.99627 67.6437 6.52505 67.7235 7.01393 67.8832C7.50282 68.0428 7.93848 68.2773 8.32094 68.5866C8.7034 68.8925 9.01768 69.2683 9.26378 69.714C9.51321 70.1563 9.67617 70.6618 9.75266 71.2305ZM13.273 78.1546C12.7874 78.1546 12.3501 78.0682 11.961 77.8952C11.5752 77.719 11.2692 77.4596 11.0431 77.117C10.8203 76.7745 10.7088 76.3521 10.7088 75.8499C10.7088 75.4176 10.7887 75.0601 10.9483 74.7774C11.1079 74.4947 11.3258 74.2685 11.6018 74.0989C11.8778 73.9293 12.1888 73.8013 12.5347 73.7148C12.8839 73.625 13.2447 73.5602 13.6172 73.5203C14.0662 73.4737 14.4303 73.4321 14.7097 73.3955C14.989 73.3556 15.1919 73.2958 15.3183 73.216C15.448 73.1328 15.5128 73.0048 15.5128 72.8318V72.8019C15.5128 72.4261 15.4014 72.1351 15.1786 71.9289C14.9558 71.7227 14.6349 71.6196 14.2158 71.6196C13.7735 71.6196 13.4226 71.7161 13.1632 71.909C12.9071 72.1018 12.7342 72.3297 12.6444 72.5924L10.9583 72.3529C11.0913 71.8873 11.3108 71.4982 11.6168 71.1856C11.9227 70.8697 12.2969 70.6335 12.7392 70.4772C13.1815 70.3176 13.6704 70.2378 14.2058 70.2378C14.575 70.2378 14.9425 70.281 15.3083 70.3675C15.6741 70.454 16.0084 70.597 16.311 70.7965C16.6137 70.9927 16.8564 71.2604 17.0393 71.5997C17.2256 71.9389 17.3187 72.3629 17.3187 72.8717V78H15.5827V76.9474H15.5228C15.4131 77.1603 15.2584 77.3598 15.0589 77.546C14.8627 77.729 14.6149 77.8769 14.3156 77.99C14.0196 78.0998 13.6721 78.1546 13.273 78.1546ZM13.7419 76.8277C14.1044 76.8277 14.4187 76.7562 14.6847 76.6132C14.9508 76.4668 15.1553 76.274 15.2983 76.0345C15.4447 75.7951 15.5178 75.534 15.5178 75.2513V74.3484C15.4613 74.3949 15.3649 74.4382 15.2285 74.4781C15.0955 74.518 14.9458 74.5529 14.7795 74.5828C14.6132 74.6128 14.4486 74.6394 14.2857 74.6626C14.1227 74.6859 13.9814 74.7059 13.8616 74.7225C13.5922 74.7591 13.3511 74.819 13.1383 74.9021C12.9254 74.9852 12.7575 75.1016 12.6344 75.2513C12.5114 75.3976 12.4499 75.5872 12.4499 75.82C12.4499 76.1526 12.5712 76.4037 12.814 76.5733C13.0568 76.7429 13.3661 76.8277 13.7419 76.8277ZM18.8349 78V70.3376H20.5859V71.6146H20.6657C20.8053 71.1723 21.0448 70.8314 21.384 70.592C21.7266 70.3492 22.1173 70.2278 22.5563 70.2278C22.6561 70.2278 22.7675 70.2328 22.8906 70.2428C23.017 70.2494 23.1217 70.2611 23.2049 70.2777V71.9389C23.1284 71.9123 23.007 71.889 22.8407 71.869C22.6777 71.8458 22.5198 71.8341 22.3668 71.8341C22.0375 71.8341 21.7415 71.9056 21.4788 72.0486C21.2194 72.1883 21.0149 72.3829 20.8652 72.6323C20.7156 72.8817 20.6407 73.1694 20.6407 73.4953V78H18.8349ZM27.1816 78.1497C26.4134 78.1497 25.7499 77.99 25.1912 77.6708C24.6358 77.3482 24.2084 76.8925 23.9091 76.3039C23.6098 75.7119 23.4601 75.0152 23.4601 74.2137C23.4601 73.4255 23.6098 72.7337 23.9091 72.1384C24.2118 71.5398 24.6341 71.0742 25.1762 70.7416C25.7183 70.4057 26.3552 70.2378 27.0868 70.2378C27.5591 70.2378 28.0047 70.3143 28.4238 70.4673C28.8461 70.6169 29.2186 70.8497 29.5412 71.1657C29.8671 71.4816 30.1232 71.884 30.3095 72.3729C30.4957 72.8584 30.5888 73.4371 30.5888 74.1089V74.6626H24.3082V73.4454H28.8578C28.8545 73.0996 28.7796 72.7919 28.6333 72.5225C28.487 72.2498 28.2824 72.0353 28.0197 71.879C27.7603 71.7227 27.4577 71.6446 27.1118 71.6446C26.7426 71.6446 26.4184 71.7344 26.139 71.9139C25.8596 72.0902 25.6418 72.323 25.4855 72.6123C25.3325 72.8984 25.2544 73.2126 25.251 73.5552V74.6177C25.251 75.0634 25.3325 75.4459 25.4955 75.7651C25.6584 76.0811 25.8863 76.3238 26.1789 76.4935C26.4716 76.6597 26.8141 76.7429 27.2066 76.7429C27.4693 76.7429 27.7071 76.7063 27.9199 76.6331C28.1328 76.5566 28.3174 76.4452 28.4737 76.2989C28.63 76.1526 28.748 75.9713 28.8278 75.7551L30.514 75.9447C30.4076 76.3904 30.2047 76.7795 29.9054 77.112C29.6094 77.4413 29.2303 77.6974 28.768 77.8803C28.3057 78.0599 27.7769 78.1497 27.1816 78.1497ZM35.6431 70.3376V71.7344H31.2382V70.3376H35.6431ZM32.3257 68.5018H34.1316V75.6953C34.1316 75.9381 34.1682 76.1243 34.2413 76.254C34.3178 76.3804 34.4176 76.4668 34.5406 76.5134C34.6637 76.56 34.8 76.5832 34.9497 76.5832C35.0628 76.5832 35.1659 76.5749 35.259 76.5583C35.3554 76.5417 35.4286 76.5267 35.4785 76.5134L35.7828 77.9252C35.6864 77.9584 35.5483 77.995 35.3687 78.0349C35.1925 78.0748 34.9763 78.0981 34.7202 78.1048C34.2679 78.1181 33.8605 78.0499 33.498 77.9002C33.1355 77.7472 32.8479 77.5111 32.635 77.1919C32.4255 76.8726 32.3224 76.4735 32.3257 75.9946V68.5018ZM39.0587 78.1546C38.5731 78.1546 38.1358 78.0682 37.7467 77.8952C37.3609 77.719 37.0549 77.4596 36.8288 77.117C36.606 76.7745 36.4945 76.3521 36.4945 75.8499C36.4945 75.4176 36.5744 75.0601 36.734 74.7774C36.8936 74.4947 37.1115 74.2685 37.3875 74.0989C37.6635 73.9293 37.9745 73.8013 38.3204 73.7148C38.6696 73.625 39.0304 73.5602 39.4029 73.5203C39.8519 73.4737 40.216 73.4321 40.4954 73.3955C40.7747 73.3556 40.9776 73.2958 41.104 73.216C41.2337 73.1328 41.2985 73.0048 41.2985 72.8318V72.8019C41.2985 72.4261 41.1871 72.1351 40.9643 71.9289C40.7415 71.7227 40.4206 71.6196 40.0015 71.6196C39.5592 71.6196 39.2083 71.7161 38.9489 71.909C38.6928 72.1018 38.5199 72.3297 38.4301 72.5924L36.744 72.3529C36.877 71.8873 37.0965 71.4982 37.4025 71.1856C37.7084 70.8697 38.0826 70.6335 38.5249 70.4772C38.9672 70.3176 39.4561 70.2378 39.9915 70.2378C40.3607 70.2378 40.7282 70.281 41.094 70.3675C41.4598 70.454 41.7941 70.597 42.0967 70.7965C42.3994 70.9927 42.6421 71.2604 42.825 71.5997C43.0113 71.9389 43.1044 72.3629 43.1044 72.8717V78H41.3684V76.9474H41.3085C41.1988 77.1603 41.0441 77.3598 40.8446 77.546C40.6484 77.729 40.4006 77.8769 40.1013 77.99C39.8053 78.0998 39.4578 78.1546 39.0587 78.1546ZM39.5276 76.8277C39.8901 76.8277 40.2044 76.7562 40.4704 76.6132C40.7365 76.4668 40.941 76.274 41.084 76.0345C41.2304 75.7951 41.3035 75.534 41.3035 75.2513V74.3484C41.247 74.3949 41.1505 74.4382 41.0142 74.4781C40.8812 74.518 40.7315 74.5529 40.5652 74.5828C40.3989 74.6128 40.2343 74.6394 40.0714 74.6626C39.9084 74.6859 39.767 74.7059 39.6473 74.7225C39.3779 74.7591 39.1368 74.819 38.924 74.9021C38.7111 74.9852 38.5432 75.1016 38.4201 75.2513C38.2971 75.3976 38.2356 75.5872 38.2356 75.82C38.2356 76.1526 38.3569 76.4037 38.5997 76.5733C38.8425 76.7429 39.1518 76.8277 39.5276 76.8277ZM46.2668 75.5955L46.2618 73.4155H46.5511L49.3048 70.3376H51.415L48.0278 74.1089H47.6536L46.2668 75.5955ZM44.6206 78V67.7834H46.4264V78H44.6206ZM49.4295 78L46.9353 74.513L48.1525 73.2409L51.5896 78H49.4295ZM52.3188 78V70.3376H54.1247V78H52.3188ZM53.2267 69.25C52.9407 69.25 52.6946 69.1553 52.4884 68.9657C52.2822 68.7728 52.1791 68.5417 52.1791 68.2723C52.1791 67.9996 52.2822 67.7684 52.4884 67.5789C52.6946 67.386 52.9407 67.2895 53.2267 67.2895C53.5161 67.2895 53.7622 67.386 53.965 67.5789C54.1712 67.7684 54.2743 67.9996 54.2743 68.2723C54.2743 68.5417 54.1712 68.7728 53.965 68.9657C53.7622 69.1553 53.5161 69.25 53.2267 69.25ZM57.4878 73.5103V78H55.682V70.3376H57.408V71.6396H57.4978C57.6741 71.2106 57.9551 70.8697 58.3409 70.6169C58.73 70.3642 59.2106 70.2378 59.7826 70.2378C60.3114 70.2378 60.772 70.3509 61.1644 70.577C61.5602 70.8032 61.8661 71.1307 62.0823 71.5598C62.3018 71.9888 62.4099 72.5092 62.4066 73.1212V78H60.6007V73.4005C60.6007 72.8884 60.4677 72.4876 60.2016 72.1983C59.9389 71.909 59.5747 71.7643 59.1091 71.7643C58.7932 71.7643 58.5122 71.8341 58.2661 71.9738C58.0233 72.1102 57.8321 72.308 57.6924 72.5674C57.556 72.8268 57.4878 73.1411 57.4878 73.5103ZM67.275 81.0331C66.6265 81.0331 66.0695 80.9449 65.6039 80.7687C65.1383 80.5957 64.7641 80.3629 64.4814 80.0703C64.1988 79.7776 64.0025 79.4533 63.8928 79.0975L65.5191 78.7034C65.5922 78.853 65.6987 79.001 65.8383 79.1474C65.978 79.297 66.1659 79.4201 66.402 79.5165C66.6415 79.6163 66.9425 79.6662 67.305 79.6662C67.8171 79.6662 68.2412 79.5415 68.5771 79.292C68.913 79.0459 69.0809 78.6402 69.0809 78.0748V76.6232H68.9911C68.898 76.8094 68.7616 77.0006 68.5821 77.1968C68.4058 77.3931 68.1713 77.5577 67.8787 77.6907C67.5893 77.8237 67.2252 77.8903 66.7862 77.8903C66.1975 77.8903 65.6637 77.7522 65.1848 77.4762C64.7093 77.1968 64.3301 76.7811 64.0474 76.2291C63.7681 75.6737 63.6284 74.9786 63.6284 74.1438C63.6284 73.3024 63.7681 72.5924 64.0474 72.0137C64.3301 71.4317 64.7109 70.9911 65.1898 70.6917C65.6687 70.3891 66.2025 70.2378 66.7912 70.2378C67.2401 70.2378 67.6093 70.3143 67.8986 70.4673C68.1913 70.6169 68.4241 70.7982 68.597 71.011C68.77 71.2205 68.9013 71.4184 68.9911 71.6046H69.0909V70.3376H70.8718V78.1247C70.8718 78.7799 70.7155 79.322 70.4029 79.751C70.0903 80.18 69.6629 80.5009 69.1208 80.7138C68.5787 80.9266 67.9635 81.0331 67.275 81.0331ZM67.29 76.4735C67.6725 76.4735 67.9984 76.3804 68.2678 76.1941C68.5372 76.0079 68.7417 75.7402 68.8814 75.391C69.021 75.0418 69.0909 74.6227 69.0909 74.1339C69.0909 73.6516 69.021 73.2293 68.8814 72.8668C68.745 72.5043 68.5421 72.2232 68.2728 72.0237C68.0067 71.8208 67.6791 71.7194 67.29 71.7194C66.8876 71.7194 66.5517 71.8241 66.2823 72.0337C66.0129 72.2432 65.8101 72.5309 65.6737 72.8967C65.5374 73.2592 65.4692 73.6716 65.4692 74.1339C65.4692 74.6028 65.5374 75.0135 65.6737 75.366C65.8134 75.7152 66.0179 75.9879 66.2873 76.1842C66.56 76.3771 66.8943 76.4735 67.29 76.4735Z" fill="#004FA3"/>
<path d="M53.8889 25.5557H39.3529L30.8344 15.3335H18.1111C16.756 15.3348 15.4567 15.8738 14.4985 16.832C13.5403 17.7902 13.0014 19.0895 13 20.4446V30.6668C13.0009 31.5703 13.3602 32.4364 13.999 33.0752C14.6378 33.7141 15.504 34.0733 16.4074 34.0742V46.0002C16.4083 46.9036 16.7676 47.7698 17.4064 48.4086C18.0452 49.0474 18.9114 49.4067 19.8148 49.4076H26.6296C27.5331 49.4067 28.3992 49.0474 29.038 48.4086C29.6769 47.7698 30.0361 46.9036 30.037 46.0002V34.0742H26.6296V46.0002H19.8148V30.6668H16.4074V20.4446C16.4074 19.9928 16.5869 19.5594 16.9064 19.2399C17.2259 18.9204 17.6593 18.7409 18.1111 18.7409H29.2397L37.7582 28.9631H53.8889C54.3407 28.9631 54.7741 29.1426 55.0936 29.4621C55.4131 29.7816 55.5926 30.215 55.5926 30.6668V35.7779H52.1852V46.0002H47.0741V35.7779H43.6667V46.0002C43.6676 46.9036 44.0269 47.7698 44.6657 48.4086C45.3045 49.0474 46.1707 49.4067 47.0741 49.4076H52.1852C53.0886 49.4067 53.9548 49.0474 54.5936 48.4086C55.2324 47.7698 55.5917 46.9036 55.5926 46.0002V39.1853C56.496 39.1844 57.3622 38.8252 58.001 38.1863C58.6398 37.5475 58.9991 36.6814 59 35.7779V30.6668C58.9986 29.3117 58.4597 28.0124 57.5015 27.0542C56.5433 26.096 55.244 25.5571 53.8889 25.5557Z" fill="#004FA3"/>
<path d="M49.6295 23.8519C48.4501 23.8519 47.2972 23.5021 46.3166 22.8469C45.336 22.1917 44.5717 21.2604 44.1204 20.1708C43.6691 19.0812 43.551 17.8823 43.7811 16.7256C44.0111 15.5689 44.5791 14.5064 45.413 13.6724C46.2469 12.8385 47.3094 12.2706 48.4661 12.0405C49.6228 11.8104 50.8218 11.9285 51.9114 12.3798C53.001 12.8312 53.9323 13.5954 54.5875 14.576C55.2427 15.5567 55.5924 16.7095 55.5924 17.8889C55.5906 19.4698 54.9618 20.9855 53.8439 22.1034C52.726 23.2212 51.2104 23.8501 49.6295 23.8519ZM49.6295 15.3333C49.124 15.3333 48.6299 15.4832 48.2097 15.764C47.7894 16.0448 47.4619 16.444 47.2684 16.9109C47.075 17.3779 47.0244 17.8917 47.123 18.3875C47.2216 18.8832 47.465 19.3385 47.8224 19.6959C48.1798 20.0533 48.6352 20.2967 49.1309 20.3953C49.6266 20.4939 50.1405 20.4433 50.6074 20.2499C51.0744 20.0565 51.4735 19.7289 51.7543 19.3087C52.0351 18.8884 52.185 18.3943 52.185 17.8889C52.1841 17.2114 51.9146 16.5619 51.4355 16.0828C50.9564 15.6038 50.3069 15.3342 49.6295 15.3333ZM23.222 13.6296C21.8742 13.6296 20.5566 13.2299 19.4359 12.4811C18.3152 11.7323 17.4418 10.668 16.926 9.42273C16.4102 8.17749 16.2752 6.80726 16.5382 5.48531C16.8011 4.16337 17.4502 2.94909 18.4032 1.99602C19.3563 1.04295 20.5706 0.393899 21.8925 0.130948C23.2145 -0.132003 24.5847 0.00295273 25.83 0.51875C27.0752 1.03455 28.1395 1.90802 28.8884 3.02871C29.6372 4.1494 30.0369 5.46697 30.0369 6.81482C30.0351 8.62167 29.3165 10.354 28.0389 11.6316C26.7612 12.9093 25.0289 13.6278 23.222 13.6296V13.6296ZM23.222 3.40741C22.5481 3.40741 21.8893 3.60725 21.329 3.98166C20.7686 4.35607 20.3319 4.88824 20.074 5.51086C19.8161 6.13348 19.7486 6.8186 19.8801 7.47957C20.0116 8.14054 20.3361 8.74768 20.8126 9.22422C21.2892 9.70075 21.8963 10.0253 22.5573 10.1568C23.2183 10.2882 23.9034 10.2208 24.526 9.96285C25.1486 9.70495 25.6808 9.26822 26.0552 8.70787C26.4296 8.14753 26.6295 7.48874 26.6295 6.81482C26.6285 5.91139 26.2693 5.04523 25.6304 4.40641C24.9916 3.7676 24.1255 3.40831 23.222 3.40741V3.40741Z" fill="#004FA3"/>
</svg>
