<svg width="95" height="101" viewBox="0 0 95 101" fill="none" xmlns="http://www.w3.org/2000/svg">
<path d="M64.4285 66.4946H43.3673M9.60645 9.61475C9.60645 9.61475 33.0602 16.2557 40.1048 41.4664L9.60645 9.61475ZM40.0685 41.5909H65.5039C66.1026 41.5909 66.6767 41.8292 67.1 42.2534C67.5233 42.6776 67.7611 43.2529 67.7611 43.8529V51.4509C67.7611 52.0508 67.5233 52.6261 67.1 53.0503C66.6767 53.4746 66.1026 53.7129 65.5039 53.7129H41.5306C41.2342 53.7129 40.9407 53.6544 40.6668 53.5407C40.393 53.427 40.1441 53.2604 39.9346 53.0503C39.725 52.8403 39.5587 52.5909 39.4453 52.3165C39.3318 52.0421 39.2734 51.7479 39.2734 51.4509V42.3956C39.2734 42.1825 39.358 41.9781 39.5084 41.8274C39.6589 41.6767 39.863 41.5921 40.0758 41.5921L40.0685 41.5909Z" stroke="#004FA3" stroke-width="4.5" stroke-linecap="round" stroke-linejoin="round"/>
<path d="M43.4736 60.0669H46.1315V53.7471H61.5169V60.0669H65.5223L68.0492 60.0482V60.217" stroke="#004FA3" stroke-width="4.5" stroke-linecap="round" stroke-linejoin="round"/>
<path d="M34.6188 72.5073C39.8001 72.5073 44.0003 68.3006 44.0003 63.1113C44.0003 57.9221 39.8001 53.7153 34.6188 53.7153C29.4375 53.7153 25.2373 57.9221 25.2373 63.1113C25.2373 68.3006 29.4375 72.5073 34.6188 72.5073Z" stroke="#004FA3" stroke-width="4.5" stroke-linecap="round" stroke-linejoin="round"/>
<path d="M70.9048 72.511C74.4884 72.511 77.3935 69.601 77.3935 66.0113C77.3935 62.4217 74.4884 59.5117 70.9048 59.5117C67.3211 59.5117 64.416 62.4217 64.416 66.0113C64.416 69.601 67.3211 72.511 70.9048 72.511Z" stroke="#004FA3" stroke-width="4.5" stroke-linecap="round" stroke-linejoin="round"/>
<path d="M61.7505 37.0957H56.5269C55.7254 37.0957 55.0757 37.7454 55.0757 38.5469V40.1492C55.0757 40.9506 55.7254 41.6004 56.5269 41.6004H61.7505C62.552 41.6004 63.2017 40.9506 63.2017 40.1492V38.5469C63.2017 37.7454 62.552 37.0957 61.7505 37.0957Z" fill="#004FA3"/>
<path d="M11.0077 96V85.7834H12.8585V94.4486H17.3581V96H11.0077ZM20.7899 96.1546C20.3044 96.1546 19.867 96.0682 19.4779 95.8952C19.0921 95.719 18.7862 95.4596 18.56 95.117C18.3372 94.7745 18.2258 94.3521 18.2258 93.8499C18.2258 93.4176 18.3056 93.0601 18.4652 92.7774C18.6249 92.4947 18.8427 92.2685 19.1187 92.0989C19.3948 91.9293 19.7057 91.8013 20.0516 91.7148C20.4008 91.625 20.7616 91.5602 21.1341 91.5203C21.5831 91.4737 21.9473 91.4321 22.2266 91.3955C22.506 91.3556 22.7089 91.2958 22.8352 91.216C22.9649 91.1328 23.0298 91.0048 23.0298 90.8318V90.8019C23.0298 90.4261 22.9184 90.1351 22.6955 89.9289C22.4727 89.7227 22.1518 89.6196 21.7328 89.6196C21.2904 89.6196 20.9396 89.7161 20.6802 89.909C20.4241 90.1018 20.2511 90.3297 20.1614 90.5924L18.4752 90.3529C18.6082 89.8873 18.8277 89.4982 19.1337 89.1856C19.4397 88.8697 19.8138 88.6335 20.2561 88.4772C20.6985 88.3176 21.1873 88.2378 21.7228 88.2378C22.0919 88.2378 22.4594 88.281 22.8253 88.3675C23.1911 88.454 23.5253 88.597 23.828 88.7965C24.1306 88.9927 24.3734 89.2604 24.5563 89.5997C24.7425 89.9389 24.8356 90.3629 24.8356 90.8717V96H23.0996V94.9474H23.0398C22.93 95.1603 22.7754 95.3598 22.5758 95.546C22.3796 95.729 22.1318 95.8769 21.8325 95.99C21.5365 96.0998 21.189 96.1546 20.7899 96.1546ZM21.2588 94.8277C21.6213 94.8277 21.9356 94.7562 22.2017 94.6132C22.4677 94.4668 22.6723 94.274 22.8153 94.0345C22.9616 93.7951 23.0348 93.534 23.0348 93.2513V92.3484C22.9782 92.3949 22.8818 92.4382 22.7454 92.4781C22.6124 92.518 22.4627 92.5529 22.2965 92.5828C22.1302 92.6128 21.9656 92.6394 21.8026 92.6626C21.6396 92.6859 21.4983 92.7059 21.3786 92.7225C21.1092 92.7591 20.8681 92.819 20.6552 92.9021C20.4424 92.9852 20.2744 93.1016 20.1514 93.2513C20.0283 93.3976 19.9668 93.5872 19.9668 93.82C19.9668 94.1526 20.0882 94.4037 20.331 94.5733C20.5737 94.7429 20.883 94.8277 21.2588 94.8277ZM28.1577 91.5103V96H26.3518V88.3376H28.0778V89.6396H28.1676C28.3439 89.2106 28.6249 88.8697 29.0107 88.6169C29.3998 88.3642 29.8804 88.2378 30.4524 88.2378C30.9812 88.2378 31.4418 88.3509 31.8342 88.577C32.23 88.8032 32.536 89.1307 32.7521 89.5598C32.9716 89.9888 33.0797 90.5092 33.0764 91.1212V96H31.2705V91.4005C31.2705 90.8884 31.1375 90.4876 30.8714 90.1983C30.6087 89.909 30.2446 89.7643 29.779 89.7643C29.463 89.7643 29.182 89.8341 28.9359 89.9738C28.6931 90.1102 28.5019 90.308 28.3622 90.5674C28.2258 90.8268 28.1577 91.1411 28.1577 91.5103ZM37.456 96.1347C36.854 96.1347 36.3153 95.98 35.8397 95.6708C35.3641 95.3615 34.9883 94.9125 34.7123 94.3238C34.4362 93.7352 34.2982 93.0202 34.2982 92.1788C34.2982 91.3274 34.4379 90.609 34.7173 90.0237C35 89.435 35.3807 88.9911 35.8596 88.6917C36.3386 88.3891 36.8723 88.2378 37.461 88.2378C37.91 88.2378 38.2791 88.3143 38.5684 88.4673C38.8578 88.6169 39.0873 88.7982 39.2569 89.011C39.4265 89.2205 39.5578 89.4184 39.651 89.6046H39.7258V85.7834H41.5366V96H39.7607V94.7928H39.651C39.5578 94.979 39.4232 95.1769 39.2469 95.3864C39.0706 95.5926 38.8378 95.7689 38.5485 95.9152C38.2592 96.0615 37.895 96.1347 37.456 96.1347ZM37.9598 94.6531C38.3423 94.6531 38.6682 94.55 38.9376 94.3438C39.207 94.1343 39.4115 93.8433 39.5512 93.4708C39.6909 93.0983 39.7607 92.6643 39.7607 92.1688C39.7607 91.6732 39.6909 91.2426 39.5512 90.8767C39.4148 90.5109 39.212 90.2266 38.9426 90.0237C38.6765 89.8208 38.3489 89.7194 37.9598 89.7194C37.5574 89.7194 37.2215 89.8241 36.9521 90.0337C36.6828 90.2432 36.4799 90.5325 36.3435 90.9017C36.2072 91.2708 36.139 91.6932 36.139 92.1688C36.139 92.6477 36.2072 93.075 36.3435 93.4508C36.4832 93.8233 36.6878 94.1176 36.9571 94.3338C37.2298 94.5467 37.5641 94.6531 37.9598 94.6531ZM49.2174 90.3629L47.5712 90.5425C47.5246 90.3762 47.4432 90.2199 47.3268 90.0736C47.2137 89.9272 47.0607 89.8092 46.8678 89.7194C46.6749 89.6296 46.4388 89.5847 46.1594 89.5847C45.7836 89.5847 45.4677 89.6662 45.2116 89.8291C44.9588 89.9921 44.8341 90.2033 44.8375 90.4627C44.8341 90.6855 44.9156 90.8668 45.0819 91.0064C45.2515 91.1461 45.5309 91.2609 45.92 91.3506L47.227 91.63C47.952 91.7863 48.4908 92.0341 48.8433 92.3733C49.1991 92.7125 49.3787 93.1565 49.3821 93.7053C49.3787 94.1875 49.2374 94.6132 48.958 94.9823C48.682 95.3482 48.2979 95.6342 47.8057 95.8404C47.3135 96.0466 46.7481 96.1497 46.1095 96.1497C45.1717 96.1497 44.4168 95.9534 43.8447 95.561C43.2727 95.1652 42.9318 94.6148 42.8221 93.9098L44.583 93.7402C44.6629 94.0861 44.8325 94.3471 45.0919 94.5234C45.3513 94.6996 45.6888 94.7878 46.1046 94.7878C46.5336 94.7878 46.8778 94.6996 47.1372 94.5234C47.3999 94.3471 47.5313 94.1293 47.5313 93.8699C47.5313 93.6504 47.4465 93.4691 47.2769 93.3261C47.1106 93.1831 46.8512 93.0734 46.4987 92.9969L45.1916 92.7225C44.4567 92.5695 43.9129 92.3118 43.5604 91.9493C43.2079 91.5834 43.0333 91.1212 43.0366 90.5625C43.0333 90.0902 43.1613 89.6811 43.4207 89.3353C43.6834 88.9861 44.0476 88.7167 44.5132 88.5271C44.9821 88.3342 45.5226 88.2378 46.1345 88.2378C47.0324 88.2378 47.7391 88.429 48.2546 88.8115C48.7734 89.1939 49.0944 89.7111 49.2174 90.3629ZM53.9138 96.1497C53.1489 96.1497 52.4921 95.9817 51.9433 95.6458C51.3979 95.3099 50.9772 94.846 50.6812 94.254C50.3885 93.6587 50.2422 92.9736 50.2422 92.1987C50.2422 91.4205 50.3919 90.7337 50.6912 90.1384C50.9905 89.5398 51.4129 89.0742 51.9583 88.7416C52.507 88.4057 53.1555 88.2378 53.9038 88.2378C54.5257 88.2378 55.0761 88.3525 55.555 88.582C56.0373 88.8081 56.4214 89.1291 56.7074 89.5448C56.9934 89.9572 57.1564 90.4394 57.1963 90.9915H55.4702C55.4004 90.6223 55.2341 90.3147 54.9714 90.0686C54.712 89.8192 54.3644 89.6944 53.9288 89.6944C53.5596 89.6944 53.2354 89.7942 52.956 89.9938C52.6766 90.19 52.4588 90.4727 52.3025 90.8418C52.1495 91.211 52.073 91.6533 52.073 92.1688C52.073 92.6909 52.1495 93.1399 52.3025 93.5157C52.4555 93.8882 52.67 94.1758 52.946 94.3787C53.2254 94.5783 53.553 94.678 53.9288 94.678C54.1948 94.678 54.4326 94.6281 54.6421 94.5284C54.855 94.4253 55.0329 94.2773 55.1759 94.0844C55.3189 93.8915 55.417 93.657 55.4702 93.381H57.1963C57.153 93.9231 56.9934 94.4037 56.7174 94.8227C56.4413 95.2384 56.0655 95.5643 55.59 95.8005C55.1144 96.0333 54.5557 96.1497 53.9138 96.1497ZM60.5844 96.1546C60.0988 96.1546 59.6615 96.0682 59.2724 95.8952C58.8866 95.719 58.5807 95.4596 58.3545 95.117C58.1317 94.7745 58.0203 94.3521 58.0203 93.8499C58.0203 93.4176 58.1001 93.0601 58.2597 92.7774C58.4194 92.4947 58.6372 92.2685 58.9132 92.0989C59.1893 91.9293 59.5002 91.8013 59.8461 91.7148C60.1953 91.625 60.5561 91.5602 60.9286 91.5203C61.3776 91.4737 61.7417 91.4321 62.0211 91.3955C62.3005 91.3556 62.5033 91.2958 62.6297 91.216C62.7594 91.1328 62.8243 91.0048 62.8243 90.8318V90.8019C62.8243 90.4261 62.7129 90.1351 62.49 89.9289C62.2672 89.7227 61.9463 89.6196 61.5272 89.6196C61.0849 89.6196 60.7341 89.7161 60.4746 89.909C60.2186 90.1018 60.0456 90.3297 59.9558 90.5924L58.2697 90.3529C58.4027 89.8873 58.6222 89.4982 58.9282 89.1856C59.2342 88.8697 59.6083 88.6335 60.0506 88.4772C60.4929 88.3176 60.9818 88.2378 61.5173 88.2378C61.8864 88.2378 62.2539 88.281 62.6197 88.3675C62.9856 88.454 63.3198 88.597 63.6224 88.7965C63.9251 88.9927 64.1679 89.2604 64.3508 89.5997C64.537 89.9389 64.6301 90.3629 64.6301 90.8717V96H62.8941V94.9474H62.8342C62.7245 95.1603 62.5698 95.3598 62.3703 95.546C62.1741 95.729 61.9263 95.8769 61.627 95.99C61.331 96.0998 60.9835 96.1546 60.5844 96.1546ZM61.0533 94.8277C61.4158 94.8277 61.7301 94.7562 61.9962 94.6132C62.2622 94.4668 62.4668 94.274 62.6098 94.0345C62.7561 93.7951 62.8293 93.534 62.8293 93.2513V92.3484C62.7727 92.3949 62.6763 92.4382 62.5399 92.4781C62.4069 92.518 62.2572 92.5529 62.0909 92.5828C61.9247 92.6128 61.76 92.6394 61.5971 92.6626C61.4341 92.6859 61.2928 92.7059 61.173 92.7225C60.9037 92.7591 60.6626 92.819 60.4497 92.9021C60.2369 92.9852 60.0689 93.1016 59.9459 93.2513C59.8228 93.3976 59.7613 93.5872 59.7613 93.82C59.7613 94.1526 59.8827 94.4037 60.1254 94.5733C60.3682 94.7429 60.6775 94.8277 61.0533 94.8277ZM66.1463 98.8734V88.3376H67.9222V89.6046H68.027C68.1201 89.4184 68.2515 89.2205 68.4211 89.011C68.5907 88.7982 68.8202 88.6169 69.1095 88.4673C69.3988 88.3143 69.768 88.2378 70.217 88.2378C70.8089 88.2378 71.3427 88.3891 71.8183 88.6917C72.2972 88.9911 72.6763 89.435 72.9557 90.0237C73.2384 90.609 73.3797 91.3274 73.3797 92.1788C73.3797 93.0202 73.2417 93.7352 72.9657 94.3238C72.6896 94.9125 72.3138 95.3615 71.8382 95.6708C71.3627 95.98 70.8239 96.1347 70.222 96.1347C69.783 96.1347 69.4188 96.0615 69.1295 95.9152C68.8401 95.7689 68.6073 95.5926 68.4311 95.3864C68.2581 95.1769 68.1234 94.979 68.027 94.7928H67.9521V98.8734H66.1463ZM67.9172 92.1688C67.9172 92.6643 67.9871 93.0983 68.1267 93.4708C68.2698 93.8433 68.4743 94.1343 68.7403 94.3438C69.0097 94.55 69.3356 94.6531 69.7181 94.6531C70.1172 94.6531 70.4514 94.5467 70.7208 94.3338C70.9902 94.1176 71.1931 93.8233 71.3294 93.4508C71.4691 93.075 71.5389 92.6477 71.5389 92.1688C71.5389 91.6932 71.4708 91.2708 71.3344 90.9017C71.198 90.5325 70.9952 90.2432 70.7258 90.0337C70.4564 89.8241 70.1205 89.7194 69.7181 89.7194C69.3323 89.7194 69.0047 89.8208 68.7354 90.0237C68.466 90.2266 68.2614 90.5109 68.1218 90.8767C67.9854 91.2426 67.9172 91.6732 67.9172 92.1688ZM74.6265 96V88.3376H76.4324V96H74.6265ZM75.5344 87.25C75.2484 87.25 75.0023 87.1553 74.7961 86.9657C74.5899 86.7728 74.4868 86.5417 74.4868 86.2723C74.4868 85.9996 74.5899 85.7684 74.7961 85.5789C75.0023 85.386 75.2484 85.2895 75.5344 85.2895C75.8237 85.2895 76.0698 85.386 76.2727 85.5789C76.4789 85.7684 76.582 85.9996 76.582 86.2723C76.582 86.5417 76.4789 86.7728 76.2727 86.9657C76.0698 87.1553 75.8237 87.25 75.5344 87.25ZM79.7955 91.5103V96H77.9897V88.3376H79.7157V89.6396H79.8055C79.9818 89.2106 80.2628 88.8697 80.6486 88.6169C81.0377 88.3642 81.5182 88.2378 82.0903 88.2378C82.6191 88.2378 83.0797 88.3509 83.4721 88.577C83.8679 88.8032 84.1738 89.1307 84.39 89.5598C84.6095 89.9888 84.7176 90.5092 84.7143 91.1212V96H82.9084V91.4005C82.9084 90.8884 82.7754 90.4876 82.5093 90.1983C82.2466 89.909 81.8824 89.7643 81.4168 89.7643C81.1009 89.7643 80.8198 89.8341 80.5737 89.9738C80.331 90.1102 80.1397 90.308 80.0001 90.5674C79.8637 90.8268 79.7955 91.1411 79.7955 91.5103ZM89.5827 99.0331C88.9342 99.0331 88.3772 98.9449 87.9116 98.7687C87.446 98.5957 87.0718 98.3629 86.7891 98.0703C86.5064 97.7776 86.3102 97.4533 86.2005 97.0975L87.8268 96.7034C87.8999 96.853 88.0063 97.001 88.146 97.1474C88.2857 97.297 88.4736 97.4201 88.7097 97.5165C88.9492 97.6163 89.2502 97.6662 89.6127 97.6662C90.1248 97.6662 90.5489 97.5415 90.8848 97.292C91.2207 97.0459 91.3886 96.6402 91.3886 96.0748V94.6232H91.2988C91.2057 94.8094 91.0693 95.0006 90.8897 95.1968C90.7135 95.3931 90.479 95.5577 90.1864 95.6907C89.897 95.8237 89.5329 95.8903 89.0939 95.8903C88.5052 95.8903 87.9714 95.7522 87.4925 95.4762C87.0169 95.1968 86.6378 94.7811 86.3551 94.2291C86.0758 93.6737 85.9361 92.9786 85.9361 92.1438C85.9361 91.3024 86.0758 90.5924 86.3551 90.0137C86.6378 89.4317 87.0186 88.9911 87.4975 88.6917C87.9764 88.3891 88.5102 88.2378 89.0988 88.2378C89.5478 88.2378 89.917 88.3143 90.2063 88.4673C90.499 88.6169 90.7318 88.7982 90.9047 89.011C91.0776 89.2205 91.209 89.4184 91.2988 89.6046H91.3986V88.3376H93.1795V96.1247C93.1795 96.7799 93.0232 97.322 92.7106 97.751C92.398 98.18 91.9706 98.5009 91.4285 98.7138C90.8864 98.9266 90.2712 99.0331 89.5827 99.0331ZM89.5977 94.4735C89.9802 94.4735 90.3061 94.3804 90.5755 94.1941C90.8448 94.0079 91.0494 93.7402 91.1891 93.391C91.3287 93.0418 91.3986 92.6227 91.3986 92.1339C91.3986 91.6516 91.3287 91.2293 91.1891 90.8668C91.0527 90.5043 90.8498 90.2232 90.5805 90.0237C90.3144 89.8208 89.9868 89.7194 89.5977 89.7194C89.1953 89.7194 88.8594 89.8241 88.59 90.0337C88.3206 90.2432 88.1178 90.5309 87.9814 90.8967C87.8451 91.2592 87.7769 91.6716 87.7769 92.1339C87.7769 92.6028 87.8451 93.0135 87.9814 93.366C88.1211 93.7152 88.3256 93.9879 88.595 94.1842C88.8677 94.3771 89.2019 94.4735 89.5977 94.4735Z" fill="#004FA3"/>
</svg>
